SplineFontDB: 3.0
FontName: Rokkitt-Light
FullName: Rokkitt Light
FamilyName: Rokkitt Light
Weight: Regular
Copyright: Copyright © 2011-2013 by Vernon Adams. All rights reserved.
ItalicAngle: 0
UnderlinePosition: 0
UnderlineWidth: 0
Ascent: 1638
Descent: 410
UFOAscent: 1152
UFODescent: -410
LayerCount: 2
Layer: 0 0 "Back"  1
Layer: 1 0 "Fore"  0
FSType: 0
OS2Version: 0
OS2_WeightWidthSlopeOnly: 0
OS2_UseTypoMetrics: 0
CreationTime: 1388524504
ModificationTime: 1388524639
PfmFamily: 0
TTFWeight: 300
TTFWidth: 5
LineGap: 0
VLineGap: 0
Panose: 2 0 5 3 5 0 0 2 0 3
OS2TypoAscent: 0
OS2TypoAOffset: 1
OS2TypoDescent: 0
OS2TypoDOffset: 1
OS2TypoLinegap: 0
OS2WinAscent: 0
OS2WinAOffset: 1
OS2WinDescent: 0
OS2WinDOffset: 1
HheadAscent: 0
HheadAOffset: 1
HheadDescent: 0
HheadDOffset: 1
OS2SubXSize: 1331
OS2SubYSize: 1228
OS2SubXOff: 0
OS2SubYOff: 153
OS2SupXSize: 1331
OS2SupYSize: 1228
OS2SupXOff: 0
OS2SupYOff: 716
OS2StrikeYSize: 0
OS2StrikeYPos: 501
OS2Vendor: 'newt'
OS2CodePages: 00000093.00000001
OS2UnicodeRanges: 00000007.00000000.00000000.00000000
DEI: 91125
LangName: 1033 "" "" "" "" "" "" "" "Rokkitt Light is a trademark of vernon adams." "vernon adams" "Vernon Adams" "Copyright (c) 2011-13 by vernon adams. All rights reserved." "newtypography.co.uk" "newtypography.co.uk" 
PickledData: "(dp1
S'com.typemytype.robofont.shouldAddPointsInSplineConversion'
p2
I1
sS'com.petr.ptt'
p3
(dp4
S'originals'
p5
(dp6
S'maxp'
p7
(dp8
S'tableTag'
p9
S'maxp'
p10
sS'numGlyphs'
p11
I423
sS'tableVersion'
p12
I20480
ssssS'com.schriftgestaltung.weight'
p13
S'Light'
p14
sS'com.typemytype.robofont.compileSettings.autohint'
p15
I0
sS'GSDimensionPlugin.Dimensions'
p16
(dp17
S'1F09728C-766D-4240-AE17-E499EF32E23D'
p18
(dp19
sS'98C086B7-81AA-4491-8494-0C6A76849168'
p20
(dp21
sS'EFCDB4D9-E20B-4A8D-9DB5-150AD166B0AE'
p22
(dp23
ssS'com.typemytype.robofont.compileSettings.checkOutlines'
p24
I1
sS'com.typemytype.robofont.compileSettings.MacRomanFirst'
p25
I1

StartChar: A
Encoding: 65 65 0
Width: 1305
VWidth: 0
Flags: W
PickledData: "(dp1
S'com.typemytype.robofont.layerData'
p2
(dp3
S'b'
(dp4
S'name'
p5
S'A'
sS'lib'
p6
(dp7
sS'unicodes'
p8
(tsS'width'
p9
I1305
sS'contours'
p10
(tsS'components'
p11
(tsS'anchors'
p12
(tsss."
AnchorPoint: "bot" 652.5 0 basechar 0
AnchorPoint: "top" 652.5 1152 basechar 0
AnchorPoint: "ogonek" 997 0 basechar 0
LayerCount: 2
Fore
SplineSet
38 0 m 257
 495 0 l 257
 495 116 l 257
 349 116 l 257
 445 424 l 257
 859 424 l 257
 958 116 l 257
 810 116 l 257
 810 0 l 257
 1267 0 l 257
 1267 116 l 257
 1124 116 l 257
 802 1037 l 257
 913 1037 l 257
 913 1153 l 257
 383 1153 l 257
 383 1037 l 257
 503 1037 l 257
 183 116 l 257
 38 116 l 257
 38 0 l 257
475 545 m 257
 646 1037 l 257
 660 1037 l 257
 829 545 l 257
 475 545 l 257
EndSplineSet
EndChar

StartChar: AE
Encoding: 198 198 1
Width: 1765
VWidth: 0
Flags: W
PickledData: "(dp1
S'com.typemytype.robofont.layerData'
p2
(dp3
S'b'
(dp4
S'name'
p5
S'AE'
p6
sS'lib'
p7
(dp8
sS'unicodes'
p9
(tsS'width'
p10
I1765
sS'contours'
p11
(tsS'components'
p12
(tsS'anchors'
p13
(tsss."
AnchorPoint: "top" 882.5 1152 basechar 0
LayerCount: 2
Fore
SplineSet
64 0 m 257
 517 0 l 257
 516 116 l 257
 362 116 l 257
 461 424 l 257
 842 424 l 257
 897 116 l 257
 732 116 l 257
 732 0 l 257
 1641 0 l 257
 1641 328 l 257
 1512 328 l 257
 1512 116 l 257
 1050 116 l 257
 975 522 l 257
 1283 522 l 257
 1283 384 l 257
 1384 384 l 257
 1385 743 l 257
 1283 743 l 257
 1283 629 l 257
 956 629 l 257
 885 1037 l 257
 1404 1037 l 257
 1407 832 l 257
 1539 832 l 257
 1539 1153 l 257
 368 1153 l 257
 368 1037 l 257
 520 1037 l 257
 201 116 l 257
 63 116 l 257
 64 0 l 257
503 545 m 257
 663 1037 l 257
 731 1037 l 257
 819 545 l 257
 503 545 l 257
EndSplineSet
EndChar

StartChar: B
Encoding: 66 66 13
Width: 1207
VWidth: 0
Flags: W
PickledData: "(dp1
S'com.typemytype.robofont.layerData'
p2
(dp3
S'b'
(dp4
S'name'
p5
S'B'
sS'lib'
p6
(dp7
sS'unicodes'
p8
(tsS'width'
p9
I1207
sS'contours'
p10
((dp11
S'points'
p12
((dp13
S'segmentType'
p14
S'line'
p15
sS'x'
I399
sS'smooth'
p16
I0
sS'y'
I1095
s(dp17
g14
S'line'
p18
sS'x'
I786
sg16
I1
sS'y'
I1095
s(dp19
S'y'
I1095
sS'x'
I963
sg16
I0
s(dp20
S'y'
I983
sS'x'
I1050
sg16
I0
s(dp21
g14
S'curve'
p22
sS'x'
I1050
sg16
I1
sS'y'
I868
s(dp23
S'y'
I751
sS'x'
I1050
sg16
I0
s(dp24
S'y'
I634
sS'x'
I974
sg16
I0
s(dp25
g14
S'curve'
p26
sS'x'
I830
sg16
I1
sS'y'
I634
s(dp27
g14
S'line'
p28
sS'x'
I399
sg16
I0
sS'y'
I634
stp29
s(dp30
g12
((dp31
g14
S'line'
p32
sS'x'
I399
sg16
I0
sS'y'
I573
s(dp33
g14
S'line'
p34
sS'x'
I839
sg16
I1
sS'y'
I573
s(dp35
S'y'
I573
sS'x'
I1025
sg16
I0
s(dp36
S'y'
I439
sS'x'
I1118
sg16
I0
s(dp37
g14
S'curve'
p38
sS'x'
I1118
sg16
I1
sS'y'
I320
s(dp39
S'y'
I187
sS'x'
I1118
sg16
I0
s(dp40
S'y'
I58
sS'x'
I1031
sg16
I0
s(dp41
g14
S'curve'
p42
sS'x'
I853
sg16
I1
sS'y'
I58
s(dp43
g14
S'line'
p44
sS'x'
I399
sg16
I0
sS'y'
I58
stp45
s(dp46
g12
((dp47
g14
S'line'
p48
sS'x'
I853
sg16
I1
sS'y'
I0
s(dp49
S'y'
I0
sS'x'
I1077
sg16
I0
s(dp50
S'y'
I158
sS'x'
I1192
sg16
I0
s(dp51
g14
S'curve'
p52
sS'x'
I1192
sg16
I1
sS'y'
I316
s(dp53
S'y'
I439
sS'x'
I1192
sg16
I0
s(dp54
S'y'
I568
sS'x'
I1120
sg16
I0
s(dp55
g14
S'curve'
p56
sS'x'
I965
sg16
I0
sS'y'
I611
s(dp57
S'y'
I669
sS'x'
I1075
sg16
I0
s(dp58
S'y'
I769
sS'x'
I1125
sg16
I0
s(dp59
g14
S'curve'
p60
sS'x'
I1125
sg16
I1
sS'y'
I870
s(dp61
S'y'
I1012
sS'x'
I1125
sg16
I0
s(dp62
S'y'
I1154
sS'x'
I1010
sg16
I0
s(dp63
g14
S'curve'
p64
sS'x'
I786
sg16
I1
sS'y'
I1154
s(dp65
g14
S'line'
p66
sS'x'
I168
sg16
I0
sS'y'
I1154
s(dp67
g14
S'line'
p68
sS'x'
I168
sg16
I0
sS'y'
I1095
s(dp69
g14
S'line'
p70
sS'x'
I324
sg16
I0
sS'y'
I1095
s(dp71
g14
S'line'
p72
sS'x'
I324
sg16
I0
sS'y'
I58
s(dp73
g14
S'line'
p74
sS'x'
I181
sg16
I0
sS'y'
I58
s(dp75
g14
S'line'
p76
sS'x'
I181
sg16
I0
sS'y'
I0
stp77
stp78
sS'components'
p79
(tsS'anchors'
p80
(tsss."
AnchorPoint: "top" 603.5 1152 basechar 0
LayerCount: 2
Fore
SplineSet
354 0 m 257
 654 0 l 258
 903 0 1115 94 1115 323 c 256
 1115 478 1022 566 900 607 c 257
 994 649 1061 740 1061 854 c 256
 1061 1058 908 1152 685 1152 c 258
 373 1152 l 257
 341 1036 l 257
 646 1036 l 258
 812 1036 895 975 895 851 c 256
 895 719 813 661 670 661 c 258
 349 661 l 257
 349 532 l 257
 679 532 l 258
 837 532 948 466 948 332 c 256
 948 188 856 116 673 116 c 258
 354 116 l 257
 354 0 l 257
EndSplineSet
Refer: 379 -1 N 1 0 0 1 7 0 2
EndChar

StartChar: C
Encoding: 67 67 14
Width: 1310
VWidth: 0
Flags: W
PickledData: "(dp1
S'com.typemytype.robofont.layerData'
p2
(dp3
S'b'
(dp4
S'name'
p5
S'C'
sS'lib'
p6
(dp7
sS'unicodes'
p8
(tsS'width'
p9
I1310
sS'contours'
p10
(tsS'components'
p11
(tsS'anchors'
p12
(tsss."
AnchorPoint: "top" 655 1152 basechar 0
AnchorPoint: "bot" 700 0 basechar 0
LayerCount: 2
Fore
SplineSet
700 -18 m 256
 963 -18 1147 113 1227 307 c 257
 1092 378 l 257
 1035 203 901 116 689 116 c 256
 452 116 285 308 285 580 c 256
 285 848 453 1037 690 1037 c 256
 870 1037 995 960 1071 807 c 257
 1196 807 l 257
 1196 1153 l 257
 1066 1153 l 257
 1066 1022 l 257
 971 1121 851 1171 708 1171 c 256
 359 1171 108 939 108 575 c 256
 110 214 356 -18 700 -18 c 256
EndSplineSet
EndChar

StartChar: D
Encoding: 68 68 21
Width: 1351
VWidth: 0
Flags: W
PickledData: "(dp1
S'com.typemytype.robofont.layerData'
p2
(dp3
S'b'
(dp4
S'name'
p5
S'D'
sS'lib'
p6
(dp7
sS'unicodes'
p8
(tsS'width'
p9
I1351
sS'contours'
p10
(tsS'components'
p11
(tsS'anchors'
p12
(tsss."
AnchorPoint: "bot" 675.5 0 basechar 0
AnchorPoint: "top" 675.5 1152 basechar 0
AnchorPoint: "mid" 362 591 basechar 0
LayerCount: 2
Fore
SplineSet
326 0 m 257
 661 0 l 258
 1061 0 1261 199 1261 596 c 256
 1261 963 1038 1153 675 1153 c 258
 326 1153 l 257
 326 1036 l 257
 671 1036 l 258
 959 1036 1096 865 1096 581 c 256
 1096 308 962 116 687 116 c 258
 326 116 l 257
 326 0 l 257
EndSplineSet
Refer: 379 -1 N 1 0 0 1 7 0 2
EndChar

StartChar: Delta
Encoding: 916 916 24
Width: 991
VWidth: 0
Flags: W
LayerCount: 2
Fore
SplineSet
48 0 m 257
 943 0 l 257
 943 102 l 257
 577 1166 l 257
 429 1166 l 257
 48 91 l 257
 48 0 l 257
171 117 m 257
 429.441 850.199 453 928 468 993 c 257
 528 733 659.059 406.412 752 117 c 257
 171 117 l 257
EndSplineSet
EndChar

StartChar: E
Encoding: 69 69 25
Width: 1190
VWidth: 0
Flags: W
PickledData: "(dp1
S'com.typemytype.robofont.layerData'
p2
(dp3
S'b'
(dp4
S'name'
p5
S'E'
sS'lib'
p6
(dp7
sS'unicodes'
p8
(tsS'width'
p9
I1190
sS'contours'
p10
(tsS'components'
p11
(tsS'anchors'
p12
(tsss."
AnchorPoint: "bot" 595 0 basechar 0
AnchorPoint: "top" 595 1152 basechar 0
AnchorPoint: "ogonek" 762 0 basechar 0
LayerCount: 2
Fore
SplineSet
776 410 m 257
 877 410 l 257
 877 769 l 257
 777 769 l 257
 777 655 l 257
 345 655 l 257
 347 526 l 257
 776 526 l 257
 776 410 l 257
341 0 m 257
 1097 0 l 257
 1097 328 l 257
 968 328 l 257
 968 116 l 257
 341 116 l 257
 341 0 l 257
961 817 m 257
 1092 817 l 257
 1092 1151 l 257
 341 1151 l 257
 341 1036 l 257
 961 1034 l 257
 961 817 l 257
EndSplineSet
Refer: 379 -1 N 1 0 0 1 7 0 2
EndChar

StartChar: Eng
Encoding: 330 330 34
Width: 1454
VWidth: 0
Flags: W
LayerCount: 2
Fore
SplineSet
934 1153 m 257
 934 1037 l 257
 1104 1037 l 257
 1104 211 l 257
 494 1153 l 257
 122 1153 l 257
 122 1037 l 257
 291 1037 l 257
 291 116 l 257
 122 116 l 257
 122 0 l 257
 594 0 l 257
 594 116 l 257
 425 116 l 257
 425 997 l 257
 1104 -22.4645 l 257
 1104 -100 l 258
 1104 -226 972 -275 835 -275 c 257
 831 -400 l 257
 1045 -400 1238 -305 1238 -76 c 258
 1238 1037 l 257
 1384 1037 l 257
 1384 1153 l 257
 934 1153 l 257
EndSplineSet
EndChar

StartChar: Euro
Encoding: 8364 8364 37
Width: 1300
VWidth: 0
Flags: W
AnchorPoint: "top" 722 1153 basechar 0
AnchorPoint: "bot" 700 0 basechar 0
LayerCount: 2
Fore
SplineSet
700 -18 m 256
 963 -18 1147 113 1227 307 c 257
 1092 378 l 257
 1035 203 901 116 689 116 c 256
 515 116 374 228 315 397 c 257
 602 397 l 257
 642 518 l 257
 288 518 l 257
 286 538 285 559 285 580 c 256
 285 598.997 286 618 288 636 c 257
 602 636 l 257
 642 757 l 257
 315 757 l 257
 375 923 519 1037 690 1037 c 256
 870 1037 995 960 1071 807 c 257
 1196 807 l 257
 1196 1153 l 257
 1066 1153 l 257
 1066 1022 l 257
 971 1121 851 1171 708 1171 c 256
 421 1171 201 1015 131 757 c 257
 14.9999 757 l 257
 -25 636 l 257
 110 636 l 257
 109 616 108 596 108 575 c 256
 108 556 109 537 110 518 c 257
 15 518 l 257
 -25 397 l 257
 131 397 l 257
 200 140 417 -18 700 -18 c 256
EndSplineSet
EndChar

StartChar: F
Encoding: 70 70 38
Width: 1077
VWidth: 0
Flags: W
PickledData: "(dp1
S'com.typemytype.robofont.layerData'
p2
(dp3
S'b'
(dp4
S'name'
p5
S'F'
sS'lib'
p6
(dp7
sS'unicodes'
p8
(tsS'width'
p9
I1077
sS'contours'
p10
((dp11
S'points'
p12
((dp13
S'segmentType'
p14
S'line'
p15
sS'x'
I1036
sS'smooth'
p16
I0
sS'y'
I1086
s(dp17
g14
S'line'
p18
sS'x'
I1036
sg16
I0
sS'y'
I802
s(dp19
g14
S'line'
p20
sS'x'
I1108
sg16
I0
sS'y'
I802
s(dp21
g14
S'line'
p22
sS'x'
I1108
sg16
I0
sS'y'
I1152
s(dp23
g14
S'line'
p24
sS'x'
I168
sg16
I0
sS'y'
I1152
s(dp25
g14
S'line'
p26
sS'x'
I168
sg16
I0
sS'y'
I1086
s(dp27
g14
S'line'
p28
sS'x'
I332
sg16
I0
sS'y'
I1086
s(dp29
g14
S'line'
p30
sS'x'
I332
sg16
I0
sS'y'
I1039
s(dp31
g14
S'line'
p32
sS'x'
I409
sg16
I0
sS'y'
I1039
s(dp33
g14
S'line'
p34
sS'x'
I409
sg16
I0
sS'y'
I1086
stp35
s(dp36
g12
((dp37
g14
S'line'
p38
sS'x'
I332
sg16
I0
sS'y'
I1039
s(dp39
g14
S'line'
p40
sS'x'
I332
sg16
I0
sS'y'
I677
s(dp41
g14
S'line'
p42
sS'x'
I409
sg16
I0
sS'y'
I677
s(dp43
g14
S'line'
p44
sS'x'
I409
sg16
I0
sS'y'
I1039
stp45
s(dp46
g12
((dp47
g14
S'line'
p48
sS'x'
I332
sg16
I0
sS'y'
I677
s(dp49
g14
S'line'
p50
sS'x'
I332
sg16
I0
sS'y'
I65
s(dp51
g14
S'line'
p52
sS'x'
I168
sg16
I0
sS'y'
I65
s(dp53
g14
S'line'
p54
sS'x'
I168
sg16
I0
sS'y'
I0
s(dp55
g14
S'line'
p56
sS'x'
I598
sg16
I0
sS'y'
I0
s(dp57
g14
S'line'
p58
sS'x'
I598
sg16
I0
sS'y'
I65
s(dp59
g14
S'line'
p60
sS'x'
I409
sg16
I0
sS'y'
I65
s(dp61
g14
S'line'
p62
sS'x'
I409
sg16
I0
sS'y'
I539
s(dp63
g14
S'line'
p64
sS'x'
I870
sg16
I0
sS'y'
I539
s(dp65
g14
S'line'
p66
sS'x'
I870
sg16
I0
sS'y'
I378
s(dp67
g14
S'line'
p68
sS'x'
I932
sg16
I0
sS'y'
I378
s(dp69
g14
S'line'
p70
sS'x'
I932
sg16
I0
sS'y'
I764
s(dp71
g14
S'line'
p72
sS'x'
I870
sg16
I0
sS'y'
I764
s(dp73
g14
S'line'
p74
sS'x'
I870
sg16
I0
sS'y'
I601
s(dp75
g14
S'line'
p76
sS'x'
I409
sg16
I0
sS'y'
I601
s(dp77
g14
S'line'
p78
sS'x'
I409
sg16
I0
sS'y'
I677
stp79
stp80
sS'components'
p81
(tsS'anchors'
p82
(tsss."
AnchorPoint: "bot" 538.5 0 basechar 0
AnchorPoint: "top" 538.5 1152 basechar 0
LayerCount: 2
Fore
SplineSet
753 412 m 257
 854 412 l 257
 854 771 l 257
 754 771 l 257
 754 657 l 257
 344 657 l 257
 345 528 l 257
 753 528 l 257
 753 412 l 257
906 818 m 257
 1038 818 l 257
 1038 1152 l 257
 340 1152 l 257
 340 1036 l 257
 906 1036 l 257
 906 818 l 257
EndSplineSet
Refer: 379 -1 N 1 0 0 1 7 0 2
EndChar

StartChar: G
Encoding: 71 71 39
Width: 1355
VWidth: 0
Flags: W
PickledData: "(dp1
S'com.typemytype.robofont.layerData'
p2
(dp3
S'b'
(dp4
S'name'
p5
S'G'
sS'lib'
p6
(dp7
sS'unicodes'
p8
(tsS'width'
p9
I1355
sS'contours'
p10
(tsS'components'
p11
(tsS'anchors'
p12
(tsss."
AnchorPoint: "top" 677.5 1152 basechar 0
AnchorPoint: "bot" 718 0 basechar 0
LayerCount: 2
Fore
SplineSet
716 -18 m 256
 1079 -18 1265 179 1265 563 c 257
 874 563 l 257
 874 436 l 257
 1101 436 l 257
 1094 235 961 116 715 116 c 256
 463 116 285 307 285 576 c 256
 285 846 459 1037 704 1037 c 256
 881 1037 1009 960 1088 806 c 257
 1212 806 l 257
 1212 1153 l 257
 1082 1153 l 257
 1082 1022 l 257
 983 1121 854 1171 695 1171 c 256
 352 1171 108 925 108 575 c 256
 108 201 372 -18 716 -18 c 256
EndSplineSet
EndChar

StartChar: H
Encoding: 72 72 45
Width: 1417
VWidth: 0
Flags: W
PickledData: "(dp1
S'com.typemytype.robofont.layerData'
p2
(dp3
S'b'
(dp4
S'name'
p5
S'H'
sS'lib'
p6
(dp7
sS'unicodes'
p8
(tsS'width'
p9
I1417
sS'contours'
p10
(tsS'components'
p11
(tsS'anchors'
p12
(tsss."
AnchorPoint: "top" 708.5 1152 basechar 0
AnchorPoint: "bot" 719 0 basechar 0
LayerCount: 2
Fore
SplineSet
350 538 m 257
 1083 538 l 257
 1082 667 l 257
 349 667 l 257
 350 538 l 257
EndSplineSet
Refer: 379 -1 N 1 0 0 1 7 0 2
Refer: 379 -1 N 1 0 0 1 752 0 2
EndChar

StartChar: Hbar
Encoding: 294 294 46
Width: 1381
VWidth: 0
Flags: W
PickledData: "(dp1
S'com.typemytype.robofont.layerData'
p2
(dp3
S'b'
(dp4
S'name'
p5
S'Hbar'
p6
sS'lib'
p7
(dp8
sS'unicodes'
p9
(tsS'width'
p10
I1381
sS'contours'
p11
(tsS'components'
p12
(tsS'anchors'
p13
(tsss."
LayerCount: 2
Fore
SplineSet
156 808 m 257
 1257 808 l 257
 1257 893 l 257
 156 893 l 257
 156 808 l 257
EndSplineSet
Refer: 45 72 N 1 0 0 1 0 0 2
EndChar

StartChar: J
Encoding: 74 74 59
Width: 761
VWidth: 0
Flags: W
PickledData: "(dp1
S'com.typemytype.robofont.layerData'
p2
(dp3
S'b'
(dp4
S'name'
p5
S'J'
sS'lib'
p6
(dp7
sS'unicodes'
p8
(tsS'width'
p9
I761
sS'contours'
p10
(tsS'components'
p11
(tsS'anchors'
p12
(tsss."
AnchorPoint: "bot" 380.5 0 basechar 0
AnchorPoint: "top" 380.5 1152 basechar 0
LayerCount: 2
Fore
SplineSet
108 -135 m 257
 255 -135 l 258
 414 -137 502 -30 502 143 c 258
 502 1036 l 257
 655 1036 l 257
 655 1152 l 257
 184 1152 l 257
 184 1036 l 257
 339 1036 l 257
 339 148 l 258
 339 53 318 0 228 0 c 258
 108 0 l 257
 108 -135 l 257
EndSplineSet
EndChar

StartChar: K
Encoding: 75 75 61
Width: 1233
VWidth: 0
Flags: W
PickledData: "(dp1
S'com.typemytype.robofont.guides'
p2
((dp3
S'y'
I593
sS'x'
I467
sS'magnetic'
p4
I5
sS'angle'
p5
I0
sS'isGlobal'
p6
I0
stp7
sS'com.typemytype.robofont.layerData'
p8
(dp9
S'b'
(dp10
S'name'
p11
S'K'
sS'lib'
p12
(dp13
sS'unicodes'
p14
(tsS'width'
p15
I1233
sS'contours'
p16
(tsS'components'
p17
(tsS'anchors'
p18
(tsss."
AnchorPoint: "top" 616.5 1152 basechar 0
AnchorPoint: "bot" 653 0 basechar 0
LayerCount: 2
Fore
SplineSet
732 0 m 257
 1204 0 l 257
 1204 116 l 257
 1073 116 l 257
 593 589 l 257
 1049 1037 l 257
 1178 1037 l 257
 1178 1153 l 257
 736 1153 l 257
 736 1037 l 257
 863 1037 l 257
 401 589 l 257
 876 116 l 257
 732 116 l 257
 732 0 l 257
EndSplineSet
Refer: 379 -1 N 1 0 0 1 7 0 2
EndChar

StartChar: L
Encoding: 76 76 63
Width: 1084
VWidth: 0
Flags: W
PickledData: "(dp1
S'com.typemytype.robofont.layerData'
p2
(dp3
S'b'
(dp4
S'name'
p5
S'L'
sS'lib'
p6
(dp7
sS'unicodes'
p8
(tsS'width'
p9
I1084
sS'contours'
p10
(tsS'components'
p11
(tsS'anchors'
p12
(tsss."
AnchorPoint: "bot" 562 0 basechar 0
AnchorPoint: "mid" 349 712 basechar 0
AnchorPoint: "top" 542 1152 basechar 0
AnchorPoint: "caron.alt" 381 804 basechar 0
LayerCount: 2
Fore
SplineSet
341 0 m 257
 1002 0 l 257
 1002 452 l 257
 857 452 l 257
 857 116 l 257
 341 116 l 257
 341 0 l 257
EndSplineSet
Refer: 379 -1 N 1 0 0 1 7 0 2
EndChar

StartChar: Lslash
Encoding: 321 321 68
Width: 1005
VWidth: 0
Flags: W
PickledData: "(dp1
S'com.typemytype.robofont.layerData'
p2
(dp3
S'b'
(dp4
S'name'
p5
S'Lslash'
p6
sS'lib'
p7
(dp8
sS'unicodes'
p9
(tsS'width'
p10
I1005
sS'contours'
p11
(tsS'components'
p12
(tsS'anchors'
p13
(tsss."
LayerCount: 2
Fore
SplineSet
90 440 m 257
 567 697 l 257
 567 826 l 257
 90 569 l 257
 90 440 l 257
EndSplineSet
Refer: 63 76 N 1 0 0 1 0 0 2
EndChar

StartChar: M
Encoding: 77 77 69
Width: 1690
VWidth: 0
Flags: W
PickledData: "(dp1
S'com.typemytype.robofont.layerData'
p2
(dp3
S'b'
(dp4
S'name'
p5
S'M'
sS'lib'
p6
(dp7
sS'unicodes'
p8
(tsS'width'
p9
I1690
sS'contours'
p10
(tsS'components'
p11
(tsS'anchors'
p12
(tsss."
AnchorPoint: "bot" 845 0 basechar 0
AnchorPoint: "top" 845 1152 basechar 0
LayerCount: 2
Fore
SplineSet
122 0 m 257
 537 0 l 257
 537 116 l 257
 404 116 l 257
 404 1022 l 257
 816 45 l 257
 858 45 l 257
 1273 1023 l 257
 1273 116 l 257
 1140 116 l 257
 1140 0 l 257
 1568 0 l 257
 1568 116 l 257
 1421 116 l 257
 1421 1037 l 257
 1568 1037 l 257
 1568 1153 l 257
 1178 1153 l 257
 840 345 l 257
 507 1153 l 257
 122 1153 l 257
 122 1037 l 257
 270 1037 l 257
 270 116 l 257
 122 116 l 257
 122 0 l 257
EndSplineSet
EndChar

StartChar: N
Encoding: 78 78 70
Width: 1454
VWidth: 0
Flags: W
PickledData: "(dp1
S'com.typemytype.robofont.layerData'
p2
(dp3
S'b'
(dp4
S'name'
p5
S'N'
sS'lib'
p6
(dp7
sS'unicodes'
p8
(tsS'width'
p9
I1454
sS'contours'
p10
(tsS'components'
p11
(tsS'anchors'
p12
(tsss."
AnchorPoint: "top" 727 1152 basechar 0
AnchorPoint: "bot" 763 0 basechar 0
LayerCount: 2
Fore
SplineSet
122 0 m 257
 594 0 l 257
 594 116 l 257
 425 116 l 257
 425 997 l 257
 1069 0 l 257
 1238 0 l 257
 1238 1037 l 257
 1384 1037 l 257
 1384 1153 l 257
 934 1153 l 257
 934 1037 l 257
 1104 1037 l 257
 1104 211 l 257
 494 1153 l 257
 122 1153 l 257
 122 1037 l 257
 291 1037 l 257
 291 116 l 257
 122 116 l 257
 122 0 l 257
EndSplineSet
EndChar

StartChar: O
Encoding: 79 79 75
Width: 1410
VWidth: 0
Flags: W
PickledData: "(dp1
S'com.typemytype.robofont.layerData'
p2
(dp3
S'b'
(dp4
S'name'
p5
S'O'
sS'lib'
p6
(dp7
sS'unicodes'
p8
(tsS'width'
p9
I1410
sS'contours'
p10
(tsS'components'
p11
(tsS'anchors'
p12
(tsss."
AnchorPoint: "bot" 705 0 basechar 0
AnchorPoint: "top" 705 1152 basechar 0
AnchorPoint: "ogonek" 757 0 basechar 0
LayerCount: 2
Fore
SplineSet
704 116 m 256
 460 116 287 307 287 576 c 256
 287 845 460 1036 704 1037 c 256
 949 1036 1122 845 1122 576 c 256
 1122 307 949 116 704 116 c 256
704 -18 m 256
 1055 -18 1300 234 1300 575 c 256
 1300 924 1057 1171 703 1171 c 256
 350 1171 110 923 110 575 c 256
 110 229 353 -16 704 -18 c 256
EndSplineSet
EndChar

StartChar: OE
Encoding: 338 338 76
Width: 1911
VWidth: 0
Flags: W
PickledData: "(dp1
S'com.typemytype.robofont.layerData'
p2
(dp3
S'b'
(dp4
S'name'
p5
S'OE'
p6
sS'lib'
p7
(dp8
sS'unicodes'
p9
(tsS'width'
p10
I1911
sS'contours'
p11
(tsS'components'
p12
(tsS'anchors'
p13
(tsss."
LayerCount: 2
Fore
SplineSet
657 0 m 258
 1787 0 l 257
 1787 328 l 257
 1658 328 l 257
 1658 116 l 257
 1147 116 l 257
 1147 526 l 257
 1492 526 l 257
 1492 410 l 257
 1593 410 l 257
 1593 769 l 257
 1493 769 l 257
 1493 639 l 257
 1145 639 l 257
 1145 1037 l 257
 1655 1037 l 257
 1655 832 l 257
 1787 832 l 257
 1787 1152 l 257
 657 1152 l 258
 324 1151 99 911 100 575 c 256
 99 241 325 0 657 0 c 258
706 116 m 258
 444 118 277 300 278 577 c 257
 277 855 432 1038 697 1037 c 258
 986 1036 l 257
 986 114 l 257
 706 116 l 258
EndSplineSet
EndChar

StartChar: Omega
Encoding: 937 937 84
Width: 1350
VWidth: 0
Flags: W
LayerCount: 2
Fore
SplineSet
186 0 m 257
 599 0 l 257
 599 109 l 257
 383 254 279 467 279 654 c 256
 279 868 415 1047 675 1047 c 256
 935 1047 1071 868 1071 654 c 256
 1071 467 967 254 751 109 c 257
 751 0 l 257
 1164 0 l 257
 1164 118 l 257
 928 118 l 257
 1123 253 1222 463 1222 661 c 256
 1222 929 1041 1174 675 1174 c 256
 309 1174 128 929 128 661 c 256
 128 463 227 253 422 118 c 257
 186 118 l 257
 186 0 l 257
EndSplineSet
EndChar

StartChar: Oslash
Encoding: 216 216 85
Width: 1390
VWidth: 0
Flags: W
PickledData: "(dp1
S'com.typemytype.robofont.layerData'
p2
(dp3
S'b'
(dp4
S'name'
p5
S'Oslash'
p6
sS'lib'
p7
(dp8
sS'unicodes'
p9
(tsS'width'
p10
I1390
sS'contours'
p11
(tsS'components'
p12
(tsS'anchors'
p13
(tsss."
AnchorPoint: "top" 695 1152 basechar 0
LayerCount: 2
Fore
SplineSet
240 -77 m 257
 1216 1139 l 257
 1132 1198 l 257
 156 -18 l 257
 240 -77 l 257
EndSplineSet
Refer: 75 79 N 1 0 0 1 0 0 2
EndChar

StartChar: P
Encoding: 80 80 88
Width: 1149
VWidth: 0
Flags: W
PickledData: "(dp1
S'com.typemytype.robofont.layerData'
p2
(dp3
S'b'
(dp4
S'name'
p5
S'P'
sS'lib'
p6
(dp7
sS'unicodes'
p8
(tsS'width'
p9
I1149
sS'contours'
p10
((dp11
S'points'
p12
((dp13
S'segmentType'
p14
S'line'
p15
sS'x'
I399
sS'smooth'
p16
I0
sS'y'
I1095
s(dp17
g14
S'line'
p18
sS'x'
I805
sg16
I1
sS'y'
I1095
s(dp19
S'y'
I1095
sS'x'
I982
sg16
I0
s(dp20
S'y'
I960
sS'x'
I1070
sg16
I0
s(dp21
g14
S'curve'
p22
sS'x'
I1070
sg16
I1
sS'y'
I823
s(dp23
S'y'
I683
sS'x'
I1070
sg16
I0
s(dp24
S'y'
I544
sS'x'
I980
sg16
I0
s(dp25
g14
S'curve'
p26
sS'x'
I805
sg16
I1
sS'y'
I544
s(dp27
g14
S'line'
p28
sS'x'
I399
sg16
I0
sS'y'
I544
stp29
s(dp30
g12
((dp31
g14
S'line'
p32
sS'x'
I181
sg16
I0
sS'y'
I0
s(dp33
g14
S'line'
p34
sS'x'
I558
sg16
I0
sS'y'
I0
s(dp35
g14
S'line'
p36
sS'x'
I558
sg16
I0
sS'y'
I58
s(dp37
g14
S'line'
p38
sS'x'
I399
sg16
I0
sS'y'
I58
s(dp39
g14
S'line'
p40
sS'x'
I399
sg16
I0
sS'y'
I483
s(dp41
g14
S'line'
p42
sS'x'
I805
sg16
I1
sS'y'
I483
s(dp43
S'y'
I483
sS'x'
I1030
sg16
I0
s(dp44
S'y'
I656
sS'x'
I1144
sg16
I0
s(dp45
g14
S'curve'
p46
sS'x'
I1144
sg16
I1
sS'y'
I826
s(dp47
S'y'
I989
sS'x'
I1144
sg16
I0
s(dp48
S'y'
I1154
sS'x'
I1030
sg16
I0
s(dp49
g14
S'curve'
p50
sS'x'
I805
sg16
I1
sS'y'
I1154
s(dp51
g14
S'line'
p52
sS'x'
I168
sg16
I0
sS'y'
I1154
s(dp53
g14
S'line'
p54
sS'x'
I168
sg16
I0
sS'y'
I1095
s(dp55
g14
S'line'
p56
sS'x'
I324
sg16
I0
sS'y'
I1095
s(dp57
g14
S'line'
p58
sS'x'
I324
sg16
I0
sS'y'
I58
s(dp59
g14
S'line'
p60
sS'x'
I181
sg16
I0
sS'y'
I58
stp61
stp62
sS'components'
p63
(tsS'anchors'
p64
(tsss."
AnchorPoint: "bot" 574.5 0 basechar 0
AnchorPoint: "top" 574.5 1152 basechar 0
LayerCount: 2
Fore
SplineSet
490 472 m 257
 598 472 l 258
 887 472 1068 605 1068 816 c 256
 1068 1022 916 1152 675 1152 c 258
 341 1152 l 257
 341 1036 l 257
 677 1036 l 258
 816 1036 903 952 903 818 c 256
 901 670 795 588 628 588 c 258
 490 588 l 257
 490 472 l 257
EndSplineSet
Refer: 379 -1 N 1 0 0 1 7 0 2
EndChar

StartChar: Q
Encoding: 81 81 89
Width: 1402
VWidth: 0
Flags: W
PickledData: "(dp1
S'com.typemytype.robofont.layerData'
p2
(dp3
S'b'
(dp4
S'name'
p5
S'Q'
sS'lib'
p6
(dp7
sS'unicodes'
p8
(tsS'width'
p9
I1402
sS'contours'
p10
(tsS'components'
p11
(tsS'anchors'
p12
(tsss."
LayerCount: 2
Fore
SplineSet
1035 -229 m 256
 1100 -229 1159 -214 1217 -192 c 257
 1172 -70 l 257
 1137 -81 1088 -97 1029 -97 c 256
 959 -97 856 -45 766 44 c 257
 554 49 l 257
 743 -140 905 -229 1035 -229 c 256
EndSplineSet
Refer: 75 79 N 1 0 0 1 0 0 2
EndChar

StartChar: R
Encoding: 82 82 90
Width: 1231
VWidth: 0
Flags: W
PickledData: "(dp1
S'com.typemytype.robofont.layerData'
p2
(dp3
S'b'
(dp4
S'name'
p5
S'R'
sS'lib'
p6
(dp7
sS'unicodes'
p8
(tsS'width'
p9
I1231
sS'contours'
p10
((dp11
S'points'
p12
((dp13
S'segmentType'
p14
S'line'
p15
sS'x'
I181
sS'smooth'
p16
I0
sS'y'
I0
s(dp17
g14
S'line'
p18
sS'x'
I558
sg16
I0
sS'y'
I0
s(dp19
g14
S'line'
p20
sS'x'
I558
sg16
I0
sS'y'
I58
s(dp21
g14
S'line'
p22
sS'x'
I399
sg16
I0
sS'y'
I58
s(dp23
g14
S'line'
p24
sS'x'
I399
sg16
I0
sS'y'
I539
s(dp25
g14
S'line'
p26
sS'x'
I687
sg16
I0
sS'y'
I539
s(dp27
g14
S'line'
p28
sS'x'
I1007
sg16
I0
sS'y'
I0
s(dp29
g14
S'line'
p30
sS'x'
I1224
sg16
I0
sS'y'
I0
s(dp31
g14
S'line'
p32
sS'x'
I1224
sg16
I0
sS'y'
I58
s(dp33
g14
S'line'
p34
sS'x'
I1061
sg16
I0
sS'y'
I58
s(dp35
g14
S'line'
p36
sS'x'
I767
sg16
I0
sS'y'
I539
s(dp37
S'y'
I539
sS'x'
I991
sg16
I0
s(dp38
S'y'
I696
sS'x'
I1105
sg16
I0
s(dp39
g14
S'curve'
p40
sS'x'
I1105
sg16
I1
sS'y'
I848
s(dp41
S'y'
I1000
sS'x'
I1105
sg16
I0
s(dp42
S'y'
I1154
sS'x'
I991
sg16
I0
s(dp43
g14
S'curve'
p44
sS'x'
I767
sg16
I1
sS'y'
I1154
s(dp45
g14
S'line'
p46
sS'x'
I168
sg16
I0
sS'y'
I1154
s(dp47
g14
S'line'
p48
sS'x'
I168
sg16
I0
sS'y'
I1095
s(dp49
g14
S'line'
p50
sS'x'
I324
sg16
I0
sS'y'
I1095
s(dp51
g14
S'line'
p52
sS'x'
I324
sg16
I0
sS'y'
I58
s(dp53
g14
S'line'
p54
sS'x'
I181
sg16
I0
sS'y'
I58
stp55
s(dp56
g12
((dp57
g14
S'line'
p58
sS'x'
I399
sg16
I0
sS'y'
I1095
s(dp59
g14
S'line'
p60
sS'x'
I767
sg16
I1
sS'y'
I1095
s(dp61
S'y'
I1095
sS'x'
I944
sg16
I0
s(dp62
S'y'
I971
sS'x'
I1031
sg16
I0
s(dp63
g14
S'curve'
p64
sS'x'
I1031
sg16
I1
sS'y'
I845
s(dp65
S'y'
I723
sS'x'
I1031
sg16
I0
s(dp66
S'y'
I600
sS'x'
I942
sg16
I0
s(dp67
g14
S'curve'
p68
sS'x'
I767
sg16
I1
sS'y'
I600
s(dp69
g14
S'line'
p70
sS'x'
I399
sg16
I0
sS'y'
I600
stp71
stp72
sS'components'
p73
(tsS'anchors'
p74
(tsss."
AnchorPoint: "top" 615.5 1152 basechar 0
AnchorPoint: "bot" 710 0 basechar 0
LayerCount: 2
Fore
SplineSet
938 0 m 257
 1191 0 l 257
 1191 116 l 257
 1045 116 l 257
 773 558 l 257
 946 592 1052 691 1052 855 c 256
 1052 1067 907 1152 672 1152 c 258
 337 1152 l 257
 337 1037 l 257
 660 1037 l 258
 788 1037 886 979 886 857 c 256
 886 726 808 657 667 657 c 258
 494 657 l 257
 494 538 l 257
 617 538 l 257
 938 0 l 257
EndSplineSet
Refer: 379 -1 N 1 0 0 1 7 0 2
EndChar

StartChar: S
Encoding: 83 83 94
Width: 1129
VWidth: 0
Flags: W
PickledData: "(dp1
S'com.typemytype.robofont.layerData'
p2
(dp3
S'b'
(dp4
S'name'
p5
S'S'
sS'lib'
p6
(dp7
sS'unicodes'
p8
(tsS'width'
p9
I1129
sS'contours'
p10
((dp11
S'points'
p12
((dp13
S'segmentType'
p14
S'curve'
p15
sS'x'
I618
sS'smooth'
p16
I1
sS'y'
S'-23'
p17
s(dp18
S'y'
S'-23'
p19
sS'x'
I930
sg16
I0
s(dp20
S'y'
I171
sS'x'
I1026
sg16
I0
s(dp21
g14
S'curve'
p22
sS'x'
I1026
sg16
I1
sS'y'
I295
s(dp23
S'y'
I543
sS'x'
I1026
sg16
I0
s(dp24
S'y'
I599
sS'x'
I829
sg16
I0
s(dp25
g14
S'curve'
p26
sS'x'
I606
sg16
I1
sS'y'
I622
s(dp27
S'y'
I643
sS'x'
I405
sg16
I0
s(dp28
S'y'
I667
sS'x'
I269
sg16
I0
s(dp29
g14
S'curve'
p30
sS'x'
I269
sg16
I1
sS'y'
I851
s(dp31
S'y'
I998
sS'x'
I269
sg16
I0
s(dp32
S'y'
I1104
sS'x'
I360
sg16
I0
s(dp33
g14
S'curve'
p34
sS'x'
I573
sg16
I1
sS'y'
I1104
s(dp35
S'y'
I1104
sS'x'
I719
sg16
I0
s(dp36
S'y'
I1024
sS'x'
I885
sg16
I0
s(dp37
g14
S'curve'
p38
sS'x'
I885
sg16
I1
sS'y'
I941
s(dp39
g14
S'line'
p40
sS'x'
I885
sg16
I0
sS'y'
I839
s(dp41
g14
S'line'
p42
sS'x'
I959
sg16
I0
sS'y'
I839
s(dp43
g14
S'line'
p44
sS'x'
I959
sg16
I0
sS'y'
I1152
s(dp45
g14
S'line'
p46
sS'x'
I885
sg16
I0
sS'y'
I1152
s(dp47
g14
S'line'
p48
sS'x'
I885
sg16
I0
sS'y'
I1049
s(dp49
S'y'
I1131
sS'x'
I828
sg16
I0
s(dp50
S'y'
I1172
sS'x'
I673
sg16
I0
s(dp51
g14
S'curve'
p52
sS'x'
I561
sg16
I1
sS'y'
I1172
s(dp53
S'y'
I1172
sS'x'
I360
sg16
I0
s(dp54
S'y'
I1066
sS'x'
I184
sg16
I0
s(dp55
g14
S'curve'
p56
sS'x'
I184
sg16
I1
sS'y'
I863
s(dp57
S'y'
I635
sS'x'
I184
sg16
I0
s(dp58
S'y'
I579
sS'x'
I332
sg16
I0
s(dp59
g14
S'curve'
p60
sS'x'
I584
sg16
I1
sS'y'
I553
s(dp61
S'y'
I531
sS'x'
I805
sg16
I0
s(dp62
S'y'
I488
sS'x'
I942
sg16
I0
s(dp63
g14
S'curve'
p64
sS'x'
I942
sg16
I1
sS'y'
I300
s(dp65
S'y'
I169
sS'x'
I942
sg16
I0
s(dp66
S'y'
I47
sS'x'
I831
sg16
I0
s(dp67
g14
S'curve'
p68
sS'x'
I644
sg16
I1
sS'y'
I47
s(dp69
S'y'
I47
sS'x'
I448
sg16
I0
s(dp70
S'y'
I118
sS'x'
I261
sg16
I0
s(dp71
g14
S'curve'
p72
sS'x'
I261
sg16
I1
sS'y'
I247
s(dp73
g14
S'line'
p74
sS'x'
I261
sg16
I0
sS'y'
I387
s(dp75
g14
S'line'
p76
sS'x'
I187
sg16
I0
sS'y'
I387
s(dp77
g14
S'line'
p78
sS'x'
I187
sg16
I0
sS'y'
S'-1'
p79
s(dp80
g14
S'line'
p81
sS'x'
I261
sg16
I0
sS'y'
S'-1'
p82
s(dp83
g14
S'line'
p84
sS'x'
I261
sg16
I0
sS'y'
I122
s(dp85
S'y'
I22
sS'x'
I335
sg16
I0
s(dp86
S'y'
S'-23'
p87
sS'x'
I496
sg16
I0
stp88
stp89
sS'components'
p90
(tsS'anchors'
p91
(tsss."
AnchorPoint: "top" 564.5 1152 basechar 0
AnchorPoint: "bot" 613 0 basechar 0
LayerCount: 2
Fore
SplineSet
617 -18 m 256
 826 -18 999 105 999 303 c 256
 999 575 785 621 586 665 c 256
 440 697 333 733 333 855 c 256
 333 984 420 1043 551 1043 c 256
 655 1043 757 993 802 928 c 257
 802 818 l 257
 937 818 l 257
 937 1153 l 257
 802 1153 l 257
 802 1079 l 257
 724 1140 634 1171 533 1171 c 256
 333 1171 177 1059 177 858 c 256
 177 606 364 564 553 524 c 256
 710 491 834 453 834 298 c 256
 834 178 723 110 591 110 c 256
 472 110 376 180 320 261 c 257
 320 387 l 257
 185 387 l 257
 185 0 l 257
 320 0 l 257
 320 101 l 257
 389 24 503 -18 617 -18 c 256
EndSplineSet
EndChar

StartChar: Sigma
Encoding: 931 931 100
Width: 1109
VWidth: 0
Flags: W
LayerCount: 2
Fore
SplineSet
76 0 m 257
 1008 0 l 257
 1008 328 l 257
 879 328 l 257
 879 116 l 257
 331 116 l 257
 713 582 l 257
 714 613 l 257
 371 1037 l 257
 877 1037 l 257
 877 818 l 257
 1008 818 l 257
 1008 1153 l 257
 76 1153 l 257
 76 1037 l 257
 192 1037 l 257
 567 566 l 257
 192 116 l 257
 76 116 l 257
 76 0 l 257
EndSplineSet
EndChar

StartChar: T
Encoding: 84 84 101
Width: 1095
VWidth: 0
Flags: W
PickledData: "(dp1
S'com.typemytype.robofont.layerData'
p2
(dp3
S'b'
(dp4
S'name'
p5
S'T'
sS'lib'
p6
(dp7
sS'unicodes'
p8
(tsS'width'
p9
I1095
sS'contours'
p10
(tsS'components'
p11
(tsS'anchors'
p12
(tsss."
AnchorPoint: "top" 547.5 1152 basechar 0
AnchorPoint: "mid" 556 622 basechar 0
AnchorPoint: "bot" 564 0 basechar 0
LayerCount: 2
Fore
SplineSet
64 795 m 257
 203 795 l 257
 203 1036 l 257
 890 1036 l 257
 890 795 l 257
 1031 795 l 257
 1031 1152 l 257
 64 1152 l 257
 64 795 l 257
EndSplineSet
Refer: 379 -1 N 1 0 0 1 227 0 2
EndChar

StartChar: Thorn
Encoding: 222 222 105
Width: 1030
VWidth: 0
Flags: W
PickledData: "(dp1
S'com.typemytype.robofont.layerData'
p2
(dp3
S'b'
(dp4
S'name'
p5
S'Thorn'
p6
sS'lib'
p7
(dp8
sS'unicodes'
p9
(tsS'width'
p10
I1030
sS'contours'
p11
(tsS'components'
p12
(tsS'anchors'
p13
(tsss."
LayerCount: 2
Fore
SplineSet
63 0 m 257
 534 0 l 257
 534 116 l 257
 376 116 l 257
 376 261 l 257
 522 261 l 258
 825 261 992 333 992 607 c 256
 992 830 825 943 596 942 c 258
 374 942 l 257
 374 1038 l 257
 534 1038 l 257
 534 1153 l 257
 63 1153 l 257
 63 1037 l 257
 214 1037 l 257
 214 116 l 257
 63 116 l 257
 63 0 l 257
374 386 m 257
 374 815 l 257
 601 815 l 258
 746 815 827 741 827 596 c 256
 824 448 738 386 552 386 c 258
 374 386 l 257
EndSplineSet
EndChar

StartChar: U
Encoding: 85 85 106
Width: 1307
VWidth: 0
Flags: W
PickledData: "(dp1
S'com.typemytype.robofont.layerData'
p2
(dp3
S'b'
(dp4
S'name'
p5
S'U'
sS'lib'
p6
(dp7
sS'unicodes'
p8
(tsS'width'
p9
I1307
sS'contours'
p10
(tsS'components'
p11
(tsS'anchors'
p12
(tsss."
AnchorPoint: "bot" 653.5 0 basechar 0
AnchorPoint: "top" 653.5 1152 basechar 0
AnchorPoint: "ogonek" 755 0 basechar 0
LayerCount: 2
Fore
SplineSet
665 -18 m 256
 940 -18 1097 106 1097 380 c 258
 1097 1037 l 257
 1226 1037 l 257
 1226 1153 l 257
 793 1153 l 257
 793 1037 l 257
 935 1037 l 257
 935 389 l 258
 935 202 863 116 672 116 c 256
 494 116 388 195 388 378 c 258
 388 1037 l 257
 530 1037 l 257
 530 1153 l 257
 83 1153 l 257
 83 1037 l 257
 226 1037 l 257
 226 382 l 258
 226 116 401 -18 665 -18 c 256
EndSplineSet
EndChar

StartChar: V
Encoding: 86 86 117
Width: 1305
VWidth: 0
Flags: W
PickledData: "(dp1
S'com.typemytype.robofont.layerData'
p2
(dp3
S'b'
(dp4
S'name'
p5
S'V'
sS'lib'
p6
(dp7
sS'unicodes'
p8
(tsS'width'
p9
I1305
sS'contours'
p10
(tsS'components'
p11
(tsS'anchors'
p12
(tsss."
LayerCount: 2
Fore
SplineSet
579 0 m 257
 733 0 l 257
 1131 1037 l 257
 1277 1037 l 257
 1277 1153 l 257
 832 1153 l 257
 832 1037 l 257
 973 1037 l 257
 661 184 l 257
 344 1037 l 257
 485 1037 l 257
 485 1153 l 257
 30 1153 l 257
 30 1037 l 257
 176 1037 l 257
 579 0 l 257
EndSplineSet
EndChar

StartChar: W
Encoding: 87 87 118
Width: 1831
VWidth: 0
Flags: W
PickledData: "(dp1
S'com.typemytype.robofont.layerData'
p2
(dp3
S'b'
(dp4
S'name'
p5
S'W'
sS'lib'
p6
(dp7
sS'unicodes'
p8
(tsS'width'
p9
I1831
sS'contours'
p10
(tsS'components'
p11
(tsS'anchors'
p12
(tsss."
AnchorPoint: "bot" 915.5 0 basechar 0
AnchorPoint: "top" 915.5 1152 basechar 0
LayerCount: 2
Fore
SplineSet
481 0 m 257
 639 0 l 257
 917 949 l 257
 1202 0 l 257
 1360 0 l 257
 1657 1037 l 257
 1801 1037 l 257
 1801 1153 l 257
 1372 1153 l 257
 1372 1037 l 257
 1502 1037 l 257
 1285 210 l 257
 1023 1108 l 257
 824 1108 l 257
 564 210 l 257
 334 1037 l 257
 471 1037 l 257
 471 1153 l 257
 30 1153 l 257
 30 1037 l 257
 173 1037 l 257
 481 0 l 257
EndSplineSet
EndChar

StartChar: X
Encoding: 88 88 123
Width: 1211
VWidth: 0
Flags: W
PickledData: "(dp1
S'com.typemytype.robofont.layerData'
p2
(dp3
S'b'
(dp4
S'name'
p5
S'X'
sS'lib'
p6
(dp7
sS'unicodes'
p8
(tsS'width'
p9
I1211
sS'contours'
p10
(tsS'components'
p11
(tsS'anchors'
p12
(tsss."
LayerCount: 2
Fore
SplineSet
28 0 m 257
 496 0 l 257
 496 116 l 257
 350 116 l 257
 595 470 l 257
 845 116 l 257
 704 116 l 257
 704 0 l 257
 1183 0 l 257
 1183 116 l 257
 1025 116 l 257
 677 599 l 257
 999 1037 l 257
 1152 1037 l 257
 1152 1153 l 257
 700 1153 l 257
 700 1037 l 257
 842 1037 l 257
 601 700 l 257
 371 1037 l 257
 508 1037 l 257
 508 1153 l 257
 39 1153 l 257
 39 1037 l 257
 195 1037 l 257
 522 574 l 257
 191 116 l 257
 28 116 l 257
 28 0 l 257
EndSplineSet
EndChar

StartChar: Y
Encoding: 89 89 124
Width: 1242
VWidth: 0
Flags: W
PickledData: "(dp1
S'com.typemytype.robofont.layerData'
p2
(dp3
S'b'
(dp4
S'name'
p5
S'Y'
sS'lib'
p6
(dp7
sS'unicodes'
p8
(tsS'width'
p9
I1242
sS'contours'
p10
(tsS'components'
p11
(tsS'anchors'
p12
(tsss."
AnchorPoint: "bot" 621 0 basechar 0
AnchorPoint: "top" 621 1152 basechar 0
LayerCount: 2
Fore
SplineSet
386 0 m 257
 869 0 l 257
 869 116 l 257
 705 116 l 257
 705 530 l 257
 1048 1037 l 257
 1204 1037 l 257
 1204 1153 l 257
 744 1153 l 257
 744 1037 l 257
 894 1037 l 257
 637 648 l 257
 363 1037 l 257
 513 1037 l 257
 513 1153 l 257
 38 1153 l 257
 38 1037 l 257
 187 1037 l 257
 545 530 l 257
 545 116 l 257
 386 116 l 257
 386 0 l 257
EndSplineSet
EndChar

StartChar: Z
Encoding: 90 90 129
Width: 1146
VWidth: 0
Flags: W
PickledData: "(dp1
S'com.typemytype.robofont.layerData'
p2
(dp3
S'b'
(dp4
S'name'
p5
S'Z'
sS'lib'
p6
(dp7
sS'unicodes'
p8
(tsS'width'
p9
I1146
sS'contours'
p10
(tsS'components'
p11
(tsS'anchors'
p12
(tsss."
AnchorPoint: "bot" 573 0 basechar 0
AnchorPoint: "top" 573 1152 basechar 0
LayerCount: 2
Fore
SplineSet
147 0 m 257
 1019 0 l 257
 1019 335 l 257
 890 335 l 257
 890 116 l 257
 342 116 l 257
 1009 1041 l 257
 1009 1153 l 257
 177 1153 l 257
 177 818 l 257
 306 818 l 257
 306 1037 l 257
 804 1037 l 257
 147 128 l 257
 147 0 l 257
EndSplineSet
EndChar

StartChar: a
Encoding: 97 97 133
Width: 915
VWidth: 0
Flags: W
PickledData: "(dp1
S'com.typemytype.robofont.layerData'
p2
(dp3
S'b'
(dp4
S'name'
p5
S'a'
sS'lib'
p6
(dp7
sS'unicodes'
p8
(tsS'width'
p9
I915
sS'contours'
p10
((dp11
S'points'
p12
((dp13
S'segmentType'
p14
S'curve'
p15
sS'x'
I391
sS'smooth'
p16
I1
sS'y'
S'-14'
p17
s(dp18
S'y'
S'-14'
p19
sS'x'
I507
sg16
I0
s(dp20
S'y'
I21
sS'x'
I593
sg16
I0
s(dp21
g14
S'curve'
p22
sS'x'
I687
sg16
I0
sS'y'
I91
s(dp23
g14
S'line'
p24
sS'x'
I703
sg16
I0
sS'y'
S'-1'
p25
s(dp26
g14
S'line'
p27
sS'x'
I890
sg16
I0
sS'y'
S'-1'
p28
s(dp29
g14
S'line'
p30
sS'x'
I890
sg16
I0
sS'y'
I57
s(dp31
g14
S'line'
p32
sS'x'
I764
sg16
I0
sS'y'
I57
s(dp33
g14
S'line'
p34
sS'x'
I764
sg16
I1
sS'y'
I569
s(dp35
S'y'
I672
sS'x'
I764
sg16
I0
s(dp36
S'y'
I819
sS'x'
I710
sg16
I0
s(dp37
g14
S'curve'
p38
sS'x'
I461
sg16
I1
sS'y'
I819
s(dp39
S'y'
I819
sS'x'
I332
sg16
I0
s(dp40
S'y'
I792
sS'x'
I226
sg16
I0
s(dp41
g14
S'curve'
p42
sS'x'
I155
sg16
I0
sS'y'
I724
s(dp43
g14
S'line'
p44
sS'x'
I190
sg16
I0
sS'y'
I668
s(dp45
S'y'
I726
sS'x'
I247
sg16
I0
s(dp46
S'y'
I755
sS'x'
I339
sg16
I0
s(dp47
g14
S'curve'
p48
sS'x'
I459
sg16
I1
sS'y'
I755
s(dp49
S'y'
I755
sS'x'
I600
sg16
I0
s(dp50
S'y'
I706
sS'x'
I687
sg16
I0
s(dp51
g14
S'curve'
p52
sS'x'
I687
sg16
I1
sS'y'
I551
s(dp53
g14
S'line'
p54
sS'x'
I687
sg16
I0
sS'y'
I428
s(dp55
S'y'
I443
sS'x'
I609
sg16
I0
s(dp56
S'y'
I455
sS'x'
I539
sg16
I0
s(dp57
g14
S'curve'
p58
sS'x'
I465
sg16
I1
sS'y'
I455
s(dp59
S'y'
I455
sS'x'
I295
sg16
I0
s(dp60
S'y'
I433
sS'x'
I117
sg16
I0
s(dp61
g14
S'curve'
p62
sS'x'
I117
sg16
I1
sS'y'
I222
s(dp63
S'y'
I96
sS'x'
I117
sg16
I0
s(dp64
S'y'
S'-14'
p65
sS'x'
I206
sg16
I0
stp66
s(dp67
g12
((dp68
g14
S'curve'
p69
sS'x'
I401
sg16
I1
sS'y'
I50
s(dp70
S'y'
I50
sS'x'
I246
sg16
I0
s(dp71
S'y'
I142
sS'x'
I195
sg16
I0
s(dp72
g14
S'curve'
p73
sS'x'
I195
sg16
I1
sS'y'
I220
s(dp74
S'y'
I390
sS'x'
I195
sg16
I0
s(dp75
S'y'
I393
sS'x'
I346
sg16
I0
s(dp76
g14
S'curve'
p77
sS'x'
I462
sg16
I1
sS'y'
I393
s(dp78
S'y'
I393
sS'x'
I559
sg16
I0
s(dp79
S'y'
I368
sS'x'
I687
sg16
I0
s(dp80
g14
S'curve'
p81
sS'x'
I687
sg16
I0
sS'y'
I368
s(dp82
g14
S'line'
p83
sS'x'
I687
sg16
I0
sS'y'
I151
s(dp84
S'y'
I76
sS'x'
I606
sg16
I0
s(dp85
S'y'
I50
sS'x'
I511
sg16
I0
stp86
stp87
sS'components'
p88
(tsS'anchors'
p89
(tsss."
AnchorPoint: "bot" 457.5 0 basechar 0
AnchorPoint: "top" 441 804 basechar 0
AnchorPoint: "ogonek" 712 0 basechar 0
LayerCount: 2
Fore
SplineSet
343 -18 m 256
 431 -18 561 19 621 93 c 257
 621 93 623 21 623 0 c 257
 889 0 l 257
 889 116 l 257
 756 116 l 257
 756 545 l 258
 756 741 603 826 432 826 c 256
 322 826 205 789 116 731 c 257
 169 634 l 257
 261 681 351 705 426 705 c 256
 533 705 608 655 608 554 c 258
 608 450 l 257
 540 463 475 470 414 470 c 256
 210 470 76 405 76 206 c 256
 76 69 201 -18 343 -18 c 256
358 93 m 256
 275 93 216 145 216 222 c 256
 216 342 298 372 432 372 c 256
 485 372 582 361 608 356 c 257
 608 182 l 257
 545 123 461 93 358 93 c 256
EndSplineSet
EndChar

StartChar: acute
Encoding: 180 180 137
Width: 562
VWidth: 0
Flags: W
PickledData: "(dp1
S'com.typemytype.robofont.layerData'
p2
(dp3
S'b'
(dp4
S'name'
p5
S'acute'
p6
sS'lib'
p7
(dp8
sS'unicodes'
p9
(tsS'width'
p10
I562
sS'contours'
p11
(tsS'components'
p12
(tsS'anchors'
p13
(tsss."
AnchorPoint: "top" 281 804 mark 0
LayerCount: 2
Fore
SplineSet
165 914 m 257
 284 914 l 257
 471 1171 l 257
 264 1171 l 257
 165 914 l 257
EndSplineSet
EndChar

StartChar: ae
Encoding: 230 230 139
Width: 1417
VWidth: 0
Flags: W
PickledData: "(dp1
S'com.typemytype.robofont.layerData'
p2
(dp3
S'b'
(dp4
S'name'
p5
S'ae'
p6
sS'lib'
p7
(dp8
sS'unicodes'
p9
(tsS'width'
p10
I1417
sS'contours'
p11
(tsS'components'
p12
(tsS'anchors'
p13
(tsss."
AnchorPoint: "top" 708.5 804 basechar 0
LayerCount: 2
Fore
SplineSet
342 -22 m 256
 453 -22 581 13 687 103 c 257
 757 20 886 -22 1015 -22 c 256
 1161 -22 1267 36 1341 137 c 257
 1262 225 l 257
 1208 155 1138 107 1018 107 c 256
 903.143 107 821.895 162.835 783.436 254.149 c 256
 769.66 286.859 761.374 324.121 759 365 c 257
 1367 365 l 257
 1367 642 1229 826 1015 826 c 256
 911 826 779 792 698 640 c 257
 657 771 537 826 419 826 c 256
 309 826 186 787 103 731 c 257
 156 634 l 257
 225 673 334 705 403 705 c 256
 544.613 705 594.056 652.573 601.093 494.064 c 256
 601.709 480.2 602 465.524 602 450 c 257
 534 463 473 470 412 470 c 256
 181 470 65 387 65 221 c 256
 66 79 192 -22 342 -22 c 256
344 93 m 256
 273 93 206 149 206 221 c 256
 206 342 310 372 423 372 c 256
 485 372 549 363 601 356 c 257
 646 197 l 257
 569 130 480 93 344 93 c 256
763 467 m 257
 780 601 868 695 1006 695 c 256
 1141 695 1204 603 1224 467 c 257
 763 467 l 257
EndSplineSet
EndChar

StartChar: ampersand
Encoding: 38 38 144
Width: 1201
VWidth: 0
Flags: W
PickledData: "(dp1
S'com.typemytype.robofont.layerData'
p2
(dp3
S'b'
(dp4
S'name'
p5
S'ampersand'
p6
sS'lib'
p7
(dp8
sS'unicodes'
p9
(tsS'width'
p10
I1201
sS'contours'
p11
(tsS'components'
p12
(tsS'anchors'
p13
(tsss."
LayerCount: 2
Fore
SplineSet
453 -19 m 256
 569 -19 683 26 794 115 c 257
 880 0 l 257
 1140 0 l 257
 1140 125 l 257
 956 125 l 257
 883 223 l 257
 935 278 978 355 1011 456 c 257
 1140 456 l 257
 1140 583 l 257
 910 583 l 257
 889 485 854 401 803 332 c 257
 563 621 l 257
 728 692 810 795 810 930 c 256
 810 1073 679 1172 531 1172 c 256
 379 1172 242 1067 242 916 c 256
 242 851 281 769 359 670 c 257
 155 596 53 481 53 325 c 256
 53 117 238 -19 453 -19 c 256
479 116 m 256
 333 116 207 199 207 335 c 256
 207 440 283 520 435 573 c 257
 717 219 l 257
 642 150 563 116 479 116 c 256
491 720 m 257
 438 791 382 842 382 936 c 256
 382 1009 452 1045 529 1045 c 256
 612 1045 676 1008 676 926 c 256
 676 818 581 767 491 720 c 257
EndSplineSet
EndChar

StartChar: apostrophemod
Encoding: 700 700 146
Width: 600
VWidth: 0
Flags: W
AnchorPoint: "top" 73 492 mark 0
LayerCount: 2
Fore
SplineSet
-15 771 m 257
 135 771 207 846 206 985 c 257
 206 1174 l 257
 0 1174 l 257
 0 985 l 257
 106 985 l 257
 106 908 72 854 -15 836 c 257
 -15 771 l 257
EndSplineSet
EndChar

StartChar: approxequal
Encoding: 8776 8776 147
Width: 1149
VWidth: 0
Flags: W
PickledData: "(dp1
S'com.typemytype.robofont.layerData'
p2
(dp3
S'b'
(dp4
S'name'
p5
S'approxequal'
p6
sS'lib'
p7
(dp8
sS'unicodes'
p9
(tsS'width'
p10
I1149
sS'contours'
p11
(tsS'components'
p12
(tsS'anchors'
p13
(tsss."
LayerCount: 2
Fore
SplineSet
793 135 m 256
 954 135 1013 304 1034 493 c 257
 911 493 l 257
 898 379 876 256 795 256 c 256
 671.226 256 620.588 493 350 493 c 256
 182 493 130 316 113 135 c 257
 233 135 l 257
 244 262 264 372 362 372 c 256
 476.962 372 653.848 135 793 135 c 256
793 571 m 256
 954 571 1013 740 1034 929 c 257
 911 929 l 257
 898 815 876 692 795 692 c 256
 671.096 692 612.878 929 350 929 c 256
 182 929 130 752 113 571 c 257
 233 571 l 257
 248 730 288 809 353 809 c 256
 520.506 809 660.067 571 793 571 c 256
EndSplineSet
EndChar

StartChar: asciicircum
Encoding: 94 94 149
Width: 826
VWidth: 0
Flags: W
PickledData: "(dp1
S'com.typemytype.robofont.layerData'
p2
(dp3
S'b'
(dp4
S'name'
p5
S'asciicircum'
p6
sS'lib'
p7
(dp8
sS'unicodes'
p9
(tsS'width'
p10
I826
sS'contours'
p11
(tsS'components'
p12
(tsS'anchors'
p13
(tsss."
LayerCount: 2
Fore
SplineSet
38 605 m 257
 189 605 l 257
 415 1040 l 257
 637 605 l 257
 788 605 l 257
 492 1171 l 257
 339 1171 l 257
 38 605 l 257
EndSplineSet
EndChar

StartChar: asciitilde
Encoding: 126 126 150
Width: 1062
VWidth: 0
Flags: W
PickledData: "(dp1
S'com.typemytype.robofont.layerData'
p2
(dp3
S'b'
(dp4
S'name'
p5
S'asciitilde'
p6
sS'lib'
p7
(dp8
sS'unicodes'
p9
(tsS'width'
p10
I1062
sS'contours'
p11
(tsS'components'
p12
(tsS'anchors'
p13
(tsss."
LayerCount: 2
Fore
SplineSet
77 573 m 257
 132 496 l 257
 176 551 240 588 304 588 c 256
 435 588 592 441 778 441 c 256
 863 441 933 485 987 573 c 257
 924 651 l 257
 883 599 833 563 775 563 c 256
 648 563 486 709 307 709 c 256
 216 709 140 664 77 573 c 257
EndSplineSet
EndChar

StartChar: asterisk
Encoding: 42 42 151
Width: 916
VWidth: 0
Flags: W
PickledData: "(dp1
S'com.typemytype.robofont.layerData'
p2
(dp3
S'b'
(dp4
S'name'
p5
S'asterisk'
p6
sS'lib'
p7
(dp8
sS'unicodes'
p9
(tsS'width'
p10
I916
sS'contours'
p11
(tsS'components'
p12
(tsS'anchors'
p13
(tsss."
LayerCount: 2
Fore
SplineSet
307 464 m 257
 463 763 l 257
 619 464 l 257
 739 549 l 257
 508 790 l 257
 835 848 l 257
 792 989 l 257
 485 836 l 257
 536 1171 l 257
 391 1171 l 257
 441 836 l 257
 134 989 l 257
 91 848 l 257
 418 790 l 257
 185 549 l 257
 307 464 l 257
EndSplineSet
EndChar

StartChar: at
Encoding: 64 64 152
Width: 1418
VWidth: 0
Flags: W
PickledData: "(dp1
S'com.typemytype.robofont.layerData'
p2
(dp3
S'b'
(dp4
S'name'
p5
S'at'
p6
sS'lib'
p7
(dp8
sS'unicodes'
p9
(tsS'width'
p10
I1418
sS'contours'
p11
(tsS'components'
p12
(tsS'anchors'
p13
(tsss."
LayerCount: 2
Fore
SplineSet
777 -143 m 256
 954 -143 1103 -96 1224 -3 c 257
 1155 81 l 257
 1056 5 922 -33 756 -33 c 256
 429 -33 210 164 210 490 c 256
 210 807 438 1058 752 1058 c 256
 1026 1058 1232 893 1232 637 c 256
 1232 475 1126 258 992 258 c 256
 944.526 258 966.818 316.818 978 369 c 258
 1088 879 l 257
 952 879 l 257
 930 766 l 257
 901 847 828 897 730 897 c 256
 505 897 359 691 359 471 c 256
 359 279 461 141 642 141 c 256
 724 141 793 182 848 263 c 257
 855 193 883 141 950 141 c 256
 1204 141 1357 384 1357 644 c 256
 1357 976 1102 1172 754 1172 c 256
 371 1172 76 864 76 494 c 256
 76 104 362 -143 777 -143 c 256
663 250 m 256
 548 250 495 338 495 450 c 256
 495 613 570 784 729 784 c 256
 820 784 888 704 888 612 c 256
 888 455 813 250 663 250 c 256
EndSplineSet
EndChar

StartChar: backslash
Encoding: 92 92 155
Width: 793
VWidth: 0
Flags: W
PickledData: "(dp1
S'com.typemytype.robofont.layerData'
p2
(dp3
S'b'
(dp4
S'name'
p5
S'backslash'
p6
sS'lib'
p7
(dp8
sS'unicodes'
p9
(tsS'width'
p10
I793
sS'contours'
p11
(tsS'components'
p12
(tsS'anchors'
p13
(tsss."
LayerCount: 2
Fore
SplineSet
563 -18 m 257
 692 -18 l 257
 258 1171 l 257
 129 1171 l 257
 563 -18 l 257
EndSplineSet
EndChar

StartChar: bar
Encoding: 124 124 156
Width: 404
VWidth: 0
Flags: W
PickledData: "(dp1
S'com.typemytype.robofont.layerData'
p2
(dp3
S'b'
(dp4
S'name'
p5
S'bar'
p6
sS'lib'
p7
(dp8
sS'unicodes'
p9
(tsS'width'
p10
I404
sS'contours'
p11
(tsS'components'
p12
(tsS'anchors'
p13
(tsss."
LayerCount: 2
Fore
SplineSet
141 -194 m 257
 263 -194 l 257
 263 1255 l 257
 141 1255 l 257
 141 -194 l 257
EndSplineSet
EndChar

StartChar: braceleft
Encoding: 123 123 157
Width: 528
VWidth: 0
Flags: W
PickledData: "(dp1
S'com.typemytype.robofont.layerData'
p2
(dp3
S'b'
(dp4
S'name'
p5
S'braceleft'
p6
sS'lib'
p7
(dp8
sS'unicodes'
p9
(tsS'width'
p10
I528
sS'contours'
p11
(tsS'components'
p12
(tsS'anchors'
p13
(tsss."
LayerCount: 2
Fore
SplineSet
411 -197 m 258
 485 -197 l 257
 485 -78 l 257
 331 -78 320 -41 320 86 c 256
 320 393 275 470 212 507 c 257
 275 544 320 621 320 928 c 256
 320 1055 331 1092 485 1092 c 257
 485 1211 l 257
 411 1211 l 258
 191 1211 171 1092 171 806 c 256
 171 643 160 539 23 539 c 257
 23 475 l 257
 160 475 171 371 171 208 c 256
 171 -78 191 -197 411 -197 c 258
EndSplineSet
EndChar

StartChar: braceright
Encoding: 125 125 158
Width: 588
VWidth: 0
Flags: W
PickledData: "(dp1
S'com.typemytype.robofont.layerData'
p2
(dp3
S'b'
(dp4
S'name'
p5
S'braceright'
p6
sS'lib'
p7
(dp8
sS'unicodes'
p9
(tsS'width'
p10
I588
sS'contours'
p11
(tsS'components'
p12
(tsS'anchors'
p13
(tsss."
LayerCount: 2
Fore
SplineSet
108 -197 m 257
 182 -197 l 258
 402 -197 422 -78 422 208 c 256
 422 371 433 475 570 475 c 257
 570 539 l 257
 433 539 422 643 422 806 c 256
 422 1092 402 1211 182 1211 c 258
 108 1211 l 257
 108 1092 l 257
 262 1092 273 1055 273 928 c 256
 273 621 318 544 381 507 c 257
 318 470 273 393 273 86 c 256
 273 -41 262 -78 108 -78 c 257
 108 -197 l 257
EndSplineSet
EndChar

StartChar: bracketleft
Encoding: 91 91 159
Width: 569
VWidth: 0
Flags: W
PickledData: "(dp1
S'com.typemytype.robofont.layerData'
p2
(dp3
S'b'
(dp4
S'name'
p5
S'bracketleft'
p6
sS'lib'
p7
(dp8
sS'unicodes'
p9
(tsS'width'
p10
I569
sS'contours'
p11
(tsS'components'
p12
(tsS'anchors'
p13
(tsss."
LayerCount: 2
Fore
SplineSet
129 -189 m 257
 523 -189 l 257
 523 -82 l 257
 272 -82 l 257
 272 1113 l 257
 523 1113 l 257
 523 1222 l 257
 129 1222 l 257
 129 -189 l 257
EndSplineSet
EndChar

StartChar: bracketright
Encoding: 93 93 160
Width: 569
VWidth: 0
Flags: W
PickledData: "(dp1
S'com.typemytype.robofont.layerData'
p2
(dp3
S'b'
(dp4
S'name'
p5
S'bracketright'
p6
sS'lib'
p7
(dp8
sS'unicodes'
p9
(tsS'width'
p10
I569
sS'contours'
p11
(tsS'components'
p12
(tsS'anchors'
p13
(tsss."
LayerCount: 2
Fore
SplineSet
72 -189 m 257
 466 -189 l 257
 466 1222 l 257
 72 1222 l 257
 72 1113 l 257
 323 1113 l 257
 323 -82 l 257
 72 -82 l 257
 72 -189 l 257
EndSplineSet
EndChar

StartChar: breve
Encoding: 728 728 161
Width: 584
VWidth: 0
Flags: W
PickledData: "(dp1
S'com.typemytype.robofont.layerData'
p2
(dp3
S'b'
(dp4
S'name'
p5
S'breve'
p6
sS'lib'
p7
(dp8
sS'unicodes'
p9
(tsS'width'
p10
I584
sS'contours'
p11
(tsS'components'
p12
(tsS'anchors'
p13
(tsss."
AnchorPoint: "top" 292 804 mark 0
LayerCount: 2
Fore
SplineSet
292 940 m 256
 441 940 534 1029 546 1153 c 257
 421 1153 l 257
 411 1082 353 1047 294 1047 c 256
 235 1047 174 1082 162 1153 c 257
 38 1153 l 257
 48 1024 154 940 292 940 c 256
EndSplineSet
EndChar

StartChar: breveinvertedcomb
Encoding: 785 785 162
Width: 584
VWidth: 0
Flags: W
PickledData: "(dp1
S'com.typemytype.robofont.layerData'
p2
(dp3
S'b'
(dp4
S'name'
p5
S'uni0311'
p6
sS'lib'
p7
(dp8
sS'unicodes'
p9
(tsS'width'
p10
I584
sS'contours'
p11
(tsS'components'
p12
(tsS'anchors'
p13
(tsss."
AnchorPoint: "top" 299 804 mark 0
LayerCount: 2
Fore
SplineSet
74 940 m 257
 184 940 l 257
 198 1021 232 1058 292 1058 c 256
 351 1058 384 1021 395 940 c 257
 506 940 l 257
 491 1074 423 1152 292 1153 c 256
 156 1152 87 1074 74 940 c 257
EndSplineSet
EndChar

StartChar: brokenbar
Encoding: 166 166 163
Width: 404
VWidth: 0
Flags: W
PickledData: "(dp1
S'com.typemytype.robofont.layerData'
p2
(dp3
S'b'
(dp4
S'name'
p5
S'brokenbar'
p6
sS'lib'
p7
(dp8
sS'unicodes'
p9
(tsS'width'
p10
I404
sS'contours'
p11
(tsS'components'
p12
(tsS'anchors'
p13
(tsss."
LayerCount: 2
Fore
SplineSet
141 -158 m 257
 263 -158 l 257
 263 406 l 257
 141 406 l 257
 141 -158 l 257
141 649 m 257
 263 649 l 257
 263 1213 l 257
 141 1213 l 257
 141 649 l 257
EndSplineSet
EndChar

StartChar: bullet
Encoding: 8226 8226 164
Width: 657
VWidth: 0
Flags: W
PickledData: "(dp1
S'com.typemytype.robofont.layerData'
p2
(dp3
S'b'
(dp4
S'name'
p5
S'bullet'
p6
sS'lib'
p7
(dp8
sS'unicodes'
p9
(tsS'width'
p10
I657
sS'contours'
p11
(tsS'components'
p12
(tsS'anchors'
p13
(tsss."
LayerCount: 2
Fore
SplineSet
328 368 m 256
 436 368 529 455 529 562 c 256
 529 669 436 754 328 754 c 256
 218 754 128 672 128 562 c 256
 128 452 218 368 328 368 c 256
EndSplineSet
EndChar

StartChar: c
Encoding: 99 99 165
Width: 951
VWidth: 0
Flags: W
PickledData: "(dp1
S'com.typemytype.robofont.layerData'
p2
(dp3
S'b'
(dp4
S'name'
p5
S'c'
sS'lib'
p6
(dp7
sS'unicodes'
p8
(tsS'width'
p9
I951
sS'contours'
p10
((dp11
S'points'
p12
((dp13
S'y'
S'-14'
p14
sS'x'
I647
sS'smooth'
p15
I0
s(dp16
S'y'
I33
sS'x'
I758
sg15
I0
s(dp17
S'segmentType'
p18
S'curve'
p19
sS'x'
I868
sg15
I0
sS'y'
I142
s(dp20
g18
S'line'
p21
sS'x'
I845
sg15
I0
sS'y'
I213
s(dp22
S'y'
I105
sS'x'
I763
sg15
I0
s(dp23
S'y'
I51
sS'x'
I637
sg15
I0
s(dp24
g18
S'curve'
p25
sS'x'
I515
sg15
I1
sS'y'
I51
s(dp26
S'y'
I51
sS'x'
I316
sg15
I0
s(dp27
S'y'
I193
sS'x'
I169
sg15
I0
s(dp28
g18
S'curve'
p29
sS'x'
I169
sg15
I1
sS'y'
I406
s(dp30
S'y'
I630
sS'x'
I169
sg15
I0
s(dp31
S'y'
I755
sS'x'
I336
sg15
I0
s(dp32
g18
S'curve'
p33
sS'x'
I515
sg15
I1
sS'y'
I755
s(dp34
S'y'
I755
sS'x'
I705
sg15
I0
s(dp35
S'y'
I657
sS'x'
I768
sg15
I0
s(dp36
g18
S'curve'
p37
sS'x'
I776
sg15
I0
sS'y'
I570
s(dp38
g18
S'line'
p39
sS'x'
I840
sg15
I0
sS'y'
I570
s(dp40
g18
S'line'
p41
sS'x'
I840
sg15
I0
sS'y'
I825
s(dp42
g18
S'line'
p43
sS'x'
I767
sg15
I0
sS'y'
I825
s(dp44
g18
S'line'
p45
sS'x'
I767
sg15
I0
sS'y'
I714
s(dp46
S'y'
I764
sS'x'
I736
sg15
I0
s(dp47
S'y'
I819
sS'x'
I645
sg15
I0
s(dp48
g18
S'curve'
p49
sS'x'
I522
sg15
I1
sS'y'
I819
s(dp50
S'y'
I819
sS'x'
F268.96812951340218
sg15
I0
s(dp51
S'y'
I650
sS'x'
I90
sg15
I0
s(dp52
g18
S'curve'
p53
sS'x'
I90
sg15
I1
sS'y'
I406
s(dp54
S'y'
I145
sS'x'
I90
sg15
I0
s(dp55
S'y'
S'-14'
p56
sS'x'
I286
sg15
I0
s(dp57
g18
S'curve'
p58
sS'x'
I515
sg15
I1
sS'y'
S'-14'
p59
stp60
stp61
sS'components'
p62
(tsS'anchors'
p63
(tsss."
AnchorPoint: "top" 493 805 basechar 0
AnchorPoint: "bot" 507 0 basechar 0
LayerCount: 2
Fore
SplineSet
495 -19 m 256
 656 -19 786 43 861 157 c 257
 772 246 l 257
 711 153 629 103 488 107 c 256
 330 112 232 233 232 400 c 256
 232 569 343 695 491 695 c 256
 626 695 692 629 723 517 c 257
 852 517 l 257
 852 804 l 257
 719 804 l 257
 723 713 l 257
 688 783 574 820 483 820 c 256
 250 820 76 643 76 408 c 256
 76 160 247 -19 495 -19 c 256
EndSplineSet
EndChar

StartChar: caron
Encoding: 711 711 167
Width: 593
VWidth: 0
Flags: W
PickledData: "(dp1
S'com.typemytype.robofont.layerData'
p2
(dp3
S'b'
(dp4
S'name'
p5
S'caron'
p6
sS'lib'
p7
(dp8
sS'unicodes'
p9
(tsS'width'
p10
I593
sS'contours'
p11
(tsS'components'
p12
(tsS'anchors'
p13
(tsss."
AnchorPoint: "top" 296.5 804 mark 0
LayerCount: 2
Fore
SplineSet
200 912 m 257
 396 912 l 257
 555 1171 l 257
 451 1171 l 257
 299 1017 l 257
 145 1171 l 257
 38 1171 l 257
 200 912 l 257
EndSplineSet
EndChar

StartChar: caron.alt
Encoding: 65539 -1 168
Width: 600
VWidth: 0
Flags: W
PickledData: "(dp1
S'com.typemytype.robofont.layerData'
p2
(dp3
S'b'
(dp4
S'name'
p5
S'caron.alt'
p6
sS'lib'
p7
(dp8
sS'unicodes'
p9
(tsS'width'
p10
I600
sS'contours'
p11
(tsS'components'
p12
(tsS'anchors'
p13
(tsss."
AnchorPoint: "caron.alt" 300 804 mark 0
LayerCount: 2
Fore
SplineSet
600 726 m 257
 759 726 828 801 827 963 c 257
 827 1174 l 257
 600 1174 l 257
 600 963 l 257
 721 963 l 257
 721 863 687 831 600 813 c 257
 600 726 l 257
EndSplineSet
EndChar

StartChar: cedilla
Encoding: 184 184 173
Width: 587
VWidth: 0
Flags: W
PickledData: "(dp1
S'com.typemytype.robofont.layerData'
p2
(dp3
S'b'
(dp4
S'name'
p5
S'cedilla'
p6
sS'lib'
p7
(dp8
sS'unicodes'
p9
(tsS'width'
p10
I587
sS'contours'
p11
(tsS'components'
p12
(tsS'anchors'
p13
(tsss."
AnchorPoint: "bot" 293.5 0 mark 0
LayerCount: 2
Fore
SplineSet
230 -391 m 256
 330 -391 380 -331 380 -268 c 256
 380 -212.718 341.371 -154.802 264.112 -133.738 c 256
 258.916 -132.321 253.545 -131.071 248 -130 c 257
 272 6 l 257
 206 6 l 257
 152 -148 l 257
 159.809 -148.913 167.186 -150.155 174.139 -151.69 c 256
 235.739 -165.296 264 -201.955 264 -237 c 256
 264 -276 230 -312 171 -312 c 256
 146 -312 108 -303 75 -287 c 257
 75 -345 l 257
 133 -378 185 -391 230 -391 c 256
EndSplineSet
EndChar

StartChar: cent
Encoding: 162 162 174
Width: 939
VWidth: 0
Flags: W
PickledData: "(dp1
S'com.typemytype.robofont.layerData'
p2
(dp3
S'b'
(dp4
S'name'
p5
S'cent'
p6
sS'lib'
p7
(dp8
sS'unicodes'
p9
(tsS'width'
p10
I939
sS'contours'
p11
(tsS'components'
p12
(tsS'anchors'
p13
(tsss."
LayerCount: 2
Fore
SplineSet
241 -351 m 257
 757 1122 l 257
 701 1141 l 257
 186 -333 l 257
 241 -351 l 257
EndSplineSet
Refer: 165 99 N 1 0 0 1 0 0 2
EndChar

StartChar: circumflex
Encoding: 710 710 175
Width: 593
VWidth: 0
Flags: W
PickledData: "(dp1
S'com.typemytype.robofont.layerData'
p2
(dp3
S'b'
(dp4
S'name'
p5
S'circumflex'
p6
sS'lib'
p7
(dp8
sS'unicodes'
p9
(tsS'width'
p10
I593
sS'contours'
p11
(tsS'components'
p12
(tsS'anchors'
p13
(tsss."
AnchorPoint: "top" 296.5 804 mark 0
LayerCount: 2
Fore
SplineSet
58 896 m 257
 201 896 l 257
 294 1126 l 257
 387 896 l 257
 535 896 l 257
 431 1171 l 257
 156 1171 l 257
 58 896 l 257
EndSplineSet
EndChar

StartChar: colon
Encoding: 58 58 176
Width: 414
VWidth: 0
Flags: W
PickledData: "(dp1
S'com.typemytype.robofont.layerData'
p2
(dp3
S'b'
(dp4
S'name'
p5
S'colon'
p6
sS'lib'
p7
(dp8
sS'unicodes'
p9
(tsS'width'
p10
I414
sS'contours'
p11
(tsS'components'
p12
(tsS'anchors'
p13
(tsss."
LayerCount: 2
Fore
SplineSet
93 0 m 257
 320 0 l 257
 320 211 l 257
 93 211 l 257
 93 0 l 257
93 609 m 257
 320 609 l 257
 320 820 l 257
 93 820 l 257
 93 609 l 257
EndSplineSet
EndChar

StartChar: comma
Encoding: 44 44 177
Width: 414
VWidth: 0
Flags: W
PickledData: "(dp1
S'com.typemytype.robofont.layerData'
p2
(dp3
S'b'
(dp4
S'name'
p5
S'comma'
p6
sS'lib'
p7
(dp8
sS'unicodes'
p9
(tsS'width'
p10
I414
sS'contours'
p11
(tsS'components'
p12
(tsS'anchors'
p13
(tsss."
AnchorPoint: "bot" 207 0 mark 0
LayerCount: 2
Fore
SplineSet
86 -237 m 257
 245 -237 314 -162 313 0 c 257
 313 211 l 257
 86 211 l 257
 86 0 l 257
 207 0 l 257
 207 -100 173 -132 86 -150 c 257
 86 -237 l 257
EndSplineSet
EndChar

StartChar: commaaccent
Encoding: 65540 -1 178
Width: 393
VWidth: 0
Flags: W
PickledData: "(dp1
S'com.typemytype.robofont.layerData'
p2
(dp3
S'b'
(dp4
S'name'
p5
S'commaaccent'
p6
sS'lib'
p7
(dp8
sS'unicodes'
p9
(tsS'width'
p10
F393.012
sS'contours'
p11
(tsS'components'
p12
(tsS'anchors'
p13
(tsss."
AnchorPoint: "caron" 3 -169 mark 0
AnchorPoint: "bot" 196.506 0 mark 0
LayerCount: 2
Fore
SplineSet
86 -511 m 257
 236 -511 308 -436 307 -297 c 257
 307 -108 l 257
 101 -108 l 257
 101 -297 l 257
 207 -297 l 257
 207 -374 173 -428 86 -446 c 257
 86 -511 l 257
EndSplineSet
EndChar

StartChar: commaturnedabovecomb
Encoding: 786 786 179
Width: 600
VWidth: 0
Flags: W
AnchorPoint: "top" 309 804 mark 0
LayerCount: 2
Fore
SplineSet
419 1388 m 257
 269 1388 197 1313 198 1174 c 257
 198 985 l 257
 404 985 l 257
 404 1174 l 257
 298 1174 l 257
 298 1251 332 1305 419 1323 c 257
 419 1388 l 257
EndSplineSet
EndChar

StartChar: copyright
Encoding: 169 169 180
Width: 1336
VWidth: 0
Flags: W
PickledData: "(dp1
S'com.typemytype.robofont.layerData'
p2
(dp3
S'b'
(dp4
S'name'
p5
S'copyright'
p6
sS'lib'
p7
(dp8
sS'unicodes'
p9
(tsS'width'
p10
I1336
sS'contours'
p11
(tsS'components'
p12
(tsS'anchors'
p13
(tsss."
LayerCount: 2
Fore
SplineSet
658 277 m 256
 786 277 874 319 927 404 c 257
 863 469 l 257
 821 402 755 368 666 368 c 256
 542 368 484 457 484 580 c 256
 484 708 542 792 668 792 c 256
 754 792 807 749 827 664 c 257
 921 664 l 257
 921 872 l 257
 825 872 l 257
 827 806 l 257
 804 860 726 882 646 882 c 256
 491 882 369 745 369 586 c 256
 369 411 476 277 658 277 c 256
668 -18 m 256
 1023 -18 1268 233 1268 575 c 256
 1268 917 1024 1171 668 1171 c 256
 312 1171 68 917 68 575 c 256
 68 233 313 -18 668 -18 c 256
666 74 m 256
 376 74 184 294 184 575 c 256
 184 858 375 1077 667 1077 c 256
 960 1077 1149 857 1151 575 c 256
 1149 294 958 74 666 74 c 256
EndSplineSet
EndChar

StartChar: currency
Encoding: 164 164 181
Width: 929
VWidth: 0
Flags: W
PickledData: "(dp1
S'com.typemytype.robofont.layerData'
p2
(dp3
S'b'
(dp4
S'name'
p5
S'currency'
p6
sS'lib'
p7
(dp8
sS'unicodes'
p9
(tsS'width'
p10
I929
sS'contours'
p11
(tsS'components'
p12
(tsS'anchors'
p13
(tsss."
LayerCount: 2
Fore
SplineSet
191 451 m 257
 279 538 l 257
 333 503 395 486 465 486 c 256
 535 486 597 504 650 539 c 257
 740 451 l 257
 809 519 l 257
 724 603 l 257
 773 662 798 730 798 806 c 256
 798 882 774 948 726 1005 c 257
 809 1088 l 257
 740 1157 l 257
 652 1069 l 257
 595 1106 533 1124 464 1124 c 256
 396 1124 334 1106 277 1071 c 257
 191 1157 l 257
 122 1088 l 257
 202 1007 l 257
 153 952 129 886 129 808 c 256
 129 730 154 661 204 601 c 257
 122 519 l 257
 191 451 l 257
465 600 m 256
 349 600 270 689 270 802 c 256
 270 917 344 1006 464 1006 c 256
 589 1006 658 915 658 802 c 256
 658 689 582 600 465 600 c 256
EndSplineSet
EndChar

StartChar: dagger
Encoding: 8224 8224 183
Width: 918
VWidth: 0
Flags: W
PickledData: "(dp1
S'com.typemytype.robofont.layerData'
p2
(dp3
S'b'
(dp4
S'name'
p5
S'dagger'
p6
sS'lib'
p7
(dp8
sS'unicodes'
p9
(tsS'width'
p10
I918
sS'contours'
p11
(tsS'components'
p12
(tsS'anchors'
p13
(tsss."
LayerCount: 2
Fore
SplineSet
427 -111 m 257
 491 -111 l 257
 491 153 510 400 549 633 c 257
 491 805 l 257
 747 762 l 257
 747 893 l 257
 491 854 l 257
 533 1216 l 257
 387 1216 l 257
 427 854 l 257
 171 893 l 257
 171 762 l 257
 427 805 l 257
 372 633 l 257
 408 397 427 150 427 -111 c 257
EndSplineSet
EndChar

StartChar: daggerdbl
Encoding: 8225 8225 184
Width: 918
VWidth: 0
Flags: W
PickledData: "(dp1
S'com.typemytype.robofont.layerData'
p2
(dp3
S'b'
(dp4
S'name'
p5
S'daggerdbl'
p6
sS'lib'
p7
(dp8
sS'unicodes'
p9
(tsS'width'
p10
I918
sS'contours'
p11
(tsS'components'
p12
(tsS'anchors'
p13
(tsss."
LayerCount: 2
Fore
SplineSet
389 -111 m 257
 531 -111 l 257
 490 176 l 257
 739 136 l 257
 739 267 l 257
 490 224 l 257
 558.307 435.02 490 470 479 555 c 257
 490 636 558.372 671.001 490 881 c 257
 739 839 l 257
 739 970 l 257
 490 930 l 257
 531 1216 l 257
 389 1216 l 257
 428 930 l 257
 179 970 l 257
 179 839 l 257
 428 881 l 257
 363.015 674.01 428 642 438 557 c 257
 429 475 361.842 435.951 428 224 c 257
 179 267 l 257
 179 136 l 257
 428 176 l 257
 389 -111 l 257
EndSplineSet
EndChar

StartChar: dblgravecmb
Encoding: 783 783 185
Width: 587
VWidth: 0
Flags: W
PickledData: "(dp1
S'com.typemytype.robofont.layerData'
p2
(dp3
S'b'
(dp4
S'name'
p5
S'uni030F'
p6
sS'lib'
p7
(dp8
sS'unicodes'
p9
(tsS'width'
p10
I587
sS'contours'
p11
(tsS'components'
p12
(tsS'anchors'
p13
(tsss."
AnchorPoint: "top" 349 805 mark 0
LayerCount: 2
Fore
SplineSet
181 899 m 257
 277 899 l 257
 187 1171 l 257
 -3 1171 l 257
 181 899 l 257
443 899 m 257
 538 899 l 257
 448 1171 l 257
 258 1171 l 257
 443 899 l 257
EndSplineSet
EndChar

StartChar: degree
Encoding: 176 176 188
Width: 653
VWidth: 0
Flags: W
PickledData: "(dp1
S'com.typemytype.robofont.layerData'
p2
(dp3
S'b'
(dp4
S'name'
p5
S'degree'
p6
sS'lib'
p7
(dp8
sS'unicodes'
p9
(tsS'width'
p10
I653
sS'contours'
p11
(tsS'components'
p12
(tsS'anchors'
p13
(tsss."
LayerCount: 2
Fore
SplineSet
327 673 m 256
 474 672 585 779 585 922 c 256
 585 1064 474 1171 327 1171 c 256
 179 1171 68 1064 68 922 c 256
 68 780 179 673 327 673 c 256
326 762 m 256
 237 762 170 831 170 923 c 256
 169 1016 237 1085 329 1085 c 256
 417 1085 483 1015 483 921 c 256
 483 830 416 762 326 762 c 256
EndSplineSet
EndChar

StartChar: dieresis
Encoding: 168 168 189
Width: 572
VWidth: 0
Flags: W
PickledData: "(dp1
S'com.typemytype.robofont.layerData'
p2
(dp3
S'b'
(dp4
S'name'
p5
S'dieresis'
p6
sS'lib'
p7
(dp8
sS'unicodes'
p9
(tsS'width'
p10
I572
sS'contours'
p11
(tsS'components'
p12
(tsS'anchors'
p13
(tsss."
AnchorPoint: "top" 286 804 mark 0
LayerCount: 2
Fore
SplineSet
134 948 m 256
 191 948 226 990 225 1036 c 257
 225 1091 183 1123 134 1123 c 256
 85 1123 42 1086 43 1036 c 256
 43 988 86 948 134 948 c 256
437 950 m 256
 494 950 529 992 528 1038 c 257
 528 1093 486 1125 437 1125 c 256
 388 1125 345 1088 346 1038 c 256
 346 990 389 950 437 950 c 256
EndSplineSet
EndChar

StartChar: divide
Encoding: 247 247 190
Width: 1031
VWidth: 0
Flags: W
PickledData: "(dp1
S'com.typemytype.robofont.layerData'
p2
(dp3
S'b'
(dp4
S'name'
p5
S'divide'
p6
sS'lib'
p7
(dp8
sS'unicodes'
p9
(tsS'width'
p10
I1031
sS'contours'
p11
(tsS'components'
p12
(tsS'anchors'
p13
(tsss."
LayerCount: 2
Fore
SplineSet
441 121 m 257
 594 121 l 257
 594 275 l 257
 441 275 l 257
 441 121 l 257
160 475 m 257
 871 475 l 257
 871 593 l 257
 160 593 l 257
 160 475 l 257
441 792 m 257
 594 792 l 257
 594 944 l 257
 441 944 l 257
 441 792 l 257
EndSplineSet
EndChar

StartChar: dollar
Encoding: 36 36 191
Width: 1147
VWidth: 0
Flags: W
PickledData: "(dp1
S'com.typemytype.robofont.layerData'
p2
(dp3
S'b'
(dp4
S'name'
p5
S'dollar'
p6
sS'lib'
p7
(dp8
sS'unicodes'
p9
(tsS'width'
p10
I1147
sS'contours'
p11
(tsS'components'
p12
(tsS'anchors'
p13
(tsss."
LayerCount: 2
Fore
SplineSet
563 -143 m 257
 637 -143 l 257
 637 1305 l 257
 563 1305 l 257
 563 -143 l 257
EndSplineSet
Refer: 94 83 N 1 0 0 1 0 0 2
EndChar

StartChar: dotaccent
Encoding: 729 729 192
Width: 535
VWidth: 0
Flags: W
PickledData: "(dp1
S'com.typemytype.robofont.layerData'
p2
(dp3
S'b'
(dp4
S'name'
p5
S'dotaccent'
p6
sS'lib'
p7
(dp8
sS'unicodes'
p9
(tsS'width'
p10
I535
sS'contours'
p11
(tsS'components'
p12
(tsS'anchors'
p13
(tsss."
AnchorPoint: "top" 270 805 mark 0
LayerCount: 2
Fore
SplineSet
270 970 m 256
 329 970 366 1014 365 1062 c 257
 365 1119 321 1152 270 1152 c 256
 219 1152 174 1114 175 1062 c 256
 175 1012 220 970 270 970 c 256
EndSplineSet
EndChar

StartChar: dotlessi
Encoding: 305 305 194
Width: 588
VWidth: 0
Flags: W
PickledData: "(dp1
S'com.typemytype.robofont.layerData'
p2
(dp3
S'b'
(dp4
S'name'
p5
S'dotlessi'
p6
sS'lib'
p7
(dp8
sS'unicodes'
p9
(tsS'width'
p10
I588
sS'contours'
p11
(tsS'components'
p12
(tsS'anchors'
p13
(tsss."
AnchorPoint: "top" 294 804 basechar 0
LayerCount: 2
Fore
SplineSet
117 0 m 257
 537 0 l 257
 537 113 l 257
 401 113 l 257
 401 804 l 257
 117 804 l 257
 117 689 l 257
 252 689 l 257
 252 113 l 257
 117 113 l 257
 117 0 l 257
EndSplineSet
EndChar

StartChar: dotlessj
Encoding: 567 567 195
Width: 559
VWidth: 0
Flags: W
PickledData: "(dp1
S'com.typemytype.robofont.layerData'
p2
(dp3
S'b'
(dp4
S'name'
p5
S'uni0237'
p6
sS'lib'
p7
(dp8
sS'unicodes'
p9
(tsS'width'
p10
I559
sS'contours'
p11
(tsS'components'
p12
(tsS'anchors'
p13
(tsss."
AnchorPoint: "top" 331 804 basechar 0
LayerCount: 2
Fore
SplineSet
40 -303 m 257
 131 -303 l 258
 352 -303 414 -221 414 19 c 258
 414 805 l 257
 72 805 l 257
 72 689 l 257
 266 689 l 257
 266 -8 l 258
 266 -113 248 -179 147 -179 c 258
 40 -179 l 257
 40 -303 l 257
EndSplineSet
EndChar

StartChar: e
Encoding: 101 101 196
Width: 956
VWidth: 0
Flags: W
PickledData: "(dp1
S'com.typemytype.robofont.layerData'
p2
(dp3
S'b'
(dp4
S'name'
p5
S'e'
sS'lib'
p6
(dp7
sS'unicodes'
p8
(tsS'width'
p9
I956
sS'contours'
p10
((dp11
S'points'
p12
((dp13
S'segmentType'
p14
S'line'
p15
sS'x'
I185
sS'smooth'
p16
I0
sS'y'
I442
s(dp17
S'y'
I592
sS'x'
I196
sg16
I0
s(dp18
S'y'
I755
sS'x'
I310
sg16
I0
s(dp19
g14
S'curve'
p20
sS'x'
I521
sg16
I1
sS'y'
I755
s(dp21
S'y'
I755
sS'x'
I713
sg16
I0
s(dp22
S'y'
I616
sS'x'
I817
sg16
I0
s(dp23
g14
S'curve'
p24
sS'x'
I834
sg16
I0
sS'y'
I442
stp25
s(dp26
g12
((dp27
g14
S'line'
p28
sS'x'
I904
sg16
I0
sS'y'
I383
s(dp29
S'y'
I601
sS'x'
I903
sg16
I0
s(dp30
S'y'
I819
sS'x'
F792.76831688899995
sg16
I0
s(dp31
g14
S'curve'
p32
sS'x'
I516
sg16
I1
sS'y'
I819
s(dp33
S'y'
I819
sS'x'
I246
sg16
I0
s(dp34
S'y'
I618
sS'x'
I104
sg16
I0
s(dp35
g14
S'curve'
p36
sS'x'
I104
sg16
I1
sS'y'
I403
s(dp37
S'y'
I150
sS'x'
I104
sg16
I0
s(dp38
S'y'
S'-14'
p39
sS'x'
I298
sg16
I0
s(dp40
g14
S'curve'
p41
sS'x'
I511
sg16
I1
sS'y'
S'-14'
p42
s(dp43
S'y'
S'-14'
p44
sS'x'
I657
sg16
I0
s(dp45
S'y'
I34
sS'x'
I761
sg16
I0
s(dp46
g14
S'curve'
p47
sS'x'
I868
sg16
I0
sS'y'
I139
s(dp48
g14
S'line'
p49
sS'x'
I836
sg16
I0
sS'y'
I197
s(dp50
S'y'
I103
sS'x'
I747
sg16
I0
s(dp51
S'y'
I50
sS'x'
I652
sg16
I0
s(dp52
g14
S'curve'
p53
sS'x'
I515
sg16
I1
sS'y'
I50
s(dp54
S'y'
I50
sS'x'
I347
sg16
I0
s(dp55
S'y'
I162
sS'x'
I182
sg16
I0
s(dp56
g14
S'curve'
p57
sS'x'
I169
sg16
I0
sS'y'
I383
stp58
stp59
sS'components'
p60
(tsS'anchors'
p61
(tsss."
AnchorPoint: "bot" 478 0 basechar 0
AnchorPoint: "top" 478 804 basechar 0
AnchorPoint: "ogonek" 584 0 basechar 0
LayerCount: 2
Fore
SplineSet
504 -18 m 256
 673 -18 768 34 855 138 c 257
 777 224 l 257
 692 131 612 107 504 107 c 256
 332 108 248 206 237 365 c 257
 881 365 l 257
 881 631 755 820 498 820 c 256
 254 820 74 646 74 402 c 256
 74 151 248 -18 504 -18 c 256
239 467 m 257
 264 612 349 695 502 695 c 256
 648 695 721 599 737 467 c 257
 239 467 l 257
EndSplineSet
EndChar

StartChar: eight
Encoding: 56 56 204
Width: 1048
VWidth: 0
Flags: W
PickledData: "(dp1
S'com.typemytype.robofont.layerData'
p2
(dp3
S'b'
(dp4
S'name'
p5
S'eight'
p6
sS'lib'
p7
(dp8
sS'unicodes'
p9
(tsS'width'
p10
I1048
sS'contours'
p11
(tsS'components'
p12
(tsS'anchors'
p13
(tsss."
LayerCount: 2
Fore
SplineSet
523 -18 m 256
 760 -18 940 99 940 328 c 256
 940 472 843 566 719 599 c 257
 829 642 907 710 907 867 c 256
 907 1067 734 1170 523 1171 c 256
 312 1170 140 1067 140 867 c 256
 140 737 201 648 327 599 c 257
 195 564 107 472 107 315 c 256
 107 96 293 -18 523 -18 c 256
523 116 m 256
 382 116 265 191 265 326 c 256
 265 468 370 533 523 533 c 256
 676 533 781 468 781 326 c 256
 781 191 664 116 523 116 c 256
523 659 m 257
 400 667 288 734 288 858 c 256
 288 981 392 1037 523 1037 c 256
 656 1037 759 979 759 854 c 256
 759 726 648 666 523 659 c 257
EndSplineSet
EndChar

StartChar: ellipsis
Encoding: 8230 8230 205
Width: 1242
VWidth: 0
Flags: W
PickledData: "(dp1
S'com.typemytype.robofont.layerData'
p2
(dp3
S'b'
(dp4
S'name'
p5
S'ellipsis'
p6
sS'lib'
p7
(dp8
sS'unicodes'
p9
(tsS'width'
p10
I1242
sS'contours'
p11
(tsS'components'
p12
(tsS'anchors'
p13
(tsss."
LayerCount: 2
Fore
SplineSet
86 0 m 257
 313 0 l 257
 313 211 l 257
 86 211 l 257
 86 0 l 257
500 0 m 257
 727 0 l 257
 727 211 l 257
 500 211 l 257
 500 0 l 257
914 0 m 257
 1141 0 l 257
 1141 211 l 257
 914 211 l 257
 914 0 l 257
EndSplineSet
EndChar

StartChar: emdash
Encoding: 8212 8212 207
Width: 1648
VWidth: 0
Flags: W
PickledData: "(dp1
S'com.typemytype.robofont.layerData'
p2
(dp3
S'b'
(dp4
S'name'
p5
S'emdash'
p6
sS'lib'
p7
(dp8
sS'unicodes'
p9
(tsS'width'
p10
I1648
sS'contours'
p11
(tsS'components'
p12
(tsS'anchors'
p13
(tsss."
LayerCount: 2
Fore
SplineSet
0 508 m 257
 1648 508 l 257
 1648 625 l 257
 0 625 l 257
 0 508 l 257
EndSplineSet
EndChar

StartChar: emptyset
Encoding: 8709 8709 208
Width: 1390
VWidth: 0
Flags: W
LayerCount: 2
Fore
SplineSet
172 46 m 257
 1362 1053 l 257
 1290 1127 l 257
 100 120 l 257
 172 46 l 257
EndSplineSet
Refer: 75 79 N 1 0 0 1 0 0 2
EndChar

StartChar: endash
Encoding: 8211 8211 209
Width: 874
VWidth: 0
Flags: W
PickledData: "(dp1
S'com.typemytype.robofont.layerData'
p2
(dp3
S'b'
(dp4
S'name'
p5
S'endash'
p6
sS'lib'
p7
(dp8
sS'unicodes'
p9
(tsS'width'
p10
I874
sS'contours'
p11
(tsS'components'
p12
(tsS'anchors'
p13
(tsss."
LayerCount: 2
Fore
SplineSet
0 548 m 257
 874 548 l 257
 874 665 l 257
 0 665 l 257
 0 548 l 257
EndSplineSet
EndChar

StartChar: eng
Encoding: 331 331 210
Width: 1087
VWidth: 0
Flags: W
LayerCount: 2
Fore
SplineSet
340 690 m 257
 340 575 l 257
 437 667 547 700 633 700 c 256
 734 700 757 620 757 513 c 258
 757 -77 l 258
 757 -203 639 -252 502 -252 c 257
 498 -377 l 257
 712 -377 905 -282 905 -53 c 258
 905 116 l 257
 906 568 l 257
 905 725 820 826 661 826 c 256
 582 826 449 792 340 690 c 257
EndSplineSet
Refer: 276 -1 N 1 0 0 1 -49 0 2
EndChar

StartChar: equal
Encoding: 61 61 212
Width: 1145
VWidth: 0
Flags: W
PickledData: "(dp1
S'com.typemytype.robofont.layerData'
p2
(dp3
S'b'
(dp4
S'name'
p5
S'equal'
p6
sS'lib'
p7
(dp8
sS'unicodes'
p9
(tsS'width'
p10
I1145
sS'contours'
p11
(tsS'components'
p12
(tsS'anchors'
p13
(tsss."
LayerCount: 2
Fore
SplineSet
133 280 m 257
 1012 280 l 257
 1012 401 l 257
 133 401 l 257
 133 280 l 257
133 683 m 257
 1012 683 l 257
 1012 804 l 257
 133 804 l 257
 133 683 l 257
EndSplineSet
EndChar

StartChar: estimated
Encoding: 8494 8494 213
Width: 967
VWidth: 0
Flags: W
LayerCount: 2
Fore
SplineSet
526 -18 m 256
 681 -18 782 49 857 138 c 257
 818 176 l 257
 745 97 661 37 526 37 c 256
 354 37 263 180 262 387 c 257
 863 387 l 257
 863 647 752 820 513 820 c 256
 271 820 99 641 99 402 c 256
 99 162 240 -18 526 -18 c 256
264 447 m 257
 275 643 388 775 517 775 c 256
 674 775 779 623 779 447 c 257
 264 447 l 257
EndSplineSet
EndChar

StartChar: eth
Encoding: 240 240 214
Width: 1006
VWidth: 0
Flags: W
PickledData: "(dp1
S'com.typemytype.robofont.layerData'
p2
(dp3
S'b'
(dp4
S'name'
p5
S'eth'
p6
sS'lib'
p7
(dp8
sS'unicodes'
p9
(tsS'width'
p10
I1006
sS'contours'
p11
(tsS'components'
p12
(tsS'anchors'
p13
(tsss."
LayerCount: 2
Fore
SplineSet
499 -22 m 256
 729 -22 895 151 895 381 c 256
 895 682 692 999 203 1346 c 257
 116 1236 l 257
 408 1039 565 887 701 678 c 257
 646 739 556 767 467 767 c 256
 288 767 91 639 91 381 c 256
 91 151 270 -22 499 -22 c 256
499 102 m 256
 355 102 238 221 238 381 c 256
 238 538 341 648 495 648 c 256
 646 648 756 522 756 365 c 256
 756 206 637 102 499 102 c 256
188 870 m 257
 817 1152 l 257
 770 1240 l 257
 143 962 l 257
 188 870 l 257
EndSplineSet
EndChar

StartChar: exclam
Encoding: 33 33 215
Width: 466
VWidth: 0
Flags: W
PickledData: "(dp1
S'com.typemytype.robofont.layerData'
p2
(dp3
S'b'
(dp4
S'name'
p5
S'exclam'
p6
sS'lib'
p7
(dp8
sS'unicodes'
p9
(tsS'width'
p10
I466
sS'contours'
p11
(tsS'components'
p12
(tsS'anchors'
p13
(tsss."
LayerCount: 2
Fore
SplineSet
199 324 m 257
 267 324 l 257
 319 821 l 257
 319 1153 l 257
 147 1153 l 257
 147 821 l 257
 199 324 l 257
127 0 m 257
 339 0 l 257
 339 212 l 257
 127 212 l 257
 127 0 l 257
EndSplineSet
EndChar

StartChar: f
Encoding: 102 102 217
Width: 659
VWidth: 0
Flags: W
PickledData: "(dp1
S'com.typemytype.robofont.layerData'
p2
(dp3
S'b'
(dp4
S'name'
p5
S'f'
sS'lib'
p6
(dp7
sS'unicodes'
p8
(tsS'width'
p9
I659
sS'contours'
p10
(tsS'components'
p11
(tsS'anchors'
p12
(tsss."
AnchorPoint: "top" 310 1084 basechar 0
LayerCount: 2
Fore
SplineSet
83 0 m 257
 534 0 l 257
 534 116 l 257
 372 116 l 257
 372 688 l 257
 535 688 l 257
 535 804 l 257
 372 804 l 257
 372 934 l 258
 372 1013 422 1054 484 1054 c 256
 532 1054 568 1026 585 963 c 257
 695 996 l 257
 672 1117 603 1171 475 1171 c 256
 327 1171 224 1084 224 943 c 258
 224 804 l 257
 95 804 l 257
 95 688 l 257
 224 688 l 257
 224 116 l 257
 83 116 l 257
 83 0 l 257
EndSplineSet
EndChar

StartChar: ff
Encoding: 64256 64256 218
Width: 1208
VWidth: 0
Flags: W
PickledData: "(dp1
S'com.typemytype.robofont.layerData'
p2
(dp3
S'b'
(dp4
S'name'
p5
S'ff'
p6
sS'lib'
p7
(dp8
sS'unicodes'
p9
(tsS'width'
p10
I1208
sS'contours'
p11
(tsS'components'
p12
(tsS'anchors'
p13
(tsss."
LayerCount: 2
Fore
SplineSet
653 0 m 257
 1104 0 l 257
 1104 116 l 257
 942 116 l 257
 942 688 l 257
 1105 688 l 257
 1105 804 l 257
 942 804 l 257
 942 934 l 258
 942 1013 992 1054 1054 1054 c 256
 1102 1054 1138 1026 1155 963 c 257
 1265 996 l 257
 1242 1117 1173 1171 1045 1171 c 256
 897 1171 794 1084 794 943 c 258
 794 804 l 257
 447 804 l 257
 447 688 l 257
 794 688 l 257
 794 116 l 257
 653 116 l 257
 653 0 l 257
EndSplineSet
Refer: 217 102 N 1 0 0 1 0 0 2
EndChar

StartChar: ffi
Encoding: 64259 64259 219
Width: 1716
VWidth: 0
Flags: W
PickledData: "(dp1
S'com.typemytype.robofont.layerData'
p2
(dp3
S'b'
(dp4
S'name'
p5
S'ffi'
p6
sS'lib'
p7
(dp8
sS'unicodes'
p9
(tsS'width'
p10
I1716
sS'contours'
p11
(tsS'components'
p12
(tsS'anchors'
p13
(tsss."
LayerCount: 2
Fore
SplineSet
80 0 m 257
 531 0 l 257
 531 116 l 257
 369 116 l 257
 369 688 l 257
 721 688 l 257
 721 804 l 257
 369 804 l 257
 369 934 l 258
 369 1047.56 450.667 1095.23 558.259 1094.33 c 256
 653.414 1093.54 768.848 1054.77 866 990 c 257
 919 1082 l 257
 820.028 1160.84 681.308 1205.56 553.586 1207.24 c 256
 376.753 1209.57 221 1129.38 221 943 c 258
 221 804 l 257
 92 804 l 257
 92 688 l 257
 221 688 l 257
 221 116 l 257
 80 116 l 257
 80 0 l 257
EndSplineSet
Refer: 221 64257 N 1 0 0 1 567 0 2
EndChar

StartChar: ffl
Encoding: 64260 64260 220
Width: 1773
VWidth: 0
Flags: W
PickledData: "(dp1
S'com.typemytype.robofont.layerData'
p2
(dp3
S'b'
(dp4
S'name'
p5
S'ffl'
p6
sS'lib'
p7
(dp8
sS'unicodes'
p9
(tsS'width'
p10
I1773
sS'contours'
p11
(tsS'components'
p12
(tsS'anchors'
p13
(tsss."
LayerCount: 2
Fore
SplineSet
80 0 m 257
 531 0 l 257
 531 116 l 257
 369 116 l 257
 369 688 l 257
 721 688 l 257
 721 804 l 257
 369 804 l 257
 369 934 l 258
 369 1148 666 1128 873 990 c 257
 926 1082 l 257
 690 1270 221 1264 221 943 c 258
 221 804 l 257
 92 804 l 257
 92 688 l 257
 221 688 l 257
 221 116 l 257
 80 116 l 257
 80 0 l 257
EndSplineSet
Refer: 224 64258 N 1 0 0 1 600 0 2
EndChar

StartChar: fi
Encoding: 64257 64257 221
Width: 1149
VWidth: 0
Flags: W
PickledData: "(dp1
S'com.typemytype.robofont.layerData'
p2
(dp3
S'b'
(dp4
S'name'
p5
S'fi'
p6
sS'lib'
p7
(dp8
sS'unicodes'
p9
(tsS'width'
p10
I1149
sS'contours'
p11
(tsS'components'
p12
(tsS'anchors'
p13
(tsss."
LayerCount: 2
Fore
SplineSet
80 0 m 257
 531 0 l 257
 531 116 l 257
 369 116 l 257
 369 688 l 257
 807 688 l 257
 807 116 l 257
 646 116 l 257
 646 0 l 257
 1098 0 l 257
 1098 116 l 257
 955 116 l 257
 955 804 l 257
 369 804 l 257
 369 909 l 258
 369 1078 484 1142 622 1142 c 256
 698 1142 768 1123 805 1091 c 257
 796 1077 791 1060 791 1041 c 256
 791 988 828 954 886 954 c 256
 938 954 971 988 971 1041 c 256
 971 1168 792 1250 605 1250 c 256
 398 1250 221 1151 221 907 c 258
 221 804 l 257
 92 804 l 257
 92 688 l 257
 221 688 l 257
 221 116 l 257
 80 116 l 257
 80 0 l 257
EndSplineSet
EndChar

StartChar: five
Encoding: 53 53 222
Width: 1048
VWidth: 0
Flags: W
PickledData: "(dp1
S'com.typemytype.robofont.layerData'
p2
(dp3
S'b'
(dp4
S'name'
p5
S'five'
p6
sS'lib'
p7
(dp8
sS'unicodes'
p9
(tsS'width'
p10
I1048
sS'contours'
p11
(tsS'components'
p12
(tsS'anchors'
p13
(tsss."
LayerCount: 2
Fore
SplineSet
544 -23 m 256
 750 -23 946 105 946 362 c 256
 946 598 784 743 587 743 c 256
 501 743 408 715 319 656 c 257
 335 1036 l 257
 752 1036 l 257
 752 864 l 257
 869 864 l 257
 869 1152 l 257
 212 1152 l 257
 188 549 l 257
 278 506 l 257
 380 586 481 623 567 623 c 256
 704 623 802 526 802 359 c 256
 802 179 682 91 548 91 c 256
 432 91 306 156 235 286 c 257
 147 189 l 257
 233 48 391 -23 544 -23 c 256
EndSplineSet
EndChar

StartChar: fj
Encoding: 0 0 223
Width: 1151
VWidth: 0
Flags: W
PickledData: "(dp1
S'com.typemytype.robofont.layerData'
p2
(dp3
S'b'
(dp4
S'name'
p5
S'fj'
p6
sS'lib'
p7
(dp8
sS'unicodes'
p9
(tsS'width'
p10
I1151
sS'contours'
p11
(tsS'components'
p12
(tsS'anchors'
p13
(tsss."
LayerCount: 2
Fore
SplineSet
632 -303 m 257
 723 -303 l 258
 944 -303 1006 -221 1006 19 c 258
 1006 804 l 257
 501 804 l 257
 501 688 l 257
 858 688 l 257
 858 -8 l 258
 858 -113 840 -179 739 -179 c 258
 632 -179 l 257
 632 -303 l 257
927 979 m 256
 978 979 1019 1016 1019 1066 c 256
 1019 1116 978 1153 927 1153 c 256
 876 1153 835 1116 835 1066 c 256
 835 1016 876 979 927 979 c 256
EndSplineSet
Refer: 217 102 N 1 0 0 1 0 0 2
EndChar

StartChar: fl
Encoding: 64258 64258 224
Width: 1173
VWidth: 0
Flags: W
PickledData: "(dp1
S'com.typemytype.robofont.layerData'
p2
(dp3
S'b'
(dp4
S'name'
p5
S'fl'
p6
sS'lib'
p7
(dp8
sS'unicodes'
p9
(tsS'width'
p10
I1173
sS'contours'
p11
(tsS'components'
p12
(tsS'anchors'
p13
(tsss."
LayerCount: 2
Fore
SplineSet
80 0 m 257
 531 0 l 257
 531 116 l 257
 369 116 l 257
 369 688 l 257
 532 688 l 257
 532 804 l 257
 369 804 l 257
 369 912 l 258
 369 1066 528 1115 658 1115 c 256
 749 1115 827 1091 827 1063 c 258
 827 116 l 257
 675 116 l 257
 675 0 l 257
 1121 0 l 257
 1121 116 l 257
 975 116 l 257
 975 1082 l 258
 975 1175 818 1236 648 1236 c 256
 444 1236 221 1148 221 921 c 258
 221 804 l 257
 92 804 l 257
 92 688 l 257
 221 688 l 257
 221 116 l 257
 80 116 l 257
 80 0 l 257
EndSplineSet
EndChar

StartChar: florin
Encoding: 402 402 225
Width: 916
VWidth: 0
Flags: W
PickledData: "(dp1
S'com.typemytype.robofont.layerData'
p2
(dp3
S'b'
(dp4
S'name'
p5
S'florin'
p6
sS'lib'
p7
(dp8
sS'unicodes'
p9
(tsS'width'
p10
I916
sS'contours'
p11
(tsS'components'
p12
(tsS'anchors'
p13
(tsss."
LayerCount: 2
Fore
SplineSet
-54 -245 m 257
 143.625 -302.375 345.256 -166.209 401 122 c 258
 514 698 l 257
 727 698 l 257
 744 782 l 257
 532 782 l 257
 565 954 l 258
 585 1054 607 1152 705 1152 c 256
 757 1152 783 1102 783 1001 c 257
 916 1001 l 257
 916 1187 814 1234 698 1234 c 256
 517 1234 433 1104 400 941 c 258
 369 782 l 257
 207 782 l 257
 190 698 l 257
 355 698 l 257
 241 123 l 258
 206.882 -48.7647 230.667 -214.333 -36 -161 c 257
 -54 -245 l 257
EndSplineSet
EndChar

StartChar: foundryicon
Encoding: 65545 -1 226
Width: 1347
VWidth: 0
Flags: W
PickledData: "(dp1
S'com.typemytype.robofont.layerData'
p2
(dp3
S'b'
(dp4
S'name'
p5
S'foundryicon'
p6
sS'lib'
p7
(dp8
sS'unicodes'
p9
(tsS'width'
p10
I1347
sS'contours'
p11
(tsS'components'
p12
(tsS'anchors'
p13
(tsss."
LayerCount: 2
Fore
SplineSet
485 405 m 257
 485 672 l 257
 591 672 l 257
 761 523 l 257
 761 672 l 257
 867 672 l 257
 867 405 l 257
 761 405 l 257
 591 552 l 257
 591 405 l 257
 485 405 l 257
280 2 m 257
 669 278 l 257
 1066 2 l 257
 922 461 l 257
 1313 755 l 257
 828 755 l 257
 669 1215 l 257
 519 755 l 257
 34 755 l 257
 423 461 l 257
 280 2 l 257
EndSplineSet
EndChar

StartChar: four
Encoding: 52 52 227
Width: 1048
VWidth: 0
Flags: W
PickledData: "(dp1
S'com.typemytype.robofont.layerData'
p2
(dp3
S'b'
(dp4
S'name'
p5
S'four'
p6
sS'lib'
p7
(dp8
sS'unicodes'
p9
(tsS'width'
p10
I1048
sS'contours'
p11
(tsS'components'
p12
(tsS'anchors'
p13
(tsss."
LayerCount: 2
Fore
SplineSet
433 0 m 257
 921 0 l 257
 921 116 l 257
 760 116 l 257
 760 315 l 257
 950 315 l 257
 950 436 l 257
 760 436 l 257
 760 1152 l 257
 622 1152 l 257
 95 426 l 257
 112 315 l 257
 618 315 l 257
 618 116 l 257
 433 116 l 257
 433 0 l 257
256 436 m 257
 618 946 l 257
 618 436 l 257
 256 436 l 257
EndSplineSet
EndChar

StartChar: foursuperior
Encoding: 8308 8308 228
Width: 900
VWidth: 0
Flags: W
PickledData: "(dp1
S'com.typemytype.robofont.layerData'
p2
(dp3
S'b'
(dp4
S'name'
p5
S'uni2074'
p6
sS'lib'
p7
(dp8
sS'unicodes'
p9
(tsS'width'
p10
I900
sS'contours'
p11
(tsS'components'
p12
(tsS'anchors'
p13
(tsss."
LayerCount: 2
Fore
SplineSet
373 456 m 257
 730 456 l 257
 730 563 l 257
 635 563 l 257
 635 698 l 257
 759 698 l 257
 759 801 l 257
 635 801 l 257
 635 1321 l 257
 480 1321 l 257
 135 819 l 257
 135 698 l 257
 491 698 l 257
 491 563 l 257
 373 563 l 257
 373 456 l 257
258 801 m 257
 491 1145 l 257
 491 801 l 257
 258 801 l 257
EndSplineSet
EndChar

StartChar: fraction
Encoding: 8260 8260 229
Width: 793
VWidth: 0
Flags: W
PickledData: "(dp1
S'com.typemytype.robofont.layerData'
p2
(dp3
S'b'
(dp4
S'name'
p5
S'fraction'
p6
sS'lib'
p7
(dp8
sS'unicodes'
p9
(tsS'width'
p10
I793
sS'contours'
p11
(tsS'components'
p12
(tsS'anchors'
p13
(tsss."
LayerCount: 2
Fore
SplineSet
129 -18 m 257
 258 -18 l 257
 692 1171 l 257
 563 1171 l 257
 129 -18 l 257
EndSplineSet
EndChar

StartChar: g
Encoding: 103 103 230
Width: 1050
VWidth: 0
Flags: W
PickledData: "(dp1
S'com.typemytype.robofont.layerData'
p2
(dp3
S'b'
(dp4
S'name'
p5
S'g'
sS'lib'
p6
(dp7
sS'unicodes'
p8
(tsS'width'
p9
I1050
sS'contours'
p10
((dp11
S'points'
p12
((dp13
S'segmentType'
p14
S'curve'
p15
sS'x'
I510
sS'smooth'
p16
I1
sS'y'
S'-333'
p17
s(dp18
S'y'
S'-333'
p19
sS'x'
I722
sg16
I0
s(dp20
S'y'
S'-225'
p21
sS'x'
I880
sg16
I0
s(dp22
g14
S'curve'
p23
sS'x'
I880
sg16
I0
sS'y'
I15
s(dp24
g14
S'line'
p25
sS'x'
I880
sg16
I0
sS'y'
I735
s(dp26
g14
S'line'
p27
sS'x'
I1005
sg16
I0
sS'y'
I735
s(dp28
g14
S'line'
p29
sS'x'
I1005
sg16
I0
sS'y'
I789
s(dp30
g14
S'line'
p31
sS'x'
I804
sg16
I0
sS'y'
I789
s(dp32
g14
S'line'
p33
sS'x'
I804
sg16
I0
sS'y'
I673
s(dp34
S'y'
I673
sS'x'
I804
sg16
I0
s(dp35
S'y'
S'-2'
p36
sS'x'
I804
sg16
I0
s(dp37
g14
S'curve'
p38
sS'x'
I804
sg16
I1
sS'y'
S'-2'
p39
s(dp40
S'y'
S'-173'
p41
sS'x'
I804
sg16
I0
s(dp42
S'y'
S'-271'
p43
sS'x'
I695
sg16
I0
s(dp44
g14
S'curve'
p45
sS'x'
I515
sg16
I1
sS'y'
S'-271'
p46
s(dp47
S'y'
S'-271'
p48
sS'x'
I444
sg16
I0
s(dp49
S'y'
S'-255'
p50
sS'x'
I362
sg16
I0
s(dp51
g14
S'curve'
p52
sS'x'
I272
sg16
I0
sS'y'
S'-224'
p53
s(dp54
g14
S'line'
p55
sS'x'
I257
sg16
I0
sS'y'
S'-289'
p56
s(dp57
S'y'
S'-318'
p58
sS'x'
I345
sg16
I0
s(dp59
S'y'
S'-333'
p60
sS'x'
I431
sg16
I0
stp61
stp62
sS'components'
p63
(tsS'anchors'
p64
(tsss."
AnchorPoint: "bot" 525 0 basechar 0
AnchorPoint: "top" 523 805 basechar 0
LayerCount: 2
Fore
SplineSet
483 -377 m 256
 697 -377 878 -282 878 -53 c 258
 878 688 l 257
 1005 688 l 257
 1005 804 l 257
 730 804 l 257
 730 -77 l 258
 730 -203 612 -252 475 -252 c 256
 392 -252 302 -234 227 -205 c 257
 193 -325 l 257
 288 -359 389 -377 483 -377 c 256
EndSplineSet
Refer: 272 -1 N 1 0 0 0.98 -48 15 2
EndChar

StartChar: germandbls
Encoding: 223 223 236
Width: 1114
VWidth: 0
Flags: W
PickledData: "(dp1
S'com.typemytype.robofont.layerData'
p2
(dp3
S'b'
(dp4
S'name'
p5
S'germandbls'
p6
sS'lib'
p7
(dp8
sS'unicodes'
p9
(tsS'width'
p10
I1114
sS'contours'
p11
(tsS'components'
p12
(tsS'anchors'
p13
(tsss."
LayerCount: 2
Fore
SplineSet
72 0 m 257
 493 0 l 257
 493 116 l 257
 362 116 l 257
 362 790 l 258
 362 953 452 1055 596 1055 c 256
 710 1055 782 985 782 874 c 256
 782 752 701 675 573 675 c 257
 573 569 l 257
 768 571 890 485 889 346 c 256
 889 205 783 116 613 116 c 257
 613 0 l 257
 812 0 966 80 1012 208 c 256
 1093 434 991 601 748 641 c 257
 857 675 925 771 925 889 c 256
 924 1062 793 1171 585 1171 c 256
 362 1171 222 1022 222 786 c 258
 222 116 l 257
 72 116 l 257
 72 0 l 257
EndSplineSet
EndChar

StartChar: grave
Encoding: 96 96 237
Width: 562
VWidth: 0
Flags: W
PickledData: "(dp1
S'com.typemytype.robofont.layerData'
p2
(dp3
S'b'
(dp4
S'name'
p5
S'grave'
p6
sS'lib'
p7
(dp8
sS'unicodes'
p9
(tsS'width'
p10
I562
sS'contours'
p11
(tsS'components'
p12
(tsS'anchors'
p13
(tsss."
AnchorPoint: "top" 281 804 mark 0
LayerCount: 2
Fore
SplineSet
292 914 m 257
 411 914 l 257
 312 1171 l 257
 105 1171 l 257
 292 914 l 257
EndSplineSet
EndChar

StartChar: greater
Encoding: 62 62 238
Width: 1145
VWidth: 0
Flags: W
PickledData: "(dp1
S'com.typemytype.robofont.layerData'
p2
(dp3
S'b'
(dp4
S'name'
p5
S'greater'
p6
sS'lib'
p7
(dp8
sS'unicodes'
p9
(tsS'width'
p10
I1145
sS'contours'
p11
(tsS'components'
p12
(tsS'anchors'
p13
(tsss."
LayerCount: 2
Fore
SplineSet
153 165 m 257
 1032 536 l 257
 1032 608 l 257
 153 981 l 257
 153 844 l 257
 841 571 l 257
 153 302 l 257
 153 165 l 257
EndSplineSet
EndChar

StartChar: greaterequal
Encoding: 8805 8805 239
Width: 1145
VWidth: 0
Flags: W
PickledData: "(dp1
S'com.typemytype.robofont.layerData'
p2
(dp3
S'b'
(dp4
S'name'
p5
S'greaterequal'
p6
sS'lib'
p7
(dp8
sS'unicodes'
p9
(tsS'width'
p10
I1145
sS'contours'
p11
(tsS'components'
p12
(tsS'anchors'
p13
(tsss."
LayerCount: 2
Fore
SplineSet
133 285 m 257
 1012 656 l 257
 1012 728 l 257
 133 1101 l 257
 133 964 l 257
 821 691 l 257
 133 422 l 257
 133 285 l 257
133 0 m 257
 1012 0 l 257
 1012 121 l 257
 133 121 l 257
 133 0 l 257
EndSplineSet
EndChar

StartChar: guillemotleft
Encoding: 171 171 240
Width: 1032
VWidth: 0
Flags: W
PickledData: "(dp1
S'com.typemytype.robofont.layerData'
p2
(dp3
S'b'
(dp4
S'name'
p5
S'guillemotleft'
p6
sS'lib'
p7
(dp8
sS'unicodes'
p9
(tsS'width'
p10
I1032
sS'contours'
p11
(tsS'components'
p12
(tsS'anchors'
p13
(tsss."
LayerCount: 2
Fore
SplineSet
446 164 m 257
 549 164 l 257
 342 553 l 257
 549 942 l 257
 446 942 l 257
 133 554 l 257
 446 164 l 257
796 164 m 257
 899 164 l 257
 692 553 l 257
 899 942 l 257
 796 942 l 257
 483 554 l 257
 796 164 l 257
EndSplineSet
EndChar

StartChar: guillemotright
Encoding: 187 187 241
Width: 1032
VWidth: 0
Flags: W
PickledData: "(dp1
S'com.typemytype.robofont.layerData'
p2
(dp3
S'b'
(dp4
S'name'
p5
S'guillemotright'
p6
sS'lib'
p7
(dp8
sS'unicodes'
p9
(tsS'width'
p10
I1032
sS'contours'
p11
(tsS'components'
p12
(tsS'anchors'
p13
(tsss."
LayerCount: 2
Fore
SplineSet
133 164 m 257
 236 164 l 257
 549 553 l 257
 236 942 l 257
 133 942 l 257
 340 553 l 257
 133 164 l 257
483 164 m 257
 586 164 l 257
 899 553 l 257
 586 942 l 257
 483 942 l 257
 690 553 l 257
 483 164 l 257
EndSplineSet
EndChar

StartChar: guilsinglleft
Encoding: 8249 8249 242
Width: 682
VWidth: 0
Flags: W
PickledData: "(dp1
S'com.typemytype.robofont.layerData'
p2
(dp3
S'b'
(dp4
S'name'
p5
S'guilsinglleft'
p6
sS'lib'
p7
(dp8
sS'unicodes'
p9
(tsS'width'
p10
I682
sS'contours'
p11
(tsS'components'
p12
(tsS'anchors'
p13
(tsss."
LayerCount: 2
Fore
SplineSet
446 164 m 257
 549 164 l 257
 342 553 l 257
 549 942 l 257
 446 942 l 257
 133 553 l 257
 446 164 l 257
EndSplineSet
EndChar

StartChar: guilsinglright
Encoding: 8250 8250 243
Width: 682
VWidth: 0
Flags: W
PickledData: "(dp1
S'com.typemytype.robofont.layerData'
p2
(dp3
S'b'
(dp4
S'name'
p5
S'guilsinglright'
p6
sS'lib'
p7
(dp8
sS'unicodes'
p9
(tsS'width'
p10
I682
sS'contours'
p11
(tsS'components'
p12
(tsS'anchors'
p13
(tsss."
LayerCount: 2
Fore
SplineSet
135 164 m 257
 238 164 l 257
 551 554 l 257
 238 942 l 257
 135 942 l 257
 342 553 l 257
 135 164 l 257
EndSplineSet
EndChar

StartChar: hungarumlaut
Encoding: 733 733 247
Width: 587
VWidth: 0
Flags: W
PickledData: "(dp1
S'com.typemytype.robofont.layerData'
p2
(dp3
S'b'
(dp4
S'name'
p5
S'hungarumlaut'
p6
sS'lib'
p7
(dp8
sS'unicodes'
p9
(tsS'width'
p10
I587
sS'contours'
p11
(tsS'components'
p12
(tsS'anchors'
p13
(tsss."
AnchorPoint: "top" 293.5 804 mark 0
LayerCount: 2
Fore
SplineSet
25 899 m 257
 121 899 l 257
 306 1171 l 257
 116 1171 l 257
 25 899 l 257
287 899 m 257
 382 899 l 257
 567 1171 l 257
 377 1171 l 257
 287 899 l 257
EndSplineSet
EndChar

StartChar: hyphen
Encoding: 45 45 248
Width: 719
VWidth: 0
Flags: W
PickledData: "(dp1
S'com.typemytype.robofont.layerData'
p2
(dp3
S'b'
(dp4
S'name'
p5
S'hyphen'
p6
sS'lib'
p7
(dp8
sS'unicodes'
p9
(tsS'width'
p10
I719
sS'contours'
p11
(tsS'components'
p12
(tsS'anchors'
p13
(tsss."
AnchorPoint: "mid" 361 590 mark 0
LayerCount: 2
Fore
SplineSet
91 534 m 257
 638 534 l 257
 638 649 l 257
 91 649 l 257
 91 534 l 257
EndSplineSet
EndChar

StartChar: infinity
Encoding: 8734 8734 258
Width: 1448
VWidth: 0
Flags: W
PickledData: "(dp1
S'com.typemytype.robofont.layerData'
p2
(dp3
S'b'
(dp4
S'name'
p5
S'infinity'
p6
sS'lib'
p7
(dp8
sS'unicodes'
p9
(tsS'width'
p10
I1448
sS'contours'
p11
(tsS'components'
p12
(tsS'anchors'
p13
(tsss."
LayerCount: 2
Fore
SplineSet
393 207 m 256
 520 207 626 288 711 451 c 257
 804 284 920 201 1059 201 c 256
 1258 201 1376 391 1376 598 c 256
 1376 806 1260 983 1061 983 c 256
 929 983 821 904 737 745 c 257
 651 908 536 989 393 989 c 256
 189 990 72 804 72 592 c 256
 72 380 190 207 393 207 c 256
400 330 m 256
 236.888 330 186 434.374 186 596 c 256
 186 730 255 866 382 866 c 256
 498 866 577 776 651 598 c 257
 572 419 488 330 400 330 c 256
1066 324 m 256
 948 324 873 414 797 592 c 257
 879 772 954 860 1066 860 c 256
 1191 860 1264 727 1264 594 c 256
 1264 456 1196 324 1066 324 c 256
EndSplineSet
EndChar

StartChar: integral
Encoding: 8747 8747 259
Width: 916
VWidth: 0
Flags: W
PickledData: "(dp1
S'com.typemytype.robofont.layerData'
p2
(dp3
S'b'
(dp4
S'name'
p5
S'florin'
p6
sS'lib'
p7
(dp8
sS'unicodes'
p9
(tsS'width'
p10
I916
sS'contours'
p11
(tsS'components'
p12
(tsS'anchors'
p13
(tsss."
LayerCount: 2
Fore
SplineSet
-54 -245 m 257
 142 -303.8 340 -186 401 122 c 258
 565 954 l 258
 584 1049 614 1151 723 1151 c 256
 753 1151 790 1143 834 1125 c 257
 860 1201 l 257
 806 1226 756 1237 709 1237 c 256
 547 1237 431 1103 400 941 c 258
 241 123 l 258
 197 -104 164 -206 -36 -161 c 257
 -54 -245 l 257
EndSplineSet
EndChar

StartChar: k
Encoding: 107 107 264
Width: 1075
VWidth: 0
Flags: W
PickledData: "(dp1
S'com.typemytype.robofont.guides'
p2
((dp3
S'y'
I421
sS'x'
I474
sS'magnetic'
p4
I5
sS'angle'
p5
I0
sS'isGlobal'
p6
I0
stp7
sS'com.typemytype.robofont.layerData'
p8
(dp9
S'b'
(dp10
S'name'
p11
S'k'
sS'lib'
p12
(dp13
sS'unicodes'
p14
(tsS'width'
p15
I1075
sS'contours'
p16
(tsS'components'
p17
(tsS'anchors'
p18
(tsss."
AnchorPoint: "top" 670 911 basechar 0
AnchorPoint: "bot" 561 0 basechar 0
LayerCount: 2
Fore
SplineSet
780 0 m 257
 1029 0 l 257
 1029 116 l 257
 840 116 l 257
 534 414 l 257
 869 688 l 257
 1008 688 l 257
 1008 804 l 257
 561 804 l 257
 561 688 l 257
 693 688 l 257
 355 417 l 257
 780 0 l 257
EndSplineSet
Refer: 269 -1 N 1 0 0 1 -6 0 2
EndChar

StartChar: kgreenlandic
Encoding: 312 312 266
Width: 1059
VWidth: 0
Flags: W
PickledData: "(dp1
S'com.typemytype.robofont.layerData'
p2
(dp3
S'b'
(dp4
S'name'
p5
S'kgreenlandic'
p6
sS'lib'
p7
(dp8
sS'unicodes'
p9
(tsS'width'
p10
I1059
sS'contours'
p11
(tsS'components'
p12
(tsS'anchors'
p13
(tsss."
LayerCount: 2
Fore
SplineSet
61 0 m 257
 467 0 l 257
 467 116 l 257
 362 116 l 257
 362 395 l 257
 692 116 l 257
 586 116 l 257
 586 0 l 257
 1007 0 l 257
 1007 116 l 257
 877 116 l 257
 535 405 l 257
 867 688 l 257
 999 688 l 257
 999 804 l 257
 552 804 l 257
 552 688 l 257
 691 688 l 257
 362 420 l 257
 362 804 l 257
 61 804 l 257
 61 688 l 257
 214 688 l 257
 214 116 l 257
 61 116 l 257
 61 0 l 257
EndSplineSet
EndChar

StartChar: lc_ascender_stem
Encoding: 65547 -1 269
Width: 1120
VWidth: 0
Flags: W
PickledData: "(dp1
S'com.schriftgestaltung.Glyphs.Export'
p2
I00
sS'com.typemytype.robofont.layerData'
p3
(dp4
S'b'
(dp5
S'name'
p6
S'lc_descender_stem'
p7
sS'lib'
p8
(dp9
sS'unicodes'
p10
(tsS'width'
p11
I1120
sS'contours'
p12
(tsS'components'
p13
(tsS'anchors'
p14
(tsss."
LayerCount: 2
Fore
SplineSet
74 0 m 257
 520 0 l 257
 520 116 l 257
 374 116 l 257
 374 1174 l 257
 76 1174 l 257
 76 1058 l 257
 226 1058 l 257
 226 116 l 257
 74 116 l 257
 74 0 l 257
EndSplineSet
EndChar

StartChar: lc_ascender_stem_1
Encoding: 65548 -1 270
Width: 600
VWidth: 0
Flags: W
PickledData: "(dp1
S'com.schriftgestaltung.Glyphs.Export'
p2
I00
sS'com.typemytype.robofont.layerData'
p3
(dp4
S'b'
(dp5
S'name'
p6
S'lc_ascender_stem_1'
p7
sS'lib'
p8
(dp9
sS'unicodes'
p10
(tsS'width'
p11
I600
sS'contours'
p12
(tsS'components'
p13
(tsS'anchors'
p14
(tsss."
LayerCount: 2
Fore
SplineSet
74 0 m 257
 374 0 l 257
 374 1174 l 257
 76 1174 l 257
 76 1058 l 257
 226 1058 l 257
 226 116 l 257
 74 116 l 257
 74 0 l 257
EndSplineSet
EndChar

StartChar: lc_ascender_stem_2
Encoding: 65549 -1 271
Width: 600
VWidth: 0
Flags: W
PickledData: "(dp1
S'com.schriftgestaltung.Glyphs.Export'
p2
I00
sS'com.typemytype.robofont.layerData'
p3
(dp4
S'b'
(dp5
S'name'
p6
S'lc_descender_stem'
p7
sS'lib'
p8
(dp9
sS'unicodes'
p10
(tsS'width'
p11
I600
sS'contours'
p12
(tsS'components'
p13
(tsS'anchors'
p14
(tsss."
LayerCount: 2
Fore
SplineSet
226 0 m 257
 520 0 l 257
 520 116 l 257
 374 116 l 257
 374 1174 l 257
 76 1174 l 257
 76 1058 l 257
 226 1058 l 257
 226 0 l 257
EndSplineSet
EndChar

StartChar: lc_bowl_left
Encoding: 65550 -1 272
Width: 1098
VWidth: 0
Flags: W
PickledData: "(dp1
S'com.schriftgestaltung.Glyphs.Export'
p2
I00
sS'com.typemytype.robofont.layerData'
p3
(dp4
S'b'
(dp5
S'name'
p6
S'lc_bowl_left'
p7
sS'lib'
p8
(dp9
sS'unicodes'
p10
(tsS'width'
p11
I1098
sS'contours'
p12
((dp13
S'points'
p14
((dp15
S'segmentType'
p16
S'line'
p17
sS'x'
I134
sS'smooth'
p18
I0
sS'y'
I121
s(dp19
S'y'
I36
sS'x'
I206
sg18
I0
s(dp20
S'y'
S'-16'
p21
sS'x'
I320
sg18
I0
s(dp22
g16
S'curve'
p23
sS'x'
I464
sg18
I1
sS'y'
S'-16'
p24
s(dp25
S'y'
S'-16'
p26
sS'x'
I739
sg18
I0
s(dp27
S'y'
I185
sS'x'
I886
sg18
I0
s(dp28
g16
S'curve'
p29
sS'x'
I886
sg18
I1
sS'y'
I387
s(dp30
S'y'
I573
sS'x'
I886
sg18
I0
s(dp31
S'y'
I817
sS'x'
I774
sg18
I0
s(dp32
g16
S'curve'
p33
sS'x'
I467
sg18
I1
sS'y'
I817
s(dp34
S'y'
I817
sS'x'
I309
sg18
I0
s(dp35
S'y'
I733
sS'x'
I179
sg18
I0
s(dp36
g16
S'curve'
p37
sS'x'
I134
sg18
I0
sS'y'
I684
s(dp38
g16
S'line'
p39
sS'x'
I134
sg18
I0
sS'y'
I618
s(dp40
S'y'
I725
sS'x'
I273
sg18
I0
s(dp41
S'y'
I753
sS'x'
I353
sg18
I0
s(dp42
g16
S'curve'
p43
sS'x'
I470
sg18
I1
sS'y'
I753
s(dp44
S'y'
I753
sS'x'
I701
sg18
I0
s(dp45
S'y'
I568
sS'x'
I810
sg18
I0
s(dp46
g16
S'curve'
p47
sS'x'
I810
sg18
I1
sS'y'
I395
s(dp48
S'y'
I204
sS'x'
I810
sg18
I0
s(dp49
S'y'
I48
sS'x'
I680
sg18
I0
s(dp50
g16
S'curve'
p51
sS'x'
I468
sg18
I1
sS'y'
I48
s(dp52
S'y'
I48
sS'x'
I346
sg18
I0
s(dp53
S'y'
I62
sS'x'
I263
sg18
I0
s(dp54
g16
S'curve'
p55
sS'x'
I134
sg18
I0
sS'y'
I194
stp56
stp57
sS'components'
p58
(tsS'anchors'
p59
(tsss."
LayerCount: 2
Fore
SplineSet
534 -22 m 256
 650 -22 770 15 863 109 c 257
 863 231 l 257
 768 135 652 102 548 102 c 256
 404 102 284 193 284 400 c 256
 284 610 402 702 549 702 c 256
 649 702 764 661 863 576 c 257
 863 691 l 257
 762 781 642 826 528 826 c 256
 318 826 130 676 130 400 c 256
 130 128 325 -22 534 -22 c 256
EndSplineSet
EndChar

StartChar: lc_bowl_right
Encoding: 65551 -1 273
Width: 1098
VWidth: 0
Flags: W
PickledData: "(dp1
S'com.schriftgestaltung.Glyphs.Export'
p2
I00
sS'com.typemytype.robofont.layerData'
p3
(dp4
S'b'
(dp5
S'name'
p6
S'lc_bowl_right'
p7
sS'lib'
p8
(dp9
sS'unicodes'
p10
(tsS'width'
p11
I1098
sS'contours'
p12
((dp13
S'points'
p14
((dp15
S'segmentType'
p16
S'line'
p17
sS'x'
I268
sS'smooth'
p18
I0
sS'y'
I121
s(dp19
S'y'
I36
sS'x'
I340
sg18
I0
s(dp20
S'y'
S'-16'
p21
sS'x'
I454
sg18
I0
s(dp22
g16
S'curve'
p23
sS'x'
I598
sg18
I1
sS'y'
S'-16'
p24
s(dp25
S'y'
S'-16'
p26
sS'x'
I873
sg18
I0
s(dp27
S'y'
I185
sS'x'
I1020
sg18
I0
s(dp28
g16
S'curve'
p29
sS'x'
I1020
sg18
I1
sS'y'
I387
s(dp30
S'y'
I573
sS'x'
I1020
sg18
I0
s(dp31
S'y'
I817
sS'x'
I908
sg18
I0
s(dp32
g16
S'curve'
p33
sS'x'
I601
sg18
I1
sS'y'
I817
s(dp34
S'y'
I817
sS'x'
I443
sg18
I0
s(dp35
S'y'
I733
sS'x'
I313
sg18
I0
s(dp36
g16
S'curve'
p37
sS'x'
I268
sg18
I0
sS'y'
I684
s(dp38
g16
S'line'
p39
sS'x'
I268
sg18
I0
sS'y'
I618
s(dp40
S'y'
I725
sS'x'
I407
sg18
I0
s(dp41
S'y'
I753
sS'x'
I487
sg18
I0
s(dp42
g16
S'curve'
p43
sS'x'
I604
sg18
I1
sS'y'
I753
s(dp44
S'y'
I753
sS'x'
I835
sg18
I0
s(dp45
S'y'
I568
sS'x'
I944
sg18
I0
s(dp46
g16
S'curve'
p47
sS'x'
I944
sg18
I1
sS'y'
I395
s(dp48
S'y'
I204
sS'x'
I944
sg18
I0
s(dp49
S'y'
I48
sS'x'
I814
sg18
I0
s(dp50
g16
S'curve'
p51
sS'x'
I602
sg18
I1
sS'y'
I48
s(dp52
S'y'
I48
sS'x'
I480
sg18
I0
s(dp53
S'y'
I62
sS'x'
I397
sg18
I0
s(dp54
g16
S'curve'
p55
sS'x'
I268
sg18
I0
sS'y'
I194
stp56
stp57
sS'components'
p58
(tsS'anchors'
p59
(tsss."
LayerCount: 2
Fore
SplineSet
615 -22 m 256
 810 -22 996 107 996 403 c 256
 996 685 813 826 623 826 c 256
 512 826 399 777 317 684 c 257
 317 567 l 257
 398 655 501 702 595 702 c 256
 728 702 842 606 842 399 c 256
 842 191 721 102 581 102 c 256
 492 102 395 138 317 202 c 257
 317 85 l 257
 401 18 509 -22 615 -22 c 256
EndSplineSet
EndChar

StartChar: lc_descender_stem
Encoding: 65552 -1 274
Width: 1067
VWidth: 0
Flags: W
PickledData: "(dp1
S'com.schriftgestaltung.Glyphs.Export'
p2
I00
sS'com.typemytype.robofont.layerData'
p3
(dp4
S'b'
(dp5
S'name'
p6
S'lc_descender_stem'
p7
sS'lib'
p8
(dp9
sS'unicodes'
p10
(tsS'width'
p11
I1067
sS'contours'
p12
(tsS'components'
p13
(tsS'anchors'
p14
(tsss."
LayerCount: 2
Fore
SplineSet
47 -303 m 257
 512 -303 l 257
 512 -179 l 257
 348 -179 l 257
 347 569 l 257
 332 804 l 257
 28 804 l 257
 28 688 l 257
 200 688 l 257
 200 -179 l 257
 47 -179 l 257
 47 -303 l 257
EndSplineSet
EndChar

StartChar: lc_xheight_curved_stem
Encoding: 65553 -1 275
Width: 1080
VWidth: 0
Flags: W
PickledData: "(dp1
S'com.schriftgestaltung.Glyphs.Export'
p2
I00
sS'com.typemytype.robofont.layerData'
p3
(dp4
S'b'
(dp5
S'name'
p6
S'lc_xheight_curved_stem'
p7
sS'lib'
p8
(dp9
sS'unicodes'
p10
(tsS'width'
p11
I1080
sS'contours'
p12
((dp13
S'points'
p14
((dp15
S'segmentType'
p16
S'line'
p17
sS'x'
I351
sS'smooth'
p18
I0
sS'y'
I643
s(dp19
S'y'
I715
sS'x'
I455
sg18
I0
s(dp20
S'y'
I756
sS'x'
I545
sg18
I0
s(dp21
g16
S'curve'
p22
sS'x'
I675
sg18
I1
sS'y'
I756
s(dp23
S'y'
I756
sS'x'
I821
sg18
I0
s(dp24
S'y'
I676
sS'x'
I849
sg18
I0
s(dp25
g16
S'curve'
p26
sS'x'
I849
sg18
I1
sS'y'
I577
s(dp27
g16
S'line'
p28
sS'x'
I849
sg18
I0
sS'y'
I58
s(dp29
g16
S'line'
p30
sS'x'
I688
sg18
I0
sS'y'
I58
s(dp31
g16
S'line'
p32
sS'x'
I688
sg18
I0
sS'y'
I0
s(dp33
g16
S'line'
p34
sS'x'
I1073
sg18
I0
sS'y'
I0
s(dp35
g16
S'line'
p36
sS'x'
I1073
sg18
I0
sS'y'
I58
s(dp37
g16
S'line'
p38
sS'x'
I924
sg18
I0
sS'y'
I58
s(dp39
g16
S'line'
p40
sS'x'
I924
sg18
I1
sS'y'
I592
s(dp41
S'y'
I697
sS'x'
I924
sg18
I0
s(dp42
S'y'
I820
sS'x'
I866
sg18
I0
s(dp43
g16
S'curve'
p44
sS'x'
I682
sg18
I1
sS'y'
I820
s(dp45
S'y'
I820
sS'x'
I557
sg18
I0
s(dp46
S'y'
I789
sS'x'
I468
sg18
I0
s(dp47
g16
S'curve'
p48
sS'x'
I348
sg18
I0
sS'y'
I709
stp49
stp50
sS'components'
p51
(tsS'anchors'
p52
(tsss."
LayerCount: 2
Fore
SplineSet
641 0 m 257
 1043 0 l 257
 1043 116 l 257
 898 116 l 257
 899 568 l 257
 898 725 813 826 654 826 c 256
 575 826 442 792 333 690 c 257
 333 575 l 257
 430 667 540 700 626 700 c 256
 727 700 750 620 750 513 c 258
 750 116 l 257
 641 116 l 257
 641 0 l 257
EndSplineSet
EndChar

StartChar: lc_xheight_stem
Encoding: 65554 -1 276
Width: 623
VWidth: 0
Flags: W
PickledData: "(dp1
S'com.schriftgestaltung.Glyphs.Export'
p2
I00
sS'com.typemytype.robofont.layerData'
p3
(dp4
S'b'
(dp5
S'name'
p6
S'lc_xheight_stem'
p7
sS'lib'
p8
(dp9
sS'unicodes'
p10
(tsS'width'
p11
I623
sS'contours'
p12
(tsS'components'
p13
(tsS'anchors'
p14
(tsss."
LayerCount: 2
Fore
SplineSet
120 0 m 257
 572 0 l 257
 572 116 l 257
 429 116 l 257
 429 633 l 257
 429 804 l 257
 117 804 l 257
 117 688 l 257
 281 688 l 257
 281 116 l 257
 120 116 l 257
 120 0 l 257
EndSplineSet
EndChar

StartChar: less
Encoding: 60 60 280
Width: 1145
VWidth: 0
Flags: W
PickledData: "(dp1
S'com.typemytype.robofont.layerData'
p2
(dp3
S'b'
(dp4
S'name'
p5
S'less'
p6
sS'lib'
p7
(dp8
sS'unicodes'
p9
(tsS'width'
p10
I1145
sS'contours'
p11
(tsS'components'
p12
(tsS'anchors'
p13
(tsss."
LayerCount: 2
Fore
SplineSet
980 165 m 257
 980 302 l 257
 292 571 l 257
 980 844 l 257
 980 981 l 257
 101 608 l 257
 101 536 l 257
 980 165 l 257
EndSplineSet
EndChar

StartChar: lessequal
Encoding: 8804 8804 281
Width: 1145
VWidth: 0
Flags: W
PickledData: "(dp1
S'com.typemytype.robofont.layerData'
p2
(dp3
S'b'
(dp4
S'name'
p5
S'lessequal'
p6
sS'lib'
p7
(dp8
sS'unicodes'
p9
(tsS'width'
p10
I1145
sS'contours'
p11
(tsS'components'
p12
(tsS'anchors'
p13
(tsss."
LayerCount: 2
Fore
SplineSet
1013 285 m 257
 1013 422 l 257
 325 691 l 257
 1013 964 l 257
 1013 1101 l 257
 134 728 l 257
 134 656 l 257
 1013 285 l 257
134 0 m 257
 1013 0 l 257
 1013 121 l 257
 134 121 l 257
 134 0 l 257
EndSplineSet
EndChar

StartChar: logicalnot
Encoding: 172 172 282
Width: 1113
VWidth: 0
Flags: W
PickledData: "(dp1
S'com.typemytype.robofont.layerData'
p2
(dp3
S'b'
(dp4
S'name'
p5
S'logicalnot'
p6
sS'lib'
p7
(dp8
sS'unicodes'
p9
(tsS'width'
p10
I1113
sS'contours'
p11
(tsS'components'
p12
(tsS'anchors'
p13
(tsss."
LayerCount: 2
Fore
SplineSet
876 304 m 257
 993 304 l 257
 993 842 l 257
 56 842 l 257
 56 724 l 257
 876 724 l 257
 876 304 l 257
EndSplineSet
EndChar

StartChar: lozenge
Encoding: 9674 9674 283
Width: 1003
VWidth: 0
Flags: W
PickledData: "(dp1
S'com.typemytype.robofont.layerData'
p2
(dp3
S'b'
(dp4
S'name'
p5
S'lozenge'
p6
sS'lib'
p7
(dp8
sS'unicodes'
p9
(tsS'width'
p10
I1003
sS'contours'
p11
(tsS'components'
p12
(tsS'anchors'
p13
(tsss."
LayerCount: 2
Fore
SplineSet
461 0 m 257
 543 0 l 257
 902 581 l 257
 543 1152 l 257
 461 1152 l 257
 102 579 l 257
 461 0 l 257
504 147 m 257
 240 581 l 257
 504 999 l 257
 764 581 l 257
 504 147 l 257
EndSplineSet
EndChar

StartChar: lslash
Encoding: 322 322 284
Width: 605
VWidth: 0
Flags: W
PickledData: "(dp1
S'com.typemytype.robofont.layerData'
p2
(dp3
S'b'
(dp4
S'name'
p5
S'lslash'
p6
sS'lib'
p7
(dp8
sS'unicodes'
p9
(tsS'width'
p10
I605
sS'contours'
p11
(tsS'components'
p12
(tsS'anchors'
p13
(tsss."
LayerCount: 2
Fore
SplineSet
84 415 m 257
 550 627 l 257
 550 763 l 257
 84 544 l 257
 84 415 l 257
EndSplineSet
Refer: 267 108 N 1 0 0 1 20 0 2
EndChar

StartChar: macron
Encoding: 175 175 286
Width: 593
VWidth: 0
Flags: W
PickledData: "(dp1
S'com.typemytype.robofont.layerData'
p2
(dp3
S'b'
(dp4
S'name'
p5
S'macron'
p6
sS'lib'
p7
(dp8
sS'unicodes'
p9
(tsS'width'
p10
I593
sS'contours'
p11
(tsS'components'
p12
(tsS'anchors'
p13
(tsss."
AnchorPoint: "top" 296.5 804 mark 0
AnchorPoint: "mid" 307 979 mark 0
LayerCount: 2
Fore
SplineSet
72 935 m 257
 519 935 l 257
 519 1024 l 257
 72 1024 l 257
 72 935 l 257
EndSplineSet
EndChar

StartChar: minus
Encoding: 8722 8722 287
Width: 931
VWidth: 0
Flags: W
PickledData: "(dp1
S'com.typemytype.robofont.layerData'
p2
(dp3
S'b'
(dp4
S'name'
p5
S'minus'
p6
sS'lib'
p7
(dp8
sS'unicodes'
p9
(tsS'width'
p10
I931
sS'contours'
p11
(tsS'components'
p12
(tsS'anchors'
p13
(tsss."
LayerCount: 2
Fore
SplineSet
56 530 m 257
 876 530 l 257
 876 648 l 257
 56 648 l 257
 56 530 l 257
EndSplineSet
EndChar

StartChar: mu
Encoding: 956 956 288
Width: 1005
VWidth: 0
Flags: W
LayerCount: 2
Fore
SplineSet
148 -368 m 257
 296 -368 l 257
 296 351 l 257
 148 351 l 257
 148 -368 l 257
EndSplineSet
Refer: 376 117 N 1 0 0 1 0 0 2
EndChar

StartChar: multiply
Encoding: 215 215 289
Width: 929
VWidth: 0
Flags: W
PickledData: "(dp1
S'com.typemytype.robofont.layerData'
p2
(dp3
S'b'
(dp4
S'name'
p5
S'multiply'
p6
sS'lib'
p7
(dp8
sS'unicodes'
p9
(tsS'width'
p10
I929
sS'contours'
p11
(tsS'components'
p12
(tsS'anchors'
p13
(tsss."
LayerCount: 2
Fore
SplineSet
683 242 m 257
 767 324 l 257
 556 533 l 257
 767 743 l 257
 684 826 l 257
 473 616 l 257
 263 826 l 257
 180 743 l 257
 390 533 l 257
 180 324 l 257
 264 242 l 257
 473 451 l 257
 683 242 l 257
EndSplineSet
EndChar

StartChar: nine
Encoding: 57 57 295
Width: 1048
VWidth: 0
Flags: W
PickledData: "(dp1
S'com.typemytype.robofont.layerData'
p2
(dp3
S'b'
(dp4
S'name'
p5
S'nine'
p6
sS'lib'
p7
(dp8
sS'unicodes'
p9
(tsS'width'
p10
I1048
sS'contours'
p11
(tsS'components'
p12
(tsS'anchors'
p13
(tsss."
LayerCount: 2
Fore
SplineSet
452 -71 m 257
 863 554 l 258
 901 612 941 704 941 783 c 256
 941 1006 780 1174 557 1174 c 256
 334 1174 167 1006 167 783 c 256
 167 558 347 414 521 416 c 256
 567 416 613 426 655 448 c 257
 352 3 l 257
 452 -71 l 257
553 524 m 256
 403 524 303 630 303 783 c 256
 303 938 417 1054 557 1054 c 256
 697 1054 815 944 805 779 c 256
 796 636 693 524 553 524 c 256
EndSplineSet
EndChar

StartChar: notequal
Encoding: 8800 8800 296
Width: 1145
VWidth: 0
Flags: W
PickledData: "(dp1
S'com.typemytype.robofont.layerData'
p2
(dp3
S'b'
(dp4
S'name'
p5
S'notequal'
p6
sS'lib'
p7
(dp8
sS'unicodes'
p9
(tsS'width'
p10
I1145
sS'contours'
p11
(tsS'components'
p12
(tsS'anchors'
p13
(tsss."
LayerCount: 2
Fore
SplineSet
387 61 m 257
 508 61 l 257
 563 280 l 257
 1012 280 l 257
 1012 401 l 257
 594 401 l 257
 668 683 l 257
 1012 683 l 257
 1012 804 l 257
 698 804 l 257
 756 1023 l 257
 637 1023 l 257
 580 804 l 257
 133 804 l 257
 133 683 l 257
 549 683 l 257
 475 401 l 257
 133 401 l 257
 133 280 l 257
 444 280 l 257
 387 61 l 257
EndSplineSet
EndChar

StartChar: numbersign
Encoding: 35 35 298
Width: 1186
VWidth: 0
Flags: W
PickledData: "(dp1
S'com.typemytype.robofont.layerData'
p2
(dp3
S'b'
(dp4
S'name'
p5
S'numbersign'
p6
sS'lib'
p7
(dp8
sS'unicodes'
p9
(tsS'width'
p10
I1186
sS'contours'
p11
(tsS'components'
p12
(tsS'anchors'
p13
(tsss."
LayerCount: 2
Fore
SplineSet
236 0 m 257
 357 0 l 257
 392 333 l 257
 719 333 l 257
 688 0 l 257
 809 0 l 257
 844 333 l 257
 1070 333 l 257
 1082 442 l 257
 860 442 l 257
 889 733 l 257
 1090 733 l 257
 1102 844 l 257
 905 844 l 257
 942 1171 l 257
 819 1171 l 257
 781 844 l 257
 456 844 l 257
 490 1171 l 257
 367 1171 l 257
 333 844 l 257
 122 844 l 257
 110 733 l 257
 317 733 l 257
 284 442 l 257
 102 442 l 257
 90 333 l 257
 268 333 l 257
 236 0 l 257
408 442 m 257
 439 733 l 257
 765 733 l 257
 735 442 l 257
 408 442 l 257
EndSplineSet
EndChar

StartChar: o
Encoding: 111 111 299
Width: 1001
VWidth: 0
Flags: W
PickledData: "(dp1
S'com.typemytype.robofont.layerData'
p2
(dp3
S'b'
(dp4
S'name'
p5
S'o'
sS'lib'
p6
(dp7
sS'unicodes'
p8
(tsS'width'
p9
I1001
sS'contours'
p10
(tsS'components'
p11
(tsS'anchors'
p12
(tsss."
AnchorPoint: "bot" 500.5 0 basechar 0
AnchorPoint: "top" 500 804 basechar 0
AnchorPoint: "ogonek" 553 0 basechar 0
LayerCount: 2
Fore
SplineSet
499 102 m 256
 341 103 230 227 230 401 c 256
 230 577 341 702 499 702 c 256
 658 702 771 577 771 401 c 256
 771 227 658 103 499 102 c 256
499 -22 m 256
 750 -22 927 154 927 402 c 256
 927 650 751 826 501 826 c 256
 251 826 74 652 74 406 c 256
 74 155 250 -22 499 -22 c 256
EndSplineSet
EndChar

StartChar: oe
Encoding: 339 339 304
Width: 1647
VWidth: 0
Flags: W
PickledData: "(dp1
S'com.typemytype.robofont.layerData'
p2
(dp3
S'b'
(dp4
S'name'
p5
S'oe'
p6
sS'lib'
p7
(dp8
sS'unicodes'
p9
(tsS'width'
p10
I1647
sS'contours'
p11
(tsS'components'
p12
(tsS'anchors'
p13
(tsss."
LayerCount: 2
Fore
SplineSet
492 -22 m 256
 645 -22 788 61 838 178 c 257
 892 59 1031 -22 1203 -22 c 256
 1356 -22 1461 41 1538 138 c 257
 1461 224 l 257
 1406 154 1303 106 1202 106 c 256
 1038 106 929 209 921 365 c 257
 1565 365 l 257
 1564 627 1456 826 1192 826 c 256
 1033 826 896 747 838 636 c 257
 779 745 661 826 494 826 c 256
 246 826 65 651 66 407 c 256
 66 165 236 -22 492 -22 c 256
492 102 m 256
 323 103 222 240 222 407 c 256
 222 569 329 702 492 702 c 256
 656 702 763 567 763 408 c 256
 763 232 655 101 492 102 c 256
924 467 m 257
 947 611 1035 695 1191 695 c 256
 1337 695 1405 598 1421 467 c 257
 924 467 l 257
EndSplineSet
EndChar

StartChar: ogonek
Encoding: 731 731 305
Width: 587
VWidth: 0
Flags: W
PickledData: "(dp1
S'com.typemytype.robofont.layerData'
p2
(dp3
S'b'
(dp4
S'name'
p5
S'ogonek'
p6
sS'lib'
p7
(dp8
sS'unicodes'
p9
(tsS'width'
p10
I587
sS'contours'
p11
(tsS'components'
p12
(tsS'anchors'
p13
(tsss."
AnchorPoint: "ogonek" 273 0 mark 0
LayerCount: 2
Fore
SplineSet
326 -353 m 256
 358 -353 410 -346 451 -316 c 257
 451 -213 l 257
 422 -226 393 -233 364 -233 c 256
 294 -233 265 -188 265 -132 c 256
 265 -89 282 -40 311 0 c 257
 267 0 l 257
 183 -58 139 -137 139 -205 c 256
 139 -286 200 -353 326 -353 c 256
EndSplineSet
EndChar

StartChar: one
Encoding: 49 49 309
Width: 1006
VWidth: 0
Flags: W
PickledData: "(dp1
S'com.typemytype.robofont.layerData'
p2
(dp3
S'b'
(dp4
S'name'
p5
S'one'
p6
sS'lib'
p7
(dp8
sS'unicodes'
p9
(tsS'width'
p10
I1006
sS'contours'
p11
(tsS'components'
p12
(tsS'anchors'
p13
(tsss."
LayerCount: 2
Fore
SplineSet
316 0 m 257
 785 0 l 257
 785 116 l 257
 631 116 l 257
 631 1153 l 257
 308 1153 l 257
 308 1037 l 257
 482 1037 l 257
 482 116 l 257
 316 116 l 257
 316 0 l 257
EndSplineSet
EndChar

StartChar: onehalf
Encoding: 189 189 310
Width: 1690
VWidth: 0
Flags: W
PickledData: "(dp1
S'com.typemytype.robofont.layerData'
p2
(dp3
S'b'
(dp4
S'name'
p5
S'onehalf'
p6
sS'lib'
p7
(dp8
sS'unicodes'
p9
(tsS'width'
p10
I1690
sS'contours'
p11
(tsS'components'
p12
(tsS'anchors'
p13
(tsss."
LayerCount: 2
Fore
SplineSet
1122 0 m 257
 1598 0 l 257
 1597 95 l 257
 1247 95 l 257
 1500 388 l 258
 1568 468 1596 535 1596 605 c 256
 1596 725 1525 826 1354 826 c 256
 1209 826 1102 743 1102 596 c 256
 1102 574 1104 551 1109 527 c 257
 1210 527 l 257
 1206 551 1203 573 1203 592 c 256
 1203 688 1256 733 1357 733 c 256
 1456 733 1495 677 1495 602 c 256
 1495 557 1475 512 1423 450 c 258
 1123 94 l 257
 1122 0 l 257
128 348 m 257
 471 348 l 257
 471 441 l 257
 357 441 l 257
 357 1152 l 257
 122 1152 l 257
 122 1058 l 257
 251 1058 l 257
 251 441 l 257
 128 441 l 257
 128 348 l 257
383 0 m 257
 484 0 l 257
 1258 1152 l 257
 1160 1152 l 257
 383 0 l 257
EndSplineSet
EndChar

StartChar: onequarter
Encoding: 188 188 311
Width: 1665
VWidth: 0
Flags: W
PickledData: "(dp1
S'com.typemytype.robofont.layerData'
p2
(dp3
S'b'
(dp4
S'name'
p5
S'onequarter'
p6
sS'lib'
p7
(dp8
sS'unicodes'
p9
(tsS'width'
p10
I1665
sS'contours'
p11
(tsS'components'
p12
(tsS'anchors'
p13
(tsss."
LayerCount: 2
Fore
SplineSet
1170 0 m 257
 1537 0 l 257
 1537 80 l 257
 1417 80 l 257
 1417 254 l 257
 1570 254 l 257
 1570 329 l 257
 1417 329 l 257
 1417 804 l 257
 1315 804 l 257
 940 329 l 257
 940 254 l 257
 1312 254 l 257
 1312 80 l 257
 1170 80 l 257
 1170 0 l 257
129 348 m 257
 472 348 l 257
 472 441 l 257
 358 441 l 257
 358 1152 l 257
 123 1152 l 257
 123 1058 l 257
 252 1058 l 257
 252 441 l 257
 129 441 l 257
 129 348 l 257
384 0 m 257
 485 0 l 257
 1259 1152 l 257
 1161 1152 l 257
 384 0 l 257
1048 329 m 257
 1312 678 l 257
 1312 329 l 257
 1048 329 l 257
EndSplineSet
EndChar

StartChar: onesuperior
Encoding: 185 185 312
Width: 600
VWidth: 0
Flags: W
PickledData: "(dp1
S'com.typemytype.robofont.layerData'
p2
(dp3
S'b'
(dp4
S'name'
p5
S'uni00B9'
p6
sS'lib'
p7
(dp8
sS'unicodes'
p9
(tsS'width'
p10
I600
sS'contours'
p11
(tsS'components'
p12
(tsS'anchors'
p13
(tsss."
LayerCount: 2
Fore
SplineSet
149 455 m 257
 538 455 l 257
 538 556 l 257
 411 556 l 257
 411 1324 l 257
 139 1283 l 257
 156 1176 l 257
 270 1193 l 257
 270 556 l 257
 149 556 l 257
 149 455 l 257
EndSplineSet
EndChar

StartChar: ordfeminine
Encoding: 170 170 313
Width: 696
VWidth: 0
Flags: W
PickledData: "(dp1
S'com.typemytype.robofont.layerData'
p2
(dp3
S'b'
(dp4
S'name'
p5
S'ordfeminine'
p6
sS'lib'
p7
(dp8
sS'unicodes'
p9
(tsS'width'
p10
I696
sS'contours'
p11
(tsS'components'
p12
(tsS'anchors'
p13
(tsss."
LayerCount: 2
Fore
SplineSet
266 542 m 256
 333 542 402 568 475 619 c 257
 476 557 l 257
 684 557 l 257
 684 642 l 257
 576 642 l 257
 576 973 l 258
 576 1116 481 1174 320 1174 c 256
 225 1174 150 1145 94 1089 c 257
 163 1016 l 257
 198 1061 251 1084 324 1084 c 256
 417 1084 464 1045 464 968 c 258
 464 895 l 257
 414 905 357 910 293 910 c 256
 155 910 58 856 58 711 c 256
 58 610 155 542 266 542 c 256
281 624 m 256
 215 624 166 659 166 719 c 256
 166 796 220 834 329 834 c 256
 376 834 424 822 464 822 c 257
 464 691 l 257
 415 646 356 624 281 624 c 256
EndSplineSet
EndChar

StartChar: ordmasculine
Encoding: 186 186 314
Width: 704
VWidth: 0
Flags: W
PickledData: "(dp1
S'com.typemytype.robofont.layerData'
p2
(dp3
S'b'
(dp4
S'name'
p5
S'ordmasculine'
p6
sS'lib'
p7
(dp8
sS'unicodes'
p9
(tsS'width'
p10
I704
sS'contours'
p11
(tsS'components'
p12
(tsS'anchors'
p13
(tsss."
LayerCount: 2
Fore
SplineSet
353 644 m 256
 242 644 158 736 158 857 c 256
 158 978 241 1068 352 1068 c 256
 463 1068 546 978 546 857 c 256
 546 736 463 644 353 644 c 256
353 544 m 256
 532 544 667 678 667 857 c 256
 667 1037 532 1171 353 1171 c 256
 173 1170 38 1035 38 857 c 256
 38 678 172 544 353 544 c 256
EndSplineSet
EndChar

StartChar: oslash
Encoding: 248 248 315
Width: 985
VWidth: 0
Flags: W
PickledData: "(dp1
S'com.typemytype.robofont.layerData'
p2
(dp3
S'b'
(dp4
S'name'
p5
S'oslash'
p6
sS'lib'
p7
(dp8
sS'unicodes'
p9
(tsS'width'
p10
I985
sS'contours'
p11
(tsS'components'
p12
(tsS'anchors'
p13
(tsss."
LayerCount: 2
Fore
SplineSet
289 -124 m 257
 806 885 l 257
 712 928 l 257
 195 -81 l 257
 289 -124 l 257
EndSplineSet
Refer: 299 111 N 1 0 0 1 0 0 2
EndChar

StartChar: paragraph
Encoding: 182 182 319
Width: 1055
VWidth: 0
Flags: W
PickledData: "(dp1
S'com.typemytype.robofont.layerData'
p2
(dp3
S'b'
(dp4
S'name'
p5
S'paragraph'
p6
sS'lib'
p7
(dp8
sS'unicodes'
p9
(tsS'width'
p10
I1055
sS'contours'
p11
(tsS'components'
p12
(tsS'anchors'
p13
(tsss."
LayerCount: 2
Fore
SplineSet
538 0 m 257
 984 0 l 257
 984 116 l 257
 859 116 l 257
 859 1018 l 257
 997 1018 l 257
 997 1152 l 257
 465 1152 l 258
 228 1152 84 1017 84 793 c 256
 84 580 232 440 445 434 c 257
 706 434 l 257
 706 116 l 257
 538 116 l 257
 538 0 l 257
505 559 m 257
 505 1018 l 257
 706 1018 l 257
 706 558 l 257
 505 559 l 257
EndSplineSet
EndChar

StartChar: parenleft
Encoding: 40 40 320
Width: 522
VWidth: 0
Flags: W
PickledData: "(dp1
S'com.typemytype.robofont.layerData'
p2
(dp3
S'b'
(dp4
S'name'
p5
S'parenleft'
p6
sS'lib'
p7
(dp8
sS'unicodes'
p9
(tsS'width'
p10
I522
sS'contours'
p11
(tsS'components'
p12
(tsS'anchors'
p13
(tsss."
LayerCount: 2
Fore
SplineSet
431 -114 m 257
 433 -4 l 257
 315 46 256 288 256 531 c 256
 256 773 315 1016 433 1065 c 257
 431 1174 l 257
 178 1086 52 807 52 529 c 256
 52 250 178 -28 431 -114 c 257
EndSplineSet
EndChar

StartChar: parenright
Encoding: 41 41 321
Width: 522
VWidth: 0
Flags: W
PickledData: "(dp1
S'com.typemytype.robofont.layerData'
p2
(dp3
S'b'
(dp4
S'name'
p5
S'parenright'
p6
sS'lib'
p7
(dp8
sS'unicodes'
p9
(tsS'width'
p10
I522
sS'contours'
p11
(tsS'components'
p12
(tsS'anchors'
p13
(tsss."
LayerCount: 2
Fore
SplineSet
91 -114 m 257
 344 -28 470 250 470 529 c 256
 470 807 344 1086 91 1174 c 257
 89 1065 l 257
 207 1016 266 773 266 531 c 256
 266 288 207 46 89 -4 c 257
 91 -114 l 257
EndSplineSet
EndChar

StartChar: partialdiff
Encoding: 8706 8706 322
Width: 907
VWidth: 0
Flags: W
PickledData: "(dp1
S'com.typemytype.robofont.layerData'
p2
(dp3
S'b'
(dp4
S'name'
p5
S'partialdiff'
p6
sS'lib'
p7
(dp8
sS'unicodes'
p9
(tsS'width'
p10
I907
sS'contours'
p11
(tsS'components'
p12
(tsS'anchors'
p13
(tsss."
LayerCount: 2
Fore
SplineSet
367 -19 m 256
 706 -19 851 249 851 670 c 256
 851 939 752 1171 477 1171 c 256
 351 1171 248 1141 169 1082 c 257
 216 969 l 257
 289 1020 367 1045 453 1045 c 256
 680.059 1045 713.333 772.333 700 639 c 257
 246 639 72 420 72 234 c 256
 72 104 172 -19 367 -19 c 256
381 114 m 256
 282 114 230 182 230 250 c 256
 230 363 328 499 685 509 c 257
 684.262 503.727 683.505 498.515 682.728 493.365 c 256
 640.345 212.361 540.084 114 381 114 c 256
EndSplineSet
EndChar

StartChar: percent
Encoding: 37 37 323
Width: 1585
VWidth: 0
Flags: W
PickledData: "(dp1
S'com.typemytype.robofont.layerData'
p2
(dp3
S'b'
(dp4
S'name'
p5
S'percent'
p6
sS'lib'
p7
(dp8
sS'unicodes'
p9
(tsS'width'
p10
I1585
sS'contours'
p11
(tsS'components'
p12
(tsS'anchors'
p13
(tsss."
LayerCount: 2
Fore
SplineSet
390 673 m 256
 286 673 184 743 184 880 c 256
 184 1015 286 1085 390 1085 c 256
 493 1085 598 1015 598 880 c 256
 598 743 493 673 390 673 c 256
390 582 m 256
 543 582 698 683 698 880 c 256
 698 1076 543 1174 390 1174 c 256
 234 1174 84 1074 84 880 c 256
 84 683 235 582 390 582 c 256
308 -47 m 257
 1357 1164 l 257
 1299 1222 l 257
 246 17 l 257
 308 -47 l 257
1189 69 m 256
 1085 69 983 139 983 276 c 256
 983 411 1085 481 1189 481 c 256
 1292 481 1397 411 1397 276 c 256
 1397 139 1292 69 1189 69 c 256
1189 -22 m 256
 1342 -22 1497 79 1497 276 c 256
 1497 472 1342 570 1189 570 c 256
 1033 570 883 470 883 276 c 256
 883 79 1034 -22 1189 -22 c 256
EndSplineSet
EndChar

StartChar: period
Encoding: 46 46 324
Width: 414
VWidth: 0
Flags: W
PickledData: "(dp1
S'com.typemytype.robofont.layerData'
p2
(dp3
S'b'
(dp4
S'name'
p5
S'period'
p6
sS'lib'
p7
(dp8
sS'unicodes'
p9
(tsS'width'
p10
I414
sS'contours'
p11
(tsS'components'
p12
(tsS'anchors'
p13
(tsss."
LayerCount: 2
Fore
SplineSet
86 0 m 257
 313 0 l 257
 313 211 l 257
 86 211 l 257
 86 0 l 257
EndSplineSet
EndChar

StartChar: periodcentered
Encoding: 183 183 325
Width: 414
VWidth: 0
Flags: W
PickledData: "(dp1
S'com.typemytype.robofont.layerData'
p2
(dp3
S'b'
(dp4
S'name'
p5
S'periodcentered'
p6
sS'lib'
p7
(dp8
sS'unicodes'
p9
(tsS'width'
p10
I414
sS'contours'
p11
(tsS'components'
p12
(tsS'anchors'
p13
(tsss."
AnchorPoint: "mid" -70 544 mark 0
LayerCount: 2
Fore
SplineSet
86 446 m 257
 313 446 l 257
 313 657 l 257
 86 657 l 257
 86 446 l 257
EndSplineSet
EndChar

StartChar: perthousand
Encoding: 8240 8240 326
Width: 2304
VWidth: 0
Flags: W
LayerCount: 2
Fore
SplineSet
1908 69 m 256
 1804 69 1702 139 1702 276 c 256
 1702 411 1804 481 1908 481 c 256
 2011 481 2116 411 2116 276 c 256
 2116 139 2011 69 1908 69 c 256
1908 -22 m 256
 2061 -22 2216 79 2216 276 c 256
 2216 472 2061 570 1908 570 c 256
 1752 570 1602 470 1602 276 c 256
 1602 79 1753 -22 1908 -22 c 256
EndSplineSet
Refer: 323 37 N 1 0 0 1 0 0 2
EndChar

StartChar: pi
Encoding: 960 960 327
Width: 1121
VWidth: 0
Flags: W
PickledData: "(dp1
S'com.typemytype.robofont.layerData'
p2
(dp3
S'b'
(dp4
S'name'
p5
S'pi'
p6
sS'lib'
p7
(dp8
sS'unicodes'
p9
(tsS'width'
p10
I1121
sS'contours'
p11
(tsS'components'
p12
(tsS'anchors'
p13
(tsss."
LayerCount: 2
Fore
SplineSet
859 -13 m 256
 918 -13 968 5 994 30 c 257
 994 128 l 257
 973 120 943 112 912 112 c 256
 864 112 827 141 827 226 c 256
 827 308 832 512 845 663 c 257
 1025 663 l 257
 1025 804 l 257
 347 804 l 258
 166 804 110 728 110 563 c 257
 183 563 l 257
 192 621 222 663 283 663 c 258
 356 663 l 257
 308 293 l 258
 287 128 186 82 119 82 c 257
 119 0 l 257
 383 0 436 77 444 244 c 258
 464 663 l 257
 729 663 l 257
 702 504 676 281 676 174 c 256
 676 37 745 -13 859 -13 c 256
EndSplineSet
EndChar

StartChar: plus
Encoding: 43 43 328
Width: 1047
VWidth: 0
Flags: W
PickledData: "(dp1
S'com.typemytype.robofont.layerData'
p2
(dp3
S'b'
(dp4
S'name'
p5
S'plus'
p6
sS'lib'
p7
(dp8
sS'unicodes'
p9
(tsS'width'
p10
I1047
sS'contours'
p11
(tsS'components'
p12
(tsS'anchors'
p13
(tsss."
LayerCount: 2
Fore
SplineSet
461 93 m 257
 585 93 l 257
 585 485 l 257
 990 485 l 257
 990 602 l 257
 585 602 l 257
 585 994 l 257
 461 994 l 257
 461 602 l 257
 57 602 l 257
 57 485 l 257
 461 485 l 257
 461 93 l 257
EndSplineSet
EndChar

StartChar: plusminus
Encoding: 177 177 329
Width: 1145
VWidth: 0
Flags: W
PickledData: "(dp1
S'com.typemytype.robofont.layerData'
p2
(dp3
S'b'
(dp4
S'name'
p5
S'plusminus'
p6
sS'lib'
p7
(dp8
sS'unicodes'
p9
(tsS'width'
p10
I1145
sS'contours'
p11
(tsS'components'
p12
(tsS'anchors'
p13
(tsss."
LayerCount: 2
Fore
SplineSet
510 311 m 257
 633 311 l 257
 633 672 l 257
 1012 672 l 257
 1012 793 l 257
 633 793 l 257
 633 1152 l 257
 510 1152 l 257
 510 793 l 257
 133 793 l 257
 133 672 l 257
 510 672 l 257
 510 311 l 257
133 0 m 257
 1012 0 l 257
 1012 121 l 257
 133 121 l 257
 133 0 l 257
EndSplineSet
EndChar

StartChar: product
Encoding: 8719 8719 330
Width: 1273
VWidth: 0
Flags: W
PickledData: "(dp1
S'com.typemytype.robofont.layerData'
p2
(dp3
S'b'
(dp4
S'name'
p5
S'product'
p6
sS'lib'
p7
(dp8
sS'unicodes'
p9
(tsS'width'
p10
I1273
sS'contours'
p11
(tsS'components'
p12
(tsS'anchors'
p13
(tsss."
AnchorPoint: "top" 602 0 basechar 0
LayerCount: 2
Fore
SplineSet
76 0 m 257
 550 0 l 257
 550 116 l 257
 395 116 l 257
 395 1037 l 257
 878 1037 l 257
 878 116 l 257
 723 116 l 257
 723 0 l 257
 1197 0 l 257
 1197 116 l 257
 1039 116 l 257
 1039 1037 l 257
 1197 1037 l 257
 1197 1153 l 257
 76 1153 l 257
 76 1037 l 257
 234 1037 l 257
 234 116 l 257
 76 116 l 257
 76 0 l 257
EndSplineSet
EndChar

StartChar: q
Encoding: 113 113 331
Width: 1107
VWidth: 0
Flags: W
PickledData: "(dp1
S'com.typemytype.robofont.layerData'
p2
(dp3
S'b'
(dp4
S'name'
p5
S'q'
sS'lib'
p6
(dp7
sS'unicodes'
p8
(tsS'width'
p9
I1107
sS'contours'
p10
(tsS'components'
p11
(tsS'anchors'
p12
(tsss."
LayerCount: 2
Fore
SplineSet
577 -303 m 257
 1041 -303 l 257
 1041 -179 l 257
 889 -179 l 257
 889 688 l 257
 1031 688 l 257
 1031 804 l 257
 744 804 l 257
 741 698 l 257
 741 -179 l 257
 577 -179 l 257
 577 -303 l 257
EndSplineSet
Refer: 272 -1 N 1 0 0 1 -50 0 2
EndChar

StartChar: question
Encoding: 63 63 332
Width: 796
VWidth: 0
Flags: W
PickledData: "(dp1
S'com.typemytype.robofont.layerData'
p2
(dp3
S'b'
(dp4
S'name'
p5
S'question'
p6
sS'lib'
p7
(dp8
sS'unicodes'
p9
(tsS'width'
p10
I796
sS'contours'
p11
(tsS'components'
p12
(tsS'anchors'
p13
(tsss."
LayerCount: 2
Fore
SplineSet
313 323 m 257
 408 323 l 257
 418 485 471 551 582 624 c 256
 668 680 738 742 738 868 c 256
 738 1054 579 1170 392 1170 c 256
 192 1170 54 1059 54 849 c 257
 189 849 l 257
 189 983 260 1050 401 1050 c 256
 512 1050 596 975 596 862 c 256
 596 753 512 720 441 669 c 256
 356 606 313 491 313 323 c 257
280 0 m 257
 452 0 l 257
 452 197 l 257
 280 197 l 257
 280 0 l 257
EndSplineSet
EndChar

StartChar: quotedbl
Encoding: 34 34 334
Width: 665
VWidth: 0
Flags: W
PickledData: "(dp1
S'com.typemytype.robofont.layerData'
p2
(dp3
S'b'
(dp4
S'name'
p5
S'quotedbl'
p6
sS'lib'
p7
(dp8
sS'unicodes'
p9
(tsS'width'
p10
I665
sS'contours'
p11
(tsS'components'
p12
(tsS'anchors'
p13
(tsss."
LayerCount: 2
Fore
SplineSet
118 716 m 257
 228 716 l 257
 270 1171 l 257
 72 1171 l 257
 118 716 l 257
440 716 m 257
 550 716 l 257
 592 1171 l 257
 396 1171 l 257
 440 716 l 257
EndSplineSet
EndChar

StartChar: quotedblbase
Encoding: 8222 8222 335
Width: 785
VWidth: 0
Flags: W
PickledData: "(dp1
S'com.typemytype.robofont.layerData'
p2
(dp3
S'b'
(dp4
S'name'
p5
S'quotedblbase'
p6
sS'lib'
p7
(dp8
sS'unicodes'
p9
(tsS'width'
p10
I785
sS'contours'
p11
(tsS'components'
p12
(tsS'anchors'
p13
(tsss."
LayerCount: 2
Fore
SplineSet
82 -237 m 257
 234 -240 298 -162 299 0 c 258
 299 211 l 257
 82 211 l 257
 82 0 l 257
 193 0 l 257
 194 -100 165 -132 82 -150 c 257
 82 -237 l 257
481 -237 m 257
 633 -239 698 -162 698 0 c 258
 698 211 l 257
 481 211 l 257
 481 0 l 257
 592 0 l 257
 592 -99 564 -132 481 -150 c 257
 481 -237 l 257
EndSplineSet
EndChar

StartChar: quotedblleft
Encoding: 8220 8220 336
Width: 720
VWidth: 0
Flags: W
PickledData: "(dp1
S'com.typemytype.robofont.layerData'
p2
(dp3
S'b'
(dp4
S'name'
p5
S'quotedblleft'
p6
sS'lib'
p7
(dp8
sS'unicodes'
p9
(tsS'width'
p10
I720
sS'contours'
p11
(tsS'components'
p12
(tsS'anchors'
p13
(tsss."
LayerCount: 2
Fore
SplineSet
82 723 m 257
 299 723 l 257
 299 934 l 257
 188 934 l 257
 188 1033 216 1066 299 1084 c 257
 299 1171 l 257
 147 1173 82 1096 82 934 c 258
 82 723 l 257
415 723 m 257
 632 723 l 257
 632 934 l 257
 521 934 l 257
 520 1034 549 1066 632 1084 c 257
 632 1171 l 257
 480 1174 416 1096 415 934 c 258
 415 723 l 257
EndSplineSet
EndChar

StartChar: quotedblright
Encoding: 8221 8221 337
Width: 704
VWidth: 0
Flags: W
PickledData: "(dp1
S'com.typemytype.robofont.layerData'
p2
(dp3
S'b'
(dp4
S'name'
p5
S'quotedblright'
p6
sS'lib'
p7
(dp8
sS'unicodes'
p9
(tsS'width'
p10
I704
sS'contours'
p11
(tsS'components'
p12
(tsS'anchors'
p13
(tsss."
LayerCount: 2
Fore
SplineSet
82 705 m 257
 234 702 298 780 299 942 c 258
 299 1153 l 257
 82 1153 l 257
 82 942 l 257
 193 942 l 257
 194 842 165 810 82 792 c 257
 82 705 l 257
415 705 m 257
 567 703 632 780 632 942 c 258
 632 1153 l 257
 415 1153 l 257
 415 942 l 257
 526 942 l 257
 526 843 498 810 415 792 c 257
 415 705 l 257
EndSplineSet
EndChar

StartChar: quoteleft
Encoding: 8216 8216 338
Width: 382
VWidth: 0
Flags: W
PickledData: "(dp1
S'com.typemytype.robofont.layerData'
p2
(dp3
S'b'
(dp4
S'name'
p5
S'quoteleft'
p6
sS'lib'
p7
(dp8
sS'unicodes'
p9
(tsS'width'
p10
I382
sS'contours'
p11
(tsS'components'
p12
(tsS'anchors'
p13
(tsss."
LayerCount: 2
Fore
SplineSet
82 723 m 257
 299 723 l 257
 299 934 l 257
 188 934 l 257
 188 1033 216 1066 299 1084 c 257
 299 1171 l 257
 147 1173 82 1096 82 934 c 258
 82 723 l 257
EndSplineSet
EndChar

StartChar: quoteright
Encoding: 8217 8217 339
Width: 364
VWidth: 0
Flags: W
PickledData: "(dp1
S'com.typemytype.robofont.layerData'
p2
(dp3
S'b'
(dp4
S'name'
p5
S'quoteright'
p6
sS'lib'
p7
(dp8
sS'unicodes'
p9
(tsS'width'
p10
I364
sS'contours'
p11
(tsS'components'
p12
(tsS'anchors'
p13
(tsss."
LayerCount: 2
Fore
SplineSet
82 705 m 257
 234 702 298 780 299 942 c 258
 299 1153 l 257
 82 1153 l 257
 82 942 l 257
 193 942 l 257
 194 842 165 810 82 792 c 257
 82 705 l 257
EndSplineSet
EndChar

StartChar: quotesinglbase
Encoding: 8218 8218 340
Width: 389
VWidth: 0
Flags: W
PickledData: "(dp1
S'com.typemytype.robofont.layerData'
p2
(dp3
S'b'
(dp4
S'name'
p5
S'quotesinglbase'
p6
sS'lib'
p7
(dp8
sS'unicodes'
p9
(tsS'width'
p10
I389
sS'contours'
p11
(tsS'components'
p12
(tsS'anchors'
p13
(tsss."
LayerCount: 2
Fore
SplineSet
82 -237 m 257
 234 -240 298 -162 299 0 c 258
 299 211 l 257
 82 211 l 257
 82 0 l 257
 193 0 l 257
 194 -100 165 -132 82 -150 c 257
 82 -237 l 257
EndSplineSet
EndChar

StartChar: quotesingle
Encoding: 39 39 341
Width: 337
VWidth: 0
Flags: W
PickledData: "(dp1
S'com.typemytype.robofont.layerData'
p2
(dp3
S'b'
(dp4
S'name'
p5
S'quotesingle'
p6
sS'lib'
p7
(dp8
sS'unicodes'
p9
(tsS'width'
p10
I337
sS'contours'
p11
(tsS'components'
p12
(tsS'anchors'
p13
(tsss."
LayerCount: 2
Fore
SplineSet
115 716 m 257
 225 716 l 257
 267 1171 l 257
 70 1171 l 257
 115 716 l 257
EndSplineSet
EndChar

StartChar: r
Encoding: 114 114 342
Width: 778
VWidth: 0
Flags: W
PickledData: "(dp1
S'com.typemytype.robofont.layerData'
p2
(dp3
S'b'
(dp4
S'name'
p5
S'r'
sS'lib'
p6
(dp7
sS'unicodes'
p8
(tsS'width'
p9
I778
sS'contours'
p10
((dp11
S'points'
p12
((dp13
S'segmentType'
p14
S'line'
p15
sS'x'
I338
sS'smooth'
p16
I0
sS'y'
I449
s(dp17
S'y'
I643
sS'x'
I338
sg16
I0
s(dp18
S'y'
I756
sS'x'
I441
sg16
I0
s(dp19
g14
S'curve'
p20
sS'x'
I570
sg16
I1
sS'y'
I756
s(dp21
S'y'
I756
sS'x'
I614
sg16
I0
s(dp22
S'y'
I742
sS'x'
I651
sg16
I0
s(dp23
g14
S'curve'
p24
sS'x'
I704
sg16
I0
sS'y'
I716
s(dp25
g14
S'line'
p26
sS'x'
I722
sg16
I0
sS'y'
I784
s(dp27
S'y'
I810
sS'x'
I664
sg16
I0
s(dp28
S'y'
I820
sS'x'
I622
sg16
I0
s(dp29
g14
S'curve'
p30
sS'x'
I575
sg16
I1
sS'y'
I820
s(dp31
S'y'
I820
sS'x'
I467
sg16
I0
s(dp32
S'y'
I769
sS'x'
I381
sg16
I0
s(dp33
g14
S'curve'
p34
sS'x'
I316
sg16
I0
sS'y'
I582
stp35
stp36
sS'components'
p37
(tsS'anchors'
p38
(tsss."
AnchorPoint: "top" 356 805 basechar 0
AnchorPoint: "bot" 310 0 basechar 0
LayerCount: 2
Fore
SplineSet
382 430 m 257
 382 576 450 688 569 688 c 256
 608 688 660 673 709 647 c 257
 736 767 l 257
 681 797 630 812 584 812 c 256
 479 812 400 735 365 589 c 257
 382 430 l 257
EndSplineSet
Refer: 276 -1 N 1 0 0 1 -47 0 2
EndChar

StartChar: radical
Encoding: 8730 8730 344
Width: 1060
VWidth: 0
Flags: W
PickledData: "(dp1
S'com.typemytype.robofont.layerData'
p2
(dp3
S'b'
(dp4
S'name'
p5
S'radical'
p6
sS'lib'
p7
(dp8
sS'unicodes'
p9
(tsS'width'
p10
I1060
sS'contours'
p11
(tsS'components'
p12
(tsS'anchors'
p13
(tsss."
LayerCount: 2
Fore
SplineSet
464 -14 m 257
 598 -14 l 257
 1060 1363 l 257
 935 1363 l 257
 539 194 l 257
 326 691 l 257
 30 691 l 257
 30 568 l 257
 196 568 l 257
 464 -14 l 257
EndSplineSet
EndChar

StartChar: registered
Encoding: 174 174 347
Width: 1336
VWidth: 0
Flags: W
PickledData: "(dp1
S'com.typemytype.robofont.layerData'
p2
(dp3
S'b'
(dp4
S'name'
p5
S'registered'
p6
sS'lib'
p7
(dp8
sS'unicodes'
p9
(tsS'width'
p10
I1336
sS'contours'
p11
(tsS'components'
p12
(tsS'anchors'
p13
(tsss."
LayerCount: 2
Fore
SplineSet
393 269 m 257
 653 269 l 257
 653 337 l 257
 568 337 l 257
 568 561 l 257
 673 561 l 257
 827 269 l 257
 964 269 l 257
 964 337 l 257
 885 337 l 257
 758 572 l 257
 851 591 898 644 898 733 c 256
 898 846 816 895 692 895 c 258
 393 895 l 257
 393 826 l 257
 481 826 l 257
 481 337 l 257
 393 337 l 257
 393 269 l 257
568 631 m 257
 568 826 l 257
 685 826 l 258
 768 826 809 795 809 733 c 256
 809 660 761 631 689 631 c 258
 568 631 l 257
666 74 m 256
 376 74 184 294 184 575 c 256
 184 858 375 1077 667 1077 c 256
 960 1077 1149 857 1151 575 c 256
 1149 294 958 74 666 74 c 256
668 -18 m 256
 1023 -18 1268 233 1268 575 c 256
 1268 917 1024 1171 668 1171 c 256
 312 1171 68 917 68 575 c 256
 68 233 313 -18 668 -18 c 256
EndSplineSet
EndChar

StartChar: ring
Encoding: 730 730 348
Width: 501
VWidth: 0
Flags: W
PickledData: "(dp1
S'com.typemytype.robofont.layerData'
p2
(dp3
S'b'
(dp4
S'name'
p5
S'ring'
p6
sS'lib'
p7
(dp8
sS'unicodes'
p9
(tsS'width'
p10
I501
sS'contours'
p11
(tsS'components'
p12
(tsS'anchors'
p13
(tsss."
AnchorPoint: "top" 250.5 804 mark 0
LayerCount: 2
Fore
SplineSet
250 926 m 256
 340 927 419 994 419 1085 c 256
 419 1177 344 1247 250 1246 c 256
 157 1247 82 1179 82 1087 c 256
 82 995 158 926 250 926 c 256
251 986 m 256
 202 986 152 1020 151 1087 c 256
 151 1154 200 1187 249 1187 c 256
 299 1187 348 1154 348 1087 c 256
 348 1019 300 986 251 986 c 256
EndSplineSet
EndChar

StartChar: s
Encoding: 115 115 349
Width: 855
VWidth: 0
Flags: W
PickledData: "(dp1
S'com.typemytype.robofont.layerData'
p2
(dp3
S'b'
(dp4
S'name'
p5
S's'
sS'lib'
p6
(dp7
sS'unicodes'
p8
(tsS'width'
p9
I855
sS'contours'
p10
(tsS'components'
p11
(tsS'anchors'
p12
(tsss."
AnchorPoint: "top" 400 805 basechar 0
AnchorPoint: "bot" 480 0 basechar 0
LayerCount: 2
Fore
SplineSet
486 -18 m 256
 636 -18 777 50 777 227 c 256
 777 382 678 438 508 476 c 258
 410 498 l 258
 317 519 255 531 259 617 c 256
 262 680 323 718 413 718 c 256
 488 718 563 688 611 646 c 257
 627 559 l 257
 732 559 l 257
 732 804 l 257
 603 804 l 257
 603 758 l 257
 556 793 483 826 402 826 c 256
 267 826 114 763 114 606 c 256
 114 472 205 411 345 381 c 258
 456 357 l 258
 595 327 638 299 636 214 c 257
 631 129 560 93 475 93 c 256
 389 93 298 127 244 191 c 257
 234 292 l 257
 118 292 l 257
 118 0 l 257
 249 0 l 257
 249 66 l 257
 315 15 397 -18 486 -18 c 256
EndSplineSet
EndChar

StartChar: section
Encoding: 167 167 355
Width: 877
VWidth: 0
Flags: W
PickledData: "(dp1
S'com.typemytype.robofont.layerData'
p2
(dp3
S'b'
(dp4
S'name'
p5
S'section'
p6
sS'lib'
p7
(dp8
sS'unicodes'
p9
(tsS'width'
p10
I877
sS'contours'
p11
((dp12
S'points'
p13
((dp14
S'segmentType'
p15
S'curve'
p16
sS'x'
I560
sS'smooth'
p17
I00
sS'y'
I234
s(dp18
S'y'
I302
sS'x'
I424
sg17
I00
s(dp19
S'y'
I300
sS'x'
I213
sg17
I00
s(dp20
g15
S'curve'
p21
sS'x'
I213
sg17
I01
sS'y'
I476
s(dp22
S'y'
I563
sS'x'
I213
sg17
I00
s(dp23
S'y'
I601
sS'x'
I265
sg17
I00
s(dp24
g15
S'curve'
p25
sS'x'
I331
sg17
I00
sS'y'
I640
s(dp26
S'y'
I573
sS'x'
I466
sg17
I00
s(dp27
S'y'
I581
sS'x'
I685
sg17
I00
s(dp28
g15
S'curve'
p29
sS'x'
I685
sg17
I01
sS'y'
I402
s(dp30
S'y'
I333
sS'x'
I685
sg17
I00
s(dp31
S'y'
I277
sS'x'
I643
sg17
I00
stp32
s(dp33
g13
((dp34
g15
S'curve'
p35
sS'x'
I481
sg17
I01
sS'y'
I-306
s(dp36
S'y'
I-306
sS'x'
I648
sg17
I00
s(dp37
S'y'
I-190
sS'x'
I781
sg17
I00
s(dp38
g15
S'curve'
p39
sS'x'
I781
sg17
I01
sS'y'
I-21
s(dp40
S'y'
I66
sS'x'
I781
sg17
I00
s(dp41
S'y'
I136
sS'x'
I737
sg17
I00
s(dp42
g15
S'curve'
p43
sS'x'
I650
sg17
I00
sS'y'
I187
s(dp44
S'y'
I254
sS'x'
I756
sg17
I00
s(dp45
S'y'
I336
sS'x'
I809
sg17
I00
s(dp46
g15
S'curve'
p47
sS'x'
I809
sg17
I01
sS'y'
I433
s(dp48
S'y'
I709
sS'x'
I809
sg17
I00
s(dp49
S'y'
I601
sS'x'
I257
sg17
I00
s(dp50
g15
S'curve'
p51
sS'x'
I257
sg17
I01
sS'y'
I927
s(dp52
S'y'
I1026
sS'x'
I257
sg17
I00
s(dp53
S'y'
I1068
sS'x'
I358
sg17
I00
s(dp54
g15
S'curve'
p55
sS'x'
I466
sg17
I01
sS'y'
I1068
s(dp56
S'y'
I1068
sS'x'
I561
sg17
I00
s(dp57
S'y'
I1024
sS'x'
I620
sg17
I00
s(dp58
g15
S'curve'
p59
sS'x'
I645
sg17
I00
sS'y'
I938
s(dp60
g15
S'line'
p61
sS'x'
I770
sg17
I00
sS'y'
I983
s(dp62
S'y'
I1114
sS'x'
I730
sg17
I00
s(dp63
S'y'
I1185
sS'x'
I610
sg17
I00
s(dp64
g15
S'curve'
p65
sS'x'
I450
sg17
I01
sS'y'
I1185
s(dp66
g15
S'line'
p67
sS'x'
I448
sg17
I01
sS'y'
I1185
s(dp68
S'y'
I1185
sS'x'
I276
sg17
I00
s(dp69
S'y'
I1077
sS'x'
I118
sg17
I00
s(dp70
g15
S'curve'
p71
sS'x'
I118
sg17
I01
sS'y'
I913
s(dp72
S'y'
I815
sS'x'
I118
sg17
I00
s(dp73
S'y'
I740
sS'x'
I161
sg17
I00
s(dp74
g15
S'curve'
p75
sS'x'
I248
sg17
I00
sS'y'
I688
s(dp76
S'y'
I630
sS'x'
I161
sg17
I00
s(dp77
S'y'
I566
sS'x'
I88
sg17
I00
s(dp78
g15
S'curve'
p79
sS'x'
I88
sg17
I01
sS'y'
I445
s(dp80
S'y'
I174
sS'x'
I88
sg17
I00
s(dp81
S'y'
I311
sS'x'
I640
sg17
I00
s(dp82
g15
S'curve'
p83
sS'x'
I640
sg17
I01
sS'y'
I-53
s(dp84
S'y'
I-133
sS'x'
I640
sg17
I00
s(dp85
S'y'
I-182
sS'x'
I553
sg17
I00
s(dp86
g15
S'curve'
p87
sS'x'
I468
sg17
I01
sS'y'
I-183
s(dp88
S'y'
I-183
sS'x'
I372
sg17
I00
s(dp89
S'y'
I-143
sS'x'
I303
sg17
I00
s(dp90
g15
S'curve'
p91
sS'x'
I262
sg17
I00
sS'y'
I-63
s(dp92
g15
S'line'
p93
sS'x'
I160
sg17
I00
sS'y'
I-146
s(dp94
S'y'
I-253
sS'x'
I228
sg17
I00
s(dp95
S'y'
I-306
sS'x'
I335
sg17
I00
stp96
stp97
sS'components'
p98
(tsS'anchors'
p99
(tsss."
LayerCount: 2
Fore
SplineSet
481 -306 m 256
 648 -306 781 -190 781 -21 c 256
 781 66 737 136 650 187 c 257
 756 254 809 336 809 433 c 256
 809 739 232 656 257 927 c 256
 266 1026 358 1068 466 1068 c 256
 569 1068 666 1032 730 962 c 257
 730 832 l 257
 816 832 l 257
 816 1152 l 257
 730 1152 l 257
 730 1054 l 257
 672 1133 573 1185 448 1185 c 256
 276 1185 118 1077 118 913 c 256
 118 815 161 740 248 688 c 257
 161 630 88 566 88 445 c 256
 88 130 653 228 640 -53 c 256
 636 -133 553 -183 468 -183 c 256
 364 -183 276 -159 207 -81 c 257
 207 55 l 257
 121 55 l 257
 121 -265 l 257
 207 -265 l 257
 207 -175 l 257
 264 -253 365 -306 481 -306 c 256
560 234 m 257
 321 332 213 338 213 476 c 256
 213 563 265 601 331 640 c 257
 554 543 685 534 685 402 c 256
 685 333 643 277 560 234 c 257
EndSplineSet
EndChar

StartChar: semicolon
Encoding: 59 59 356
Width: 414
VWidth: 0
Flags: W
PickledData: "(dp1
S'com.typemytype.robofont.layerData'
p2
(dp3
S'b'
(dp4
S'name'
p5
S'semicolon'
p6
sS'lib'
p7
(dp8
sS'unicodes'
p9
(tsS'width'
p10
I414
sS'contours'
p11
(tsS'components'
p12
(tsS'anchors'
p13
(tsss."
LayerCount: 2
Fore
SplineSet
100 -237 m 257
 257 -239 328 -164 327 0 c 257
 327 211 l 257
 100 211 l 257
 100 0 l 257
 221 0 l 257
 221 -100 187 -132 100 -150 c 257
 100 -237 l 257
93 609 m 257
 320 609 l 257
 320 820 l 257
 93 820 l 257
 93 609 l 257
EndSplineSet
EndChar

StartChar: seven
Encoding: 55 55 357
Width: 1048
VWidth: 0
Flags: W
PickledData: "(dp1
S'com.typemytype.robofont.layerData'
p2
(dp3
S'b'
(dp4
S'name'
p5
S'seven'
p6
sS'lib'
p7
(dp8
sS'unicodes'
p9
(tsS'width'
p10
I1048
sS'contours'
p11
(tsS'components'
p12
(tsS'anchors'
p13
(tsss."
LayerCount: 2
Fore
SplineSet
364 0 m 257
 517 0 l 257
 517 0 701 592 930 1035 c 257
 930 1152 l 257
 172 1152 l 257
 172 859 l 257
 309 859 l 257
 309 1035 l 257
 779 1035 l 257
 555 622 364 0 364 0 c 257
EndSplineSet
EndChar

StartChar: six
Encoding: 54 54 358
Width: 1048
VWidth: 0
Flags: W
PickledData: "(dp1
S'com.typemytype.robofont.layerData'
p2
(dp3
S'b'
(dp4
S'name'
p5
S'six'
p6
sS'lib'
p7
(dp8
sS'unicodes'
p9
(tsS'width'
p10
I1048
sS'contours'
p11
(tsS'components'
p12
(tsS'anchors'
p13
(tsss."
LayerCount: 2
Fore
SplineSet
535 -22 m 256
 758 -22 925 146 925 369 c 256
 925 587 756 729 586 736 c 256
 535 738 484 728 437 704 c 257
 740 1149 l 257
 640 1223 l 257
 229 598 l 258
 191 540 151 448 151 369 c 256
 151 146 312 -22 535 -22 c 256
535 98 m 256
 395 98 277 208 287 373 c 256
 296 516 399 628 539 628 c 256
 689 628 789 522 789 369 c 256
 789 214 675 98 535 98 c 256
EndSplineSet
EndChar

StartChar: slash
Encoding: 47 47 359
Width: 793
VWidth: 0
Flags: W
PickledData: "(dp1
S'com.typemytype.robofont.layerData'
p2
(dp3
S'b'
(dp4
S'name'
p5
S'slash'
p6
sS'lib'
p7
(dp8
sS'unicodes'
p9
(tsS'width'
p10
I793
sS'contours'
p11
(tsS'components'
p12
(tsS'anchors'
p13
(tsss."
LayerCount: 2
Fore
SplineSet
129 -18 m 257
 258 -18 l 257
 692 1171 l 257
 563 1171 l 257
 129 -18 l 257
EndSplineSet
EndChar

StartChar: sterling
Encoding: 163 163 361
Width: 993
VWidth: 0
Flags: W
PickledData: "(dp1
S'com.typemytype.robofont.layerData'
p2
(dp3
S'b'
(dp4
S'name'
p5
S'sterling'
p6
sS'lib'
p7
(dp8
sS'unicodes'
p9
(tsS'width'
p10
I993
sS'contours'
p11
(tsS'components'
p12
(tsS'anchors'
p13
(tsss."
LayerCount: 2
Fore
SplineSet
224 -17 m 256
 306 -17 396 26 447 109 c 257
 556 29 657 -15 738 -15 c 256
 857 -15 934 78 934 290 c 257
 841 290 l 257
 832 166 789 118 722 118 c 256
 664 118 590 153 503 205 c 257
 529 257 542 309 542 363 c 256
 542 419 528 477 502 535 c 257
 818 535 l 257
 818 640 l 257
 452 640 l 257
 414 715 371 779 371 886 c 256
 371 996 461 1052 579 1052 c 256
 694 1052 752 989 752 863 c 257
 887 863 l 257
 884 1065 768 1171 572 1171 c 256
 362 1171 229 1057 229 850 c 256
 229 793 249 723 290 640 c 257
 132 640 l 257
 132 535 l 257
 345 535 l 257
 399 446 429 372 429 307 c 256
 429 290 427 273 422 256 c 257
 357 306 285 332 222 332 c 256
 126 332 51 273 51 151 c 256
 51 38 132 -17 224 -17 c 256
234 79 m 256
 192 79 158 102 158 149 c 256
 158 204.038 189.492 229 231 229 c 256
 273 229 326 206 372 168 c 257
 339 108 281 79 234 79 c 256
EndSplineSet
EndChar

StartChar: summation
Encoding: 8721 8721 362
Width: 1092
VWidth: 0
Flags: W
PickledData: "(dp1
S'com.typemytype.robofont.layerData'
p2
(dp3
S'b'
(dp4
S'name'
p5
S'summation'
p6
sS'lib'
p7
(dp8
sS'unicodes'
p9
(tsS'width'
p10
I1092
sS'contours'
p11
(tsS'components'
p12
(tsS'anchors'
p13
(tsss."
LayerCount: 2
Fore
SplineSet
76 0 m 257
 1008 0 l 257
 1008 328 l 257
 879 328 l 257
 879 116 l 257
 331 116 l 257
 713 582 l 257
 714 613 l 257
 371 1037 l 257
 877 1037 l 257
 877 818 l 257
 1008 818 l 257
 1008 1153 l 257
 76 1153 l 257
 76 1037 l 257
 192 1037 l 257
 567 566 l 257
 192 116 l 257
 76 116 l 257
 76 0 l 257
EndSplineSet
EndChar

StartChar: t
Encoding: 116 116 363
Width: 634
VWidth: 0
Flags: W
PickledData: "(dp1
S'com.typemytype.robofont.layerData'
p2
(dp3
S'b'
(dp4
S'name'
p5
S't'
sS'lib'
p6
(dp7
sS'unicodes'
p8
(tsS'width'
p9
I634
sS'contours'
p10
(tsS'components'
p11
(tsS'anchors'
p12
(tsss."
AnchorPoint: "bot" 388 10 basechar 0
AnchorPoint: "top" 247 1014 basechar 0
AnchorPoint: "mid" 300 503 basechar 0
AnchorPoint: "caron.alt" 141 1063 basechar 0
LayerCount: 2
Fore
SplineSet
413 0 m 258
 557 0 l 257
 557 116 l 257
 433 116 l 258
 344 116 329 175 329 289 c 258
 329 688 l 257
 532 688 l 257
 541 804 l 257
 329 804 l 257
 329 1095 l 257
 181 1063 l 257
 181 804 l 257
 54 804 l 257
 54 688 l 257
 181 688 l 257
 181 300 l 258
 181 95 227 0 413 0 c 258
EndSplineSet
EndChar

StartChar: thorn
Encoding: 254 254 368
Width: 1014
VWidth: 0
Flags: W
PickledData: "(dp1
S'com.typemytype.robofont.layerData'
p2
(dp3
S'b'
(dp4
S'name'
p5
S'thorn'
p6
sS'lib'
p7
(dp8
sS'unicodes'
p9
(tsS'width'
p10
I1014
sS'contours'
p11
(tsS'components'
p12
(tsS'anchors'
p13
(tsss."
LayerCount: 2
Fore
SplineSet
24 -303 m 257
 318 -303 l 257
 319 1153 l 257
 25 1153 l 257
 25 1037 l 257
 168 1037 l 257
 168 -179 l 257
 24 -179 l 257
 24 -303 l 257
EndSplineSet
Refer: 273 -1 N 1 0 0 1 -58 21 2
EndChar

StartChar: three
Encoding: 51 51 369
Width: 1048
VWidth: 0
Flags: W
PickledData: "(dp1
S'com.typemytype.robofont.layerData'
p2
(dp3
S'b'
(dp4
S'name'
p5
S'three'
p6
sS'lib'
p7
(dp8
sS'unicodes'
p9
(tsS'width'
p10
I1048
sS'contours'
p11
(tsS'components'
p12
(tsS'anchors'
p13
(tsss."
LayerCount: 2
Fore
SplineSet
531 -18 m 256
 754 -18 943 98 943 322 c 256
 943 483 843 575 699 602 c 257
 829 639 894 727 894 864 c 256
 894 1069 735 1170 522 1170 c 256
 311 1170 205 1102 119 960 c 257
 242 891 l 257
 311 1001 387 1038 523 1038 c 256
 653 1038 740 975 740 850 c 256
 740 682 619 664 413 664 c 257
 413 532 l 257
 657 532 779 464 779 328 c 256
 779 177 681 116 521 116 c 256
 376 116 309 187 260 280 c 257
 134 206 l 257
 208 74 319 -18 531 -18 c 256
EndSplineSet
EndChar

StartChar: threequarters
Encoding: 190 190 370
Width: 1936
VWidth: 0
Flags: W
PickledData: "(dp1
S'com.typemytype.robofont.layerData'
p2
(dp3
S'b'
(dp4
S'name'
p5
S'threequarters'
p6
sS'lib'
p7
(dp8
sS'unicodes'
p9
(tsS'width'
p10
I1936
sS'contours'
p11
(tsS'components'
p12
(tsS'anchors'
p13
(tsss."
LayerCount: 2
Fore
SplineSet
437 330 m 256
 598 330 714 421 714 581 c 256
 714 679 640 748 539 768 c 257
 630 794 682 862 682 945 c 257
 678 1094 583 1173 418 1174 c 256
 268 1175 182 1102 137 992 c 257
 222 953 l 257
 247 1046 313 1091 420 1091 c 256
 526 1091 584 1042 584 941 c 256
 584 854.896 538.451 807.333 388.327 801.59 c 256
 378.048 801.197 367.278 801 356 801 c 257
 356 729 l 257
 367.564 729 378.649 728.829 389.271 728.484 c 256
 556.835 723.039 609.179 674.145 612 566 c 256
 612 472 547 413 437 413 c 256
 334 413 268 456 229 542 c 257
 156 492 l 257
 201 386 294 330 437 330 c 256
1411 0 m 257
 1778 0 l 257
 1778 80 l 257
 1658 80 l 257
 1658 254 l 257
 1811 254 l 257
 1811 329 l 257
 1658 329 l 257
 1658 804 l 257
 1556 804 l 257
 1181 329 l 257
 1181 254 l 257
 1553 254 l 257
 1553 80 l 257
 1411 80 l 257
 1411 0 l 257
613 0 m 257
 714 0 l 257
 1488 1152 l 257
 1390 1152 l 257
 613 0 l 257
1289 329 m 257
 1553 678 l 257
 1553 329 l 257
 1289 329 l 257
EndSplineSet
EndChar

StartChar: threesuperior
Encoding: 179 179 371
Width: 900
VWidth: 0
Flags: W
PickledData: "(dp1
S'com.typemytype.robofont.layerData'
p2
(dp3
S'b'
(dp4
S'name'
p5
S'uni00B3'
p6
sS'lib'
p7
(dp8
sS'unicodes'
p9
(tsS'width'
p10
I900
sS'contours'
p11
(tsS'components'
p12
(tsS'anchors'
p13
(tsss."
LayerCount: 2
Fore
SplineSet
483 439 m 256
 685 439 811 546 811 713 c 256
 811 822 738 884 622 912 c 257
 716 940 775 1011 775 1106 c 256
 775 1241 654 1335 473 1335 c 256
 325 1335 206 1266 155 1158 c 257
 274 1101 l 257
 300 1174 371 1220 470 1220 c 256
 563 1220 629 1169 629 1104 c 256
 629 1019.08 583.597 968.884 428.95 963.486 c 256
 419.696 963.163 410.05 963 400 963 c 257
 400 848 l 257
 412.86 848 425.168 847.801 436.941 847.395 c 256
 589.951 842.121 652.429 801.927 658 710 c 256
 663 615 591 555 484 555 c 256
 382 555 311 603 277 689 c 257
 159 625 l 257
 195 512 320 439 483 439 c 256
EndSplineSet
EndChar

StartChar: tilde
Encoding: 732 732 372
Width: 587
VWidth: 0
Flags: W
PickledData: "(dp1
S'com.typemytype.robofont.layerData'
p2
(dp3
S'b'
(dp4
S'name'
p5
S'tilde'
p6
sS'lib'
p7
(dp8
sS'unicodes'
p9
(tsS'width'
p10
I587
sS'contours'
p11
(tsS'components'
p12
(tsS'anchors'
p13
(tsss."
AnchorPoint: "top" 293.5 804 mark 0
LayerCount: 2
Fore
SplineSet
408 961 m 256
 480 961 518 1041 527 1122 c 257
 490 1122 l 257
 481 1095 458 1069 421 1069 c 256
 355 1069 240 1116 154 1116 c 256
 91 1116 45 1047 35 957 c 257
 73 957 l 257
 81 984 91 1008 127 1008 c 256
 197 1008 309 961 408 961 c 256
EndSplineSet
EndChar

StartChar: trademark
Encoding: 8482 8482 373
Width: 1986
VWidth: 0
Flags: W
PickledData: "(dp1
S'com.typemytype.robofont.layerData'
p2
(dp3
S'b'
(dp4
S'name'
p5
S'trademark'
p6
sS'lib'
p7
(dp8
sS'unicodes'
p9
(tsS'width'
p10
I1986
sS'contours'
p11
(tsS'components'
p12
(tsS'anchors'
p13
(tsss."
LayerCount: 2
Fore
SplineSet
849 388 m 257
 1150 388 l 257
 1150 483 l 257
 1057 483 l 257
 1057 1012 l 257
 1328 388 l 257
 1367 388 l 257
 1639 1014 l 257
 1639 483 l 257
 1547 483 l 257
 1547 388 l 257
 1856 388 l 257
 1856 483 l 257
 1755 483 l 257
 1755 1057 l 257
 1856 1057 l 257
 1856 1153 l 257
 1574 1153 l 257
 1349 634 l 257
 1128 1153 l 257
 849 1153 l 257
 849 1057 l 257
 951 1057 l 257
 951 483 l 257
 849 483 l 257
 849 388 l 257
276 388 m 257
 644 388 l 257
 644 483 l 257
 524 483 l 257
 524 1057 l 257
 685 1057 l 257
 685 898 l 257
 790 898 l 257
 790 1153 l 257
 127 1153 l 257
 127 898 l 257
 231 898 l 257
 231 1057 l 257
 396 1057 l 257
 396 483 l 257
 276 483 l 257
 276 388 l 257
EndSplineSet
EndChar

StartChar: two
Encoding: 50 50 374
Width: 1048
VWidth: 0
Flags: W
PickledData: "(dp1
S'com.typemytype.robofont.layerData'
p2
(dp3
S'b'
(dp4
S'name'
p5
S'two'
p6
sS'lib'
p7
(dp8
sS'unicodes'
p9
(tsS'width'
p10
I1048
sS'contours'
p11
(tsS'components'
p12
(tsS'anchors'
p13
(tsss."
LayerCount: 2
Fore
SplineSet
163 0 m 257
 914 0 l 257
 914 348 l 257
 787 348 l 257
 787 116 l 257
 361 116 l 257
 695 477 l 258
 846 640 903 739 903 843 c 256
 903 1043 767 1170 528 1170 c 256
 253 1170 134 1026 134 832 c 256
 134 789 139 743 151 695 c 257
 291 695 l 257
 281 737 276 776 276 812 c 256
 276 956 359 1041 528 1041 c 256
 670 1041 750 967 750 848 c 256
 750 768 706 695 603 586 c 258
 162 116 l 257
 163 0 l 257
EndSplineSet
EndChar

StartChar: twosuperior
Encoding: 178 178 375
Width: 900
VWidth: 0
Flags: W
PickledData: "(dp1
S'com.typemytype.robofont.layerData'
p2
(dp3
S'b'
(dp4
S'name'
p5
S'uni00B2'
p6
sS'lib'
p7
(dp8
sS'unicodes'
p9
(tsS'width'
p10
I900
sS'contours'
p11
(tsS'components'
p12
(tsS'anchors'
p13
(tsss."
LayerCount: 2
Fore
SplineSet
174 455 m 257
 790 455 l 257
 788 727 l 257
 674 727 l 257
 673 561 l 257
 345 561 l 257
 542 747 l 258
 642 841 766 951 766 1079 c 256
 766 1235 665 1335 476 1335 c 256
 279 1335 159 1222 159 1067 c 256
 159 1033 165 997 177 960 c 257
 307 960 l 257
 299 992 295 1022 295 1049 c 256
 295 1160 360 1223 478 1223 c 256
 590 1223 622 1153 625 1077 c 256
 629 1002 531 912 449 832 c 258
 174 565 l 257
 174 455 l 257
EndSplineSet
EndChar

StartChar: u
Encoding: 117 117 376
Width: 1005
VWidth: 0
Flags: W
PickledData: "(dp1
S'com.typemytype.robofont.layerData'
p2
(dp3
S'b'
(dp4
S'name'
p5
S'u'
sS'lib'
p6
(dp7
sS'unicodes'
p8
(tsS'width'
p9
I1005
sS'contours'
p10
(tsS'components'
p11
(tsS'anchors'
p12
(tsss."
AnchorPoint: "bot" 502.5 0 basechar 0
AnchorPoint: "top" 471 804 basechar 0
AnchorPoint: "ogonek" 780 0 basechar 0
LayerCount: 2
Fore
SplineSet
411 -18 m 256
 511 -18 596 21 680 100 c 257
 685 0 l 257
 974 0 l 257
 974 116 l 257
 828 116 l 257
 828 804 l 257
 532 804 l 257
 532 688 l 257
 680 688 l 257
 680 250 l 257
 606 155 530 107 439 107 c 256
 354 107 296 161 296 268 c 258
 296 804 l 257
 12 804 l 257
 12 688 l 257
 148 688 l 257
 148 261 l 258
 148 75 245 -18 411 -18 c 256
EndSplineSet
EndChar

StartChar: uc_main_stem
Encoding: 65558 -1 379
Width: 657
VWidth: 0
Flags: W
PickledData: "(dp1
S'com.schriftgestaltung.Glyphs.Export'
p2
I00
sS'com.typemytype.robofont.layerData'
p3
(dp4
S'b'
(dp5
S'name'
p6
S'uc_main_stem'
p7
sS'lib'
p8
(dp9
sS'unicodes'
p10
(tsS'width'
p11
I657
sS'contours'
p12
(tsS'components'
p13
(tsS'anchors'
p14
(tsss."
LayerCount: 2
Fore
SplineSet
115 0 m 257
 543 0 l 257
 543 116 l 257
 411 116 l 257
 411 1036 l 257
 543 1036 l 257
 543 1152 l 257
 115 1152 l 257
 115 1036 l 257
 249 1036 l 257
 249 116 l 257
 115 116 l 257
 115 0 l 257
EndSplineSet
EndChar

StartChar: underscore
Encoding: 95 95 385
Width: 898
VWidth: 0
Flags: W
PickledData: "(dp1
S'com.typemytype.robofont.layerData'
p2
(dp3
S'b'
(dp4
S'name'
p5
S'underscore'
p6
sS'lib'
p7
(dp8
sS'unicodes'
p9
(tsS'width'
p10
I898
sS'contours'
p11
(tsS'components'
p12
(tsS'anchors'
p13
(tsss."
LayerCount: 2
Fore
SplineSet
0 -223 m 257
 898 -223 l 257
 898 -106 l 257
 0 -106 l 257
 0 -223 l 257
EndSplineSet
EndChar

StartChar: uni00AD
Encoding: 173 173 391
Width: 719
VWidth: 0
Flags: HW
PickledData: "(dp1
S'com.typemytype.robofont.layerData'
p2
(dp3
S'b'
(dp4
S'name'
p5
S'uni00AD'
p6
sS'lib'
p7
(dp8
sS'unicodes'
p9
(tsS'width'
p10
I1707
sS'contours'
p11
(tsS'components'
p12
(tsS'anchors'
p13
(tsss."
AnchorPoint: "mid" 361 590 mark 0
LayerCount: 2
Fore
SplineSet
91 534 m 257
 638 534 l 257
 638 649 l 257
 91 649 l 257
 91 534 l 257
EndSplineSet
EndChar

StartChar: uni00B5
Encoding: 181 181 392
Width: 990
VWidth: 0
Flags: W
PickledData: "(dp1
S'com.typemytype.robofont.layerData'
p2
(dp3
S'b'
(dp4
S'name'
p5
S'uni00B5'
p6
sS'lib'
p7
(dp8
sS'unicodes'
p9
(tsS'width'
p10
I990
sS'contours'
p11
(tsS'components'
p12
(tsS'anchors'
p13
(tsss."
LayerCount: 2
Fore
SplineSet
148 -368 m 257
 296 -368 l 257
 296 351 l 257
 148 351 l 257
 148 -368 l 257
EndSplineSet
Refer: 376 117 N 1 0 0 1 0 0 2
EndChar

StartChar: uni02C9
Encoding: 713 713 458
Width: 600
VWidth: 0
Flags: W
LayerCount: 2
Fore
SplineSet
89 1063 m 257
 536 1063 l 257
 536 1171 l 257
 89 1171 l 257
 89 1063 l 257
EndSplineSet
EndChar

StartChar: uni0307
Encoding: 775 775 459
Width: 535
VWidth: 0
Flags: W
PickledData: "(dp1
S'com.typemytype.robofont.layerData'
p2
(dp3
S'b'
(dp4
S'name'
p5
S'uni0307'
p6
sS'lib'
p7
(dp8
sS'unicodes'
p9
(tsS'width'
p10
I535
sS'contours'
p11
(tsS'components'
p12
(tsS'anchors'
p13
(tsss."
AnchorPoint: "top" 267.5 804 mark 0
LayerCount: 2
Fore
SplineSet
268 950 m 256
 325 950 360 992 359 1038 c 257
 359 1093 317 1125 268 1125 c 256
 219 1125 176 1088 177 1038 c 256
 177 990 220 950 268 950 c 256
EndSplineSet
EndChar

StartChar: uni0326
Encoding: 806 806 460
Width: 554
VWidth: 0
Flags: W
PickledData: "(dp1
S'com.typemytype.robofont.layerData'
p2
(dp3
S'b'
(dp4
S'name'
p5
S'uni0326'
p6
sS'lib'
p7
(dp8
sS'unicodes'
p9
(tsS'width'
p10
I554
sS'contours'
p11
(tsS'components'
p12
(tsS'anchors'
p13
(tsss."
AnchorPoint: "bot" 277 0 mark 0
LayerCount: 2
Fore
SplineSet
166 -515 m 257
 293 -512 347 -448 348 -311 c 258
 348 -129 l 257
 166 -129 l 257
 166 -311 l 257
 257 -311 l 257
 257 -393 233 -426 166 -439 c 257
 166 -515 l 257
EndSplineSet
EndChar

StartChar: uni2113
Encoding: 8467 8467 479
Width: 602
VWidth: 0
Flags: W
LayerCount: 2
Fore
SplineSet
481 -9 m 257
 501 99 l 257
 353 99 298 120 320 260 c 258
 470 1215 l 257
 143 1215 l 257
 130 1122 l 257
 319 1122 l 257
 181 261 l 258
 145 34 266 -11 481 -9 c 257
EndSplineSet
EndChar

StartChar: uni2126
Encoding: 8486 8486 480
Width: 1350
VWidth: 0
Flags: W
LayerCount: 2
Fore
SplineSet
186 0 m 257
 599 0 l 257
 599 109 l 257
 383 254 279 467 279 654 c 256
 279 868 415 1047 675 1047 c 256
 935 1047 1071 868 1071 654 c 256
 1071 467 967 254 751 109 c 257
 751 0 l 257
 1164 0 l 257
 1164 118 l 257
 928 118 l 257
 1123 253 1222 463 1222 661 c 256
 1222 929 1041 1174 675 1174 c 256
 309 1174 128 929 128 661 c 256
 128 463 227 253 422 118 c 257
 186 118 l 257
 186 0 l 257
EndSplineSet
EndChar

StartChar: uni2206
Encoding: 8710 8710 481
Width: 996
VWidth: 0
Flags: W
PickledData: "(dp1
S'com.typemytype.robofont.layerData'
p2
(dp3
S'b'
(dp4
S'name'
p5
S'uni2206'
p6
sS'lib'
p7
(dp8
sS'unicodes'
p9
(tsS'width'
p10
I996
sS'contours'
p11
(tsS'components'
p12
(tsS'anchors'
p13
(tsss."
LayerCount: 2
Fore
SplineSet
48 0 m 257
 943 0 l 257
 943 102 l 257
 577 1166 l 257
 429 1166 l 257
 48 91 l 257
 48 0 l 257
171 117 m 257
 429.441 850.199 453 928 468 993 c 257
 528 733 659.059 406.412 752 117 c 257
 171 117 l 257
EndSplineSet
EndChar

StartChar: v
Encoding: 118 118 487
Width: 993
VWidth: 0
Flags: W
PickledData: "(dp1
S'com.typemytype.robofont.layerData'
p2
(dp3
S'b'
(dp4
S'name'
p5
S'v'
sS'lib'
p6
(dp7
sS'unicodes'
p8
(tsS'width'
p9
I993
sS'contours'
p10
(tsS'components'
p11
(tsS'anchors'
p12
(tsss."
LayerCount: 2
Fore
SplineSet
438 0 m 257
 574 0 l 257
 850 688 l 257
 983 688 l 257
 983 804 l 257
 581 804 l 257
 581 688 l 257
 701 688 l 257
 505 162 l 257
 299 688 l 257
 421 688 l 257
 421 804 l 257
 10 804 l 257
 10 688 l 257
 142 688 l 257
 438 0 l 257
EndSplineSet
EndChar

StartChar: w
Encoding: 119 119 488
Width: 1441
VWidth: 0
Flags: W
PickledData: "(dp1
S'com.typemytype.robofont.layerData'
p2
(dp3
S'b'
(dp4
S'name'
p5
S'w'
sS'lib'
p6
(dp7
sS'unicodes'
p8
(tsS'width'
p9
I1441
sS'contours'
p10
(tsS'components'
p11
(tsS'anchors'
p12
(tsss."
AnchorPoint: "bot" 720.5 0 basechar 0
AnchorPoint: "top" 728 805 basechar 0
LayerCount: 2
Fore
SplineSet
375 0 m 257
 518 0 l 257
 729 621 l 257
 935 0 l 257
 1077 0 l 257
 1311 688 l 257
 1433 688 l 257
 1433 804 l 257
 1057 804 l 257
 1057 688 l 257
 1177 688 l 257
 1010 146 l 257
 819 688 l 257
 924 688 l 257
 924 804 l 257
 526 804 l 257
 526 688 l 257
 631 688 l 257
 444 157 l 257
 277 688 l 257
 387 688 l 257
 387 804 l 257
 8 804 l 257
 8 688 l 257
 137 688 l 257
 375 0 l 257
EndSplineSet
EndChar

StartChar: x
Encoding: 120 120 493
Width: 1018
VWidth: 0
Flags: W
PickledData: "(dp1
S'com.typemytype.robofont.layerData'
p2
(dp3
S'b'
(dp4
S'name'
p5
S'x'
sS'lib'
p6
(dp7
sS'unicodes'
p8
(tsS'width'
p9
I1018
sS'contours'
p10
(tsS'components'
p11
(tsS'anchors'
p12
(tsss."
LayerCount: 2
Fore
SplineSet
60 0 m 257
 438 0 l 257
 438 116 l 257
 332 116 l 257
 509 329 l 257
 694 116 l 257
 582 116 l 257
 582 0 l 257
 958 0 l 257
 958 116 l 257
 846 116 l 257
 588 413 l 257
 817 688 l 257
 950 688 l 257
 950 804 l 257
 570 804 l 257
 570 688 l 257
 671 688 l 257
 509 494 l 257
 341 688 l 257
 450 688 l 257
 450 804 l 257
 70 804 l 257
 70 688 l 257
 195 688 l 257
 432 413 l 257
 179 116 l 257
 60 116 l 257
 60 0 l 257
EndSplineSet
EndChar

StartChar: y
Encoding: 121 121 494
Width: 1006
VWidth: 0
Flags: W
PickledData: "(dp1
S'com.typemytype.robofont.layerData'
p2
(dp3
S'b'
(dp4
S'name'
p5
S'y'
sS'lib'
p6
(dp7
sS'unicodes'
p8
(tsS'width'
p9
I1006
sS'contours'
p10
(tsS'components'
p11
(tsS'anchors'
p12
(tsss."
AnchorPoint: "bot" 503 0 basechar 0
AnchorPoint: "top" 511 805 basechar 0
LayerCount: 2
Fore
SplineSet
171 -320 m 257
 257 -320 l 258
 499 -320 557 -177 634 36 c 258
 870 688 l 257
 996 688 l 257
 996 804 l 257
 583 804 l 257
 583 688 l 257
 710 688 l 257
 525 125 l 257
 294 688 l 257
 418 688 l 257
 418 804 l 257
 12 804 l 257
 12 688 l 257
 138 688 l 257
 411 43 l 257
 505 43 l 257
 473 -42 l 258
 433 -149 377 -202 245 -202 c 258
 171 -202 l 257
 171 -320 l 257
EndSplineSet
EndChar

StartChar: yen
Encoding: 165 165 498
Width: 1268
VWidth: 0
Flags: W
PickledData: "(dp1
S'com.typemytype.robofont.layerData'
p2
(dp3
S'b'
(dp4
S'name'
p5
S'yen'
p6
sS'lib'
p7
(dp8
sS'unicodes'
p9
(tsS'width'
p10
I1268
sS'contours'
p11
(tsS'components'
p12
(tsS'anchors'
p13
(tsss."
LayerCount: 2
Fore
SplineSet
316 276 m 257
 952 276 l 257
 952 393 l 257
 316 393 l 257
 316 276 l 257
316 500 m 257
 952 500 l 257
 952 617 l 257
 316 617 l 257
 316 500 l 257
EndSplineSet
Refer: 124 89 N 1 0 0 1 0 0 2
EndChar

StartChar: z
Encoding: 122 122 500
Width: 877
VWidth: 0
Flags: W
PickledData: "(dp1
S'com.typemytype.robofont.layerData'
p2
(dp3
S'b'
(dp4
S'name'
p5
S'z'
sS'lib'
p6
(dp7
sS'unicodes'
p8
(tsS'width'
p9
I877
sS'contours'
p10
(tsS'components'
p11
(tsS'anchors'
p12
(tsss."
AnchorPoint: "bot" 438.5 0 basechar 0
AnchorPoint: "top" 453 804 basechar 0
LayerCount: 2
Fore
SplineSet
108 0 m 257
 788 0 l 257
 788 276 l 257
 660 276 l 257
 660 116 l 257
 288 116 l 257
 763 682 l 257
 763 804 l 257
 109 804 l 257
 109 536 l 257
 230 536 l 257
 230 688 l 257
 581 688 l 257
 108 116 l 257
 108 0 l 257
EndSplineSet
EndChar

StartChar: zero
Encoding: 48 48 504
Width: 1006
VWidth: 0
Flags: W
PickledData: "(dp1
S'com.typemytype.robofont.layerData'
p2
(dp3
S'b'
(dp4
S'name'
p5
S'zero'
p6
sS'lib'
p7
(dp8
sS'unicodes'
p9
(tsS'width'
p10
I1006
sS'contours'
p11
(tsS'components'
p12
(tsS'anchors'
p13
(tsss."
LayerCount: 2
Fore
SplineSet
499 101 m 257
 289 105 242 290 242 576 c 256
 242 832 299 1051 502 1051 c 256
 724 1051 765 835 765 575 c 256
 765 312 726 101 499 101 c 257
503 -18 m 256
 809 -18 917 230 918 577 c 256
 918 902 808 1171 503 1171 c 256
 196 1171 88 923 88 577 c 256
 88 252 198 -18 503 -18 c 256
EndSplineSet
EndChar
